{"glyphs":{"0":{"ha":546,"x_min":43,"x_max":503,"o":"m 274 -18 q 153 10 206 -17 q 72 98 101 38 q 43 258 43 158 l 43 592 q 108 772 43 714 q 276 831 172 831 q 440 772 376 831 q 503 592 503 714 l 503 260 q 474 96 503 157 q 394 8 446 35 q 274 -18 342 -18 m 274 78 q 324 102 304 78 q 343 175 343 126 l 343 636 q 323 709 343 685 q 274 733 303 733 q 224 709 244 733 q 204 636 204 685 l 204 175 q 224 102 204 126 q 274 78 244 78 z "},"1":{"ha":378,"x_min":18,"x_max":319,"o":"m 158 0 l 158 622 l 18 622 l 18 714 l 57 715 q 133 744 106 719 q 179 821 160 768 l 319 821 l 319 0 l 158 0 z "},"2":{"ha":539,"x_min":35,"x_max":510,"o":"m 35 0 q 35 83 35 42 q 35 167 35 125 q 53 285 35 242 q 110 358 72 329 q 208 415 149 386 q 285 463 257 439 q 326 519 313 486 q 339 603 339 551 q 325 682 340 654 q 271 710 310 710 q 217 677 233 710 q 201 581 201 644 l 201 524 l 40 524 l 40 626 q 99 776 40 726 q 274 825 158 825 q 413 801 361 825 q 485 728 464 778 q 507 596 507 678 q 475 439 507 499 q 367 338 443 379 q 304 304 333 321 q 253 268 275 288 q 222 218 232 249 q 208 178 214 200 q 203 132 203 157 l 510 132 l 510 0 l 35 0 z "},"3":{"ha":538,"x_min":29,"x_max":501,"o":"m 265 -10 q 132 15 185 -10 q 54 84 79 39 q 29 193 29 129 l 29 288 l 190 288 l 190 236 q 207 140 190 174 q 263 106 224 107 q 316 135 299 106 q 333 210 333 164 l 333 289 q 303 354 333 335 q 213 375 272 374 l 147 375 l 147 464 l 214 464 q 264 471 242 464 q 301 490 286 478 q 325 520 318 504 q 332 554 332 536 l 332 611 q 317 681 332 651 q 263 710 301 710 q 208 676 222 710 q 193 585 193 643 l 193 551 l 31 551 l 31 628 q 88 775 31 725 q 265 825 146 825 q 445 779 390 825 q 500 642 500 733 l 500 579 q 465 465 500 508 q 361 414 429 422 q 465 367 429 410 q 501 253 501 324 l 501 193 q 478 78 501 124 q 402 12 454 33 q 265 -10 350 -10 z "},"4":{"ha":538,"x_min":11,"x_max":522,"o":"m 276 0 l 276 161 l 11 161 l 11 289 l 281 821 l 439 821 l 439 269 l 522 269 l 522 161 l 439 161 l 439 0 l 276 0 m 140 269 l 276 269 l 276 546 l 140 269 z "},"5":{"ha":544,"x_min":36,"x_max":508,"o":"m 272 -11 q 134 6 186 -11 q 59 71 82 24 q 36 207 36 118 l 36 278 l 197 278 l 197 221 q 215 130 197 154 q 272 106 233 106 q 326 133 310 106 q 342 224 342 160 l 342 358 q 336 407 342 385 q 315 442 331 429 q 271 456 300 456 q 222 438 240 456 q 197 388 203 419 l 38 388 l 38 821 l 490 821 l 490 706 l 197 706 l 197 503 q 242 545 210 526 q 335 564 274 564 q 467 526 426 564 q 508 397 508 489 l 508 203 q 481 73 508 119 q 402 8 454 26 q 272 -11 350 -11 z "},"6":{"ha":549,"x_min":43,"x_max":510,"o":"m 272 -15 q 147 10 199 -15 q 69 87 94 36 q 43 210 43 138 l 43 629 q 106 778 43 729 q 274 828 169 828 q 442 781 383 828 q 501 632 501 733 l 501 576 l 340 576 l 340 650 q 324 711 340 693 q 275 729 307 729 q 223 708 242 729 q 204 649 204 686 l 204 461 q 265 508 226 493 q 343 522 303 522 q 462 485 414 522 q 510 375 510 447 l 510 190 q 481 81 510 128 q 401 10 453 35 q 272 -15 349 -15 m 276 81 q 328 101 307 81 q 349 165 349 121 l 349 349 q 324 405 349 389 q 274 421 300 421 q 226 405 246 421 q 204 363 206 389 l 204 165 q 224 102 204 122 q 276 81 244 82 z "},"7":{"ha":454,"x_min":11,"x_max":431,"o":"m 47 0 l 271 707 l 11 707 l 11 821 l 431 821 l 431 704 l 208 0 l 47 0 z "},"8":{"ha":538,"x_min":36,"x_max":501,"o":"m 271 -11 q 139 13 192 -11 q 61 84 86 38 q 36 194 36 131 l 36 244 q 43 321 36 286 q 71 379 50 356 q 116 412 86 397 q 194 431 146 426 q 124 442 147 432 q 81 469 101 451 q 50 533 57 493 q 43 614 43 572 l 43 646 q 65 747 43 707 q 135 806 86 786 q 271 825 185 825 q 406 806 357 825 q 477 747 456 786 q 499 646 499 707 l 499 614 q 487 527 499 565 q 445 465 475 489 q 363 431 415 440 q 440 408 411 426 q 481 363 468 390 q 498 305 494 336 q 501 243 501 274 l 501 193 q 478 91 501 138 q 405 17 456 44 q 271 -11 354 -11 m 268 82 q 322 103 304 82 q 340 161 340 125 l 340 279 q 324 338 340 315 q 268 361 307 360 q 214 335 231 361 q 197 278 197 310 l 197 161 q 214 104 197 126 q 268 82 231 82 m 268 483 q 317 506 296 483 q 338 574 338 528 l 338 640 q 322 709 338 681 q 268 738 307 738 q 214 708 228 738 q 200 642 200 679 l 200 575 q 209 524 200 544 q 234 493 218 503 q 268 483 250 483 z "},"9":{"ha":546,"x_min":36,"x_max":503,"o":"m 271 -15 q 103 32 161 -15 q 44 181 44 79 l 44 250 l 204 250 l 204 163 q 222 102 204 121 q 271 83 239 83 q 322 105 304 83 q 340 164 340 126 l 340 361 q 281 315 319 329 q 203 300 243 300 q 117 319 156 300 q 58 380 79 338 q 36 492 36 422 l 36 622 q 64 732 36 686 q 145 803 92 778 q 272 828 199 828 q 399 802 349 828 q 476 726 450 776 q 503 603 503 676 l 503 183 q 440 34 503 83 q 271 -15 376 -15 m 272 401 q 319 417 300 401 q 340 460 339 433 l 340 647 q 321 710 340 690 q 269 732 301 731 q 218 712 239 732 q 197 647 197 692 l 197 474 q 221 417 197 433 q 272 401 244 401 z "},"\r":{"ha":833,"x_min":0,"x_max":0,"o":""}," ":{"ha":231,"x_min":0,"x_max":0,"o":""}," ":{"ha":231,"x_min":0,"x_max":0,"o":""},"A":{"ha":544,"x_min":11,"x_max":533,"o":"m 11 0 l 158 821 l 389 821 l 533 0 l 353 0 l 328 151 l 208 151 l 185 0 l 11 0 m 211 232 l 326 232 l 269 678 l 211 232 z "},"А":{"ha":544,"x_min":11,"x_max":533,"o":"m 11 0 l 158 821 l 389 821 l 533 0 l 353 0 l 328 151 l 208 151 l 185 0 l 11 0 m 211 232 l 326 232 l 269 678 l 211 232 z "},"Æ":{"ha":764,"x_min":1,"x_max":736,"o":"m 1 0 l 247 821 l 719 821 l 719 707 l 482 707 l 486 488 l 696 488 l 696 361 l 488 361 l 490 111 l 736 111 l 736 0 l 314 0 l 314 151 l 217 151 l 175 0 l 1 0 m 229 232 l 325 232 l 340 649 l 342 678 l 336 650 l 229 232 z "},"Á":{"ha":544,"x_min":11,"x_max":533,"o":"m 11 0 l 158 821 l 389 821 l 533 0 l 353 0 l 328 151 l 208 151 l 185 0 l 11 0 m 211 232 l 326 232 l 269 678 l 211 232 m 190 881 l 299 1011 l 444 1011 l 279 881 l 190 881 z "},"Ă":{"ha":544,"x_min":11,"x_max":533,"o":"m 11 0 l 158 821 l 389 821 l 533 0 l 353 0 l 328 151 l 208 151 l 185 0 l 11 0 m 211 232 l 326 232 l 269 678 l 211 232 m 269 875 q 172 899 206 875 q 127 955 139 922 q 114 1014 115 988 l 200 1014 q 224 967 203 982 q 271 951 244 951 q 320 966 300 951 q 343 1014 340 981 l 429 1014 q 413 947 429 978 q 362 895 396 915 q 269 875 328 875 z "},"Ắ":{"ha":544,"x_min":11,"x_max":533,"o":"m 11 0 l 158 821 l 389 821 l 533 0 l 353 0 l 328 151 l 208 151 l 185 0 l 11 0 m 211 232 l 326 232 l 269 678 l 211 232 m 271 868 q 192 887 218 868 q 158 931 167 906 q 149 976 150 956 l 233 976 q 245 951 233 960 q 272 943 257 943 q 299 951 286 943 q 311 976 311 958 l 396 976 q 367 899 396 931 q 271 868 339 868 m 214 1001 l 269 1106 l 418 1106 l 313 1001 l 214 1001 z "},"Ặ":{"ha":544,"x_min":11,"x_max":533,"o":"m 11 0 l 158 821 l 389 821 l 533 0 l 353 0 l 328 151 l 208 151 l 185 0 l 11 0 m 211 232 l 326 232 l 269 678 l 211 232 m 272 -181 q 224 -161 243 -181 q 206 -117 206 -142 q 224 -70 206 -89 q 272 -51 243 -51 q 319 -70 299 -51 q 339 -117 339 -89 q 319 -161 339 -142 q 272 -181 299 -181 m 269 875 q 172 899 206 875 q 127 955 139 922 q 114 1014 115 988 l 200 1014 q 224 967 203 982 q 271 951 244 951 q 320 966 300 951 q 343 1014 340 981 l 429 1014 q 413 947 429 978 q 362 895 396 915 q 269 875 328 875 z "},"Ằ":{"ha":544,"x_min":11,"x_max":533,"o":"m 11 0 l 158 821 l 389 821 l 533 0 l 353 0 l 328 151 l 208 151 l 185 0 l 11 0 m 211 232 l 326 232 l 269 678 l 211 232 m 271 868 q 192 887 218 868 q 158 931 167 906 q 150 976 150 956 l 233 976 q 247 951 233 958 q 272 943 260 943 q 299 951 288 943 q 313 976 311 958 l 396 976 q 367 899 397 931 q 271 868 338 868 m 242 1001 l 138 1106 l 285 1106 l 342 1001 l 242 1001 z "},"Ẳ":{"ha":544,"x_min":11,"x_max":533,"o":"m 11 0 l 158 821 l 389 821 l 533 0 l 353 0 l 328 151 l 208 151 l 185 0 l 11 0 m 211 232 l 326 232 l 269 678 l 211 232 m 271 868 q 192 887 218 868 q 158 931 167 906 q 149 976 150 956 l 233 976 q 245 951 233 960 q 272 943 257 943 q 299 951 286 943 q 311 976 311 958 l 396 976 q 367 899 396 931 q 271 868 339 868 m 229 1001 l 229 1010 q 240 1033 229 1025 q 263 1047 251 1040 q 274 1064 274 1053 l 274 1069 q 270 1085 274 1081 q 258 1089 267 1089 q 248 1084 253 1089 q 243 1071 243 1079 l 179 1079 q 201 1126 182 1110 q 264 1143 221 1143 q 335 1130 315 1143 q 356 1074 356 1117 l 356 1069 q 345 1039 356 1047 q 324 1026 335 1031 q 313 1010 313 1021 l 313 1001 l 229 1001 z "},"Ẵ":{"ha":544,"x_min":11,"x_max":533,"o":"m 11 0 l 158 821 l 389 821 l 533 0 l 353 0 l 328 151 l 208 151 l 185 0 l 11 0 m 211 232 l 326 232 l 269 678 l 211 232 m 269 868 q 191 887 217 868 q 157 931 165 906 q 147 976 149 956 l 232 976 q 245 951 233 960 q 271 943 257 943 q 298 951 286 943 q 311 976 310 958 l 394 976 q 366 899 396 931 q 269 868 336 868 m 321 999 q 290 1005 304 999 q 258 1021 275 1011 q 238 1031 247 1026 q 214 1036 228 1036 q 194 1025 201 1036 q 188 1000 188 1014 l 146 1000 q 165 1076 146 1046 q 215 1106 185 1106 q 247 1101 232 1106 q 275 1089 263 1096 q 299 1077 289 1082 q 322 1072 310 1072 q 342 1081 336 1072 q 350 1103 349 1089 l 397 1103 q 385 1044 397 1068 q 355 1010 372 1021 q 321 999 338 999 z "},"Ǎ":{"ha":544,"x_min":11,"x_max":533,"o":"m 11 0 l 158 821 l 389 821 l 533 0 l 353 0 l 328 151 l 208 151 l 185 0 l 11 0 m 211 232 l 326 232 l 269 678 l 211 232 m 228 876 l 97 1011 l 199 1011 l 274 946 l 350 1011 l 449 1011 l 317 876 l 228 876 z "},"Â":{"ha":544,"x_min":11,"x_max":533,"o":"m 11 0 l 158 821 l 389 821 l 533 0 l 353 0 l 328 151 l 208 151 l 185 0 l 11 0 m 211 232 l 326 232 l 269 678 l 211 232 m 94 876 l 228 1015 l 317 1015 l 451 876 l 351 876 l 274 946 l 196 876 l 94 876 z "},"Ấ":{"ha":544,"x_min":11,"x_max":615,"o":"m 11 0 l 158 821 l 389 821 l 533 0 l 353 0 l 328 151 l 208 151 l 185 0 l 11 0 m 211 232 l 326 232 l 269 678 l 211 232 m 133 869 l 231 983 l 314 983 l 411 869 l 321 869 l 274 918 l 226 869 l 133 869 m 410 946 l 467 1050 l 614 1050 l 510 946 l 410 946 z "},"Ậ":{"ha":544,"x_min":11,"x_max":533,"o":"m 11 0 l 158 821 l 389 821 l 533 0 l 353 0 l 328 151 l 208 151 l 185 0 l 11 0 m 211 232 l 326 232 l 269 678 l 211 232 m 272 -181 q 224 -161 243 -181 q 206 -117 206 -142 q 224 -70 206 -89 q 272 -51 243 -51 q 319 -70 299 -51 q 339 -117 339 -89 q 319 -161 339 -142 q 272 -181 299 -181 m 94 876 l 228 1015 l 317 1015 l 451 876 l 351 876 l 274 946 l 196 876 l 94 876 z "},"Ầ":{"ha":544,"x_min":11,"x_max":536,"o":"m 11 0 l 158 821 l 389 821 l 533 0 l 353 0 l 328 151 l 208 151 l 185 0 l 11 0 m 211 232 l 326 232 l 269 678 l 211 232 m 133 869 l 231 983 l 314 983 l 411 869 l 321 869 l 274 918 l 226 869 l 133 869 m 436 944 l 332 1049 l 479 1049 l 536 944 l 436 944 z "},"Ẩ":{"ha":544,"x_min":11,"x_max":542,"o":"m 11 0 l 158 821 l 389 821 l 533 0 l 353 0 l 328 151 l 208 151 l 185 0 l 11 0 m 211 232 l 326 232 l 269 678 l 211 232 m 133 869 l 231 983 l 314 983 l 411 869 l 321 869 l 274 918 l 226 869 l 133 869 m 415 939 l 415 947 q 426 970 415 963 q 449 984 438 978 q 460 1000 460 990 l 460 1007 q 456 1022 460 1018 q 444 1026 451 1026 q 429 1007 432 1026 l 367 1017 q 388 1063 368 1047 q 451 1079 408 1079 q 522 1067 501 1079 q 542 1011 542 1054 l 542 1007 q 531 976 542 985 q 508 963 519 968 q 497 947 497 958 l 497 939 l 415 939 z "},"Ẫ":{"ha":544,"x_min":11,"x_max":533,"o":"m 11 0 l 158 821 l 389 821 l 533 0 l 353 0 l 328 151 l 208 151 l 185 0 l 11 0 m 211 232 l 326 232 l 269 678 l 211 232 m 133 869 l 231 983 l 314 983 l 411 869 l 321 869 l 274 918 l 226 869 l 133 869 m 322 1008 q 291 1015 306 1008 q 263 1028 276 1021 q 238 1039 250 1035 q 215 1043 226 1043 q 197 1033 204 1043 q 189 1010 189 1024 l 147 1010 q 167 1085 147 1057 q 218 1113 186 1113 q 249 1108 233 1113 q 278 1096 264 1104 q 300 1085 289 1090 q 322 1081 311 1081 q 345 1090 339 1081 q 353 1110 351 1099 l 400 1110 q 387 1053 400 1076 q 356 1019 374 1031 q 322 1008 339 1008 z "},"Ä":{"ha":544,"x_min":11,"x_max":533,"o":"m 11 0 l 158 821 l 389 821 l 533 0 l 353 0 l 328 151 l 208 151 l 185 0 l 11 0 m 211 232 l 326 232 l 269 678 l 211 232 m 190 881 q 142 899 161 881 q 124 944 124 917 q 142 988 124 971 q 190 1006 161 1006 q 236 988 218 1006 q 254 944 254 971 q 236 899 254 917 q 190 881 218 881 m 357 881 q 310 899 329 881 q 290 944 290 917 q 310 988 290 971 q 357 1006 329 1006 q 403 988 385 1006 q 422 944 422 971 q 403 899 422 917 q 357 881 385 881 z "},"Ạ":{"ha":544,"x_min":11,"x_max":533,"o":"m 11 0 l 158 821 l 389 821 l 533 0 l 353 0 l 328 151 l 208 151 l 185 0 l 11 0 m 211 232 l 326 232 l 269 678 l 211 232 m 272 -181 q 224 -161 243 -181 q 206 -117 206 -142 q 224 -70 206 -89 q 272 -51 243 -51 q 319 -70 299 -51 q 339 -117 339 -89 q 319 -161 339 -142 q 272 -181 299 -181 z "},"À":{"ha":544,"x_min":11,"x_max":533,"o":"m 11 0 l 158 821 l 389 821 l 533 0 l 353 0 l 328 151 l 208 151 l 185 0 l 11 0 m 211 232 l 326 232 l 269 678 l 211 232 m 253 881 l 99 1007 l 247 1007 l 353 881 l 253 881 z "},"Ả":{"ha":544,"x_min":11,"x_max":533,"o":"m 11 0 l 158 821 l 389 821 l 533 0 l 353 0 l 328 151 l 208 151 l 185 0 l 11 0 m 211 232 l 326 232 l 269 678 l 211 232 m 226 872 l 226 889 q 241 920 226 910 q 271 940 256 931 q 286 965 286 949 l 286 974 q 281 994 286 985 q 260 1004 275 1004 q 235 975 238 1004 l 164 986 q 193 1043 168 1024 q 267 1063 218 1063 q 349 1047 321 1063 q 376 976 376 1031 l 376 971 q 360 928 376 940 q 327 910 343 917 q 311 886 311 903 l 311 872 l 226 872 z "},"Ā":{"ha":544,"x_min":11,"x_max":533,"o":"m 11 0 l 158 821 l 389 821 l 533 0 l 353 0 l 328 151 l 208 151 l 185 0 l 11 0 m 211 232 l 326 232 l 269 678 l 211 232 m 129 897 l 129 978 l 415 978 l 415 897 l 129 897 z "},"Ą":{"ha":544,"x_min":11,"x_max":561,"o":"m 11 0 l 158 821 l 389 821 l 533 0 l 353 0 l 328 151 l 208 151 l 185 0 l 11 0 m 211 232 l 326 232 l 269 678 l 211 232 m 472 -200 q 390 -173 422 -200 q 358 -111 358 -146 q 390 -39 358 -72 q 468 1 421 -6 l 533 0 q 478 -39 496 -12 q 461 -89 461 -65 q 478 -129 461 -115 q 513 -143 496 -143 q 531 -140 524 -143 q 543 -137 539 -137 l 561 -179 q 534 -192 554 -183 q 472 -200 514 -200 z "},"Å":{"ha":544,"x_min":11,"x_max":533,"o":"m 11 0 l 158 821 l 389 821 l 533 0 l 353 0 l 328 151 l 208 151 l 185 0 l 11 0 m 211 232 l 326 232 l 269 678 l 211 232 m 281 819 q 195 853 229 819 q 161 932 161 886 q 195 1014 161 981 q 281 1047 229 1047 q 367 1013 332 1047 q 401 932 401 979 q 366 853 401 886 q 281 819 331 819 m 281 883 q 319 897 304 883 q 335 932 335 911 q 319 971 335 957 q 281 985 304 985 q 243 971 258 985 q 228 932 228 957 q 243 897 228 911 q 281 883 258 883 z "},"Ã":{"ha":544,"x_min":11,"x_max":533,"o":"m 11 0 l 158 821 l 389 821 l 533 0 l 353 0 l 328 151 l 208 151 l 185 0 l 11 0 m 211 232 l 326 232 l 269 678 l 211 232 m 332 885 q 293 892 311 885 q 256 911 275 900 q 226 928 242 921 q 194 935 211 935 q 166 922 176 935 q 154 886 156 908 l 107 886 q 133 974 108 940 q 196 1008 157 1008 q 238 1001 218 1008 q 274 982 257 993 q 303 967 289 974 q 333 960 318 960 q 363 972 353 960 q 376 1004 374 985 l 428 1004 q 413 938 428 965 q 376 898 399 911 q 332 885 354 885 z "},"B":{"ha":564,"x_min":58,"x_max":522,"o":"m 58 0 l 58 821 l 350 821 q 469 784 428 821 q 510 682 510 747 l 510 589 q 499 523 510 553 q 468 472 489 493 q 429 449 453 457 q 383 439 406 440 l 383 438 q 429 432 407 438 q 471 410 451 426 q 508 360 494 392 q 522 283 522 329 l 522 171 q 499 67 522 104 q 434 15 476 29 q 333 0 392 0 l 58 0 m 221 85 l 296 85 q 330 92 317 85 q 351 121 343 100 q 358 182 358 142 l 358 279 q 340 352 358 335 q 290 369 321 369 l 221 369 l 221 85 m 221 471 l 286 471 q 337 493 318 471 q 356 571 356 515 l 356 653 q 340 715 356 696 q 299 733 324 733 l 221 733 l 221 471 z "},"Б":{"ha":539,"x_min":58,"x_max":499,"o":"m 58 0 l 58 821 l 463 821 l 463 707 l 217 707 l 217 606 l 339 606 q 420 592 385 606 q 477 542 456 578 q 499 442 499 507 l 499 215 q 486 103 499 146 q 450 38 474 60 q 393 8 426 17 q 317 0 360 0 l 58 0 m 281 83 q 318 93 306 83 q 335 122 331 103 q 340 167 340 142 l 340 426 q 335 469 340 450 q 318 497 331 488 q 279 507 306 507 l 217 507 l 217 83 l 281 83 z "},"C":{"ha":551,"x_min":49,"x_max":508,"o":"m 281 -17 q 160 -1 213 -17 q 78 66 108 15 q 49 217 49 117 l 49 647 q 78 761 49 721 q 161 817 108 801 q 282 833 214 833 q 402 817 351 833 q 481 760 453 800 q 508 647 508 719 l 508 478 l 347 478 l 347 654 q 339 705 347 688 q 316 728 331 722 q 282 733 301 733 q 247 728 263 733 q 224 705 232 722 q 215 654 215 688 l 215 157 q 224 108 215 125 q 247 84 232 90 q 282 78 263 78 q 316 84 301 78 q 339 108 331 90 q 347 157 347 125 l 347 319 l 508 319 l 508 218 q 481 66 508 117 q 402 -1 453 15 q 281 -17 351 -17 z "},"Ć":{"ha":551,"x_min":49,"x_max":508,"o":"m 281 -17 q 160 -1 213 -17 q 78 66 108 15 q 49 217 49 117 l 49 647 q 78 761 49 721 q 161 817 108 801 q 282 833 214 833 q 402 817 351 833 q 481 760 453 800 q 508 647 508 719 l 508 478 l 347 478 l 347 654 q 339 705 347 688 q 316 728 331 722 q 282 733 301 733 q 247 728 263 733 q 224 705 232 722 q 215 654 215 688 l 215 157 q 224 108 215 125 q 247 84 232 90 q 282 78 263 78 q 316 84 301 78 q 339 108 331 90 q 347 157 347 125 l 347 319 l 508 319 l 508 218 q 481 66 508 117 q 402 -1 453 15 q 281 -17 351 -17 m 193 881 l 301 1011 l 447 1011 l 282 881 l 193 881 z "},"Č":{"ha":551,"x_min":49,"x_max":508,"o":"m 281 -17 q 160 -1 213 -17 q 78 66 108 15 q 49 217 49 117 l 49 647 q 78 761 49 721 q 161 817 108 801 q 282 833 214 833 q 402 817 351 833 q 481 760 453 800 q 508 647 508 719 l 508 478 l 347 478 l 347 654 q 339 705 347 688 q 316 728 331 722 q 282 733 301 733 q 247 728 263 733 q 224 705 232 722 q 215 654 215 688 l 215 157 q 224 108 215 125 q 247 84 232 90 q 282 78 263 78 q 316 84 301 78 q 339 108 331 90 q 347 157 347 125 l 347 319 l 508 319 l 508 218 q 481 66 508 117 q 402 -1 453 15 q 281 -17 351 -17 m 231 876 l 100 1011 l 201 1011 l 276 946 l 353 1011 l 451 1011 l 319 876 l 231 876 z "},"Ç":{"ha":551,"x_min":49,"x_max":508,"o":"m 281 -17 q 160 -1 213 -17 q 78 66 108 15 q 49 217 49 117 l 49 647 q 78 761 49 721 q 161 817 108 801 q 282 833 214 833 q 402 817 351 833 q 481 760 453 800 q 508 647 508 719 l 508 478 l 347 478 l 347 654 q 339 705 347 688 q 316 728 331 722 q 282 733 301 733 q 247 728 263 733 q 224 705 232 722 q 215 654 215 688 l 215 157 q 224 108 215 125 q 247 84 232 90 q 282 78 263 78 q 316 84 301 78 q 339 108 331 90 q 347 157 347 125 l 347 319 l 508 319 l 508 218 q 481 66 508 117 q 402 -1 453 15 q 281 -17 351 -17 m 269 -224 q 220 -214 243 -224 q 188 -199 197 -204 l 207 -149 q 233 -161 217 -156 q 263 -167 250 -167 q 296 -156 285 -167 q 307 -129 307 -146 q 298 -108 307 -115 q 275 -100 289 -100 q 260 -103 267 -100 q 247 -110 253 -106 l 203 -86 l 247 0 l 307 0 l 271 -72 l 261 -68 q 284 -59 271 -62 q 314 -56 297 -56 q 373 -79 351 -56 q 394 -131 394 -103 q 362 -197 394 -169 q 269 -224 329 -224 z "},"Ċ":{"ha":551,"x_min":49,"x_max":508,"o":"m 281 -17 q 160 -1 213 -17 q 78 66 108 15 q 49 217 49 117 l 49 647 q 78 761 49 721 q 161 817 108 801 q 282 833 214 833 q 402 817 351 833 q 481 760 453 800 q 508 647 508 719 l 508 478 l 347 478 l 347 654 q 339 705 347 688 q 316 728 331 722 q 282 733 301 733 q 247 728 263 733 q 224 705 232 722 q 215 654 215 688 l 215 157 q 224 108 215 125 q 247 84 232 90 q 282 78 263 78 q 316 84 301 78 q 339 108 331 90 q 347 157 347 125 l 347 319 l 508 319 l 508 218 q 481 66 508 117 q 402 -1 453 15 q 281 -17 351 -17 m 293 882 q 236 905 260 882 q 211 961 213 928 q 235 1017 211 994 q 294 1040 260 1040 q 352 1017 328 1040 q 376 961 376 994 q 353 905 378 928 q 293 882 328 882 z "},"Ч":{"ha":529,"x_min":40,"x_max":483,"o":"m 322 0 l 322 225 q 274 199 308 213 q 199 186 239 186 q 99 208 133 186 q 52 272 64 231 q 40 371 40 313 l 40 821 l 199 821 l 199 371 q 212 314 199 333 q 260 294 225 294 q 301 301 286 294 q 322 314 315 308 l 322 821 l 483 821 l 483 0 l 322 0 z "},"D":{"ha":567,"x_min":58,"x_max":518,"o":"m 58 0 l 58 821 l 346 821 q 442 804 404 821 q 499 753 481 788 q 518 668 518 719 l 518 176 q 494 69 518 108 q 427 15 471 31 q 324 0 383 0 l 58 0 m 226 83 l 297 83 q 341 100 325 83 q 357 163 357 117 l 357 650 q 341 713 357 696 q 297 729 325 729 l 226 729 l 226 83 z "},"Ď":{"ha":567,"x_min":58,"x_max":518,"o":"m 58 0 l 58 821 l 346 821 q 442 804 404 821 q 499 753 481 788 q 518 668 518 719 l 518 176 q 494 69 518 108 q 427 15 471 31 q 324 0 383 0 l 58 0 m 226 83 l 297 83 q 341 100 325 83 q 357 163 357 117 l 357 650 q 341 713 357 696 q 297 729 325 729 l 226 729 l 226 83 m 238 876 l 107 1011 l 208 1011 l 283 946 l 360 1011 l 458 1011 l 326 876 l 238 876 z "},"Đ":{"ha":613,"x_min":17,"x_max":564,"o":"m 83 0 l 83 821 l 392 821 q 488 804 450 821 q 544 753 525 788 q 564 668 564 719 l 564 176 q 540 69 564 108 q 473 15 517 31 q 369 0 429 0 l 83 0 m 17 356 l 17 450 l 306 450 l 306 356 l 17 356 m 250 83 l 332 83 q 385 100 368 83 q 403 163 403 117 l 403 650 q 385 713 403 696 q 332 729 368 729 l 250 729 l 250 83 z "},"Д":{"ha":838,"x_min":36,"x_max":800,"o":"m 36 -158 l 36 103 l 111 103 q 159 136 138 106 q 186 217 181 167 q 200 333 193 268 q 213 466 207 397 q 225 601 219 535 q 234 725 231 668 q 240 821 238 782 l 663 821 l 663 103 l 800 103 l 800 -158 l 668 -158 l 668 -31 l 169 -31 l 169 -158 l 36 -158 m 308 103 l 503 103 l 503 707 l 390 707 q 372 471 381 589 q 353 235 363 353 q 339 158 349 197 q 308 103 329 118 z "},"Δ":{"ha":771,"x_min":40,"x_max":731,"o":"m 40 0 l 307 813 l 471 813 l 731 0 l 40 0 m 228 122 l 533 122 l 382 621 l 228 122 z "},"Ђ":{"ha":644,"x_min":13,"x_max":604,"o":"m 143 0 l 143 707 l 13 707 l 13 821 l 436 821 l 436 707 l 306 707 l 306 513 q 355 555 318 535 q 444 575 392 575 q 528 560 493 575 q 584 510 564 546 q 604 410 604 474 l 604 225 q 590 100 604 146 q 550 33 575 54 q 491 6 525 11 q 417 0 457 0 q 382 4 401 0 q 351 14 363 8 l 351 86 q 367 84 358 85 q 382 83 375 83 q 430 108 415 83 q 444 182 444 132 l 444 397 q 431 458 444 439 q 376 476 418 476 q 328 464 344 476 q 306 436 313 451 l 306 0 l 143 0 z "},"Ѕ":{"ha":543,"x_min":33,"x_max":510,"o":"m 267 -10 q 141 11 193 -10 q 61 85 89 32 q 33 233 33 138 l 33 282 q 118 282 76 282 q 201 282 160 282 l 201 219 q 210 141 201 168 q 233 103 218 114 q 269 93 249 93 q 320 116 301 93 q 339 206 339 139 q 323 283 339 257 q 272 324 307 308 q 183 364 238 340 q 103 414 135 385 q 56 488 71 443 q 40 596 40 532 q 62 726 40 676 q 134 799 83 776 q 271 822 185 822 q 441 774 382 822 q 500 631 500 726 l 500 532 q 420 532 460 532 q 339 532 381 532 l 339 582 q 324 669 339 644 q 272 694 310 694 q 221 672 236 694 q 206 600 206 650 q 224 528 206 554 q 272 490 243 503 q 335 464 301 476 q 435 416 396 440 q 492 349 474 392 q 510 228 510 307 q 480 87 510 139 q 395 13 450 35 q 267 -10 340 -10 z "},"Џ":{"ha":551,"x_min":46,"x_max":507,"o":"m 224 -137 l 224 0 l 46 0 l 46 821 l 214 821 l 214 114 l 339 114 l 339 821 l 507 821 l 507 0 l 328 0 l 328 -137 l 224 -137 z "},"E":{"ha":464,"x_min":58,"x_max":436,"o":"m 58 0 l 58 821 l 436 821 l 436 707 l 226 707 l 226 488 l 404 488 l 404 361 l 226 361 l 226 111 l 436 111 l 436 0 l 58 0 z "},"É":{"ha":464,"x_min":58,"x_max":436,"o":"m 58 0 l 58 821 l 436 821 l 436 707 l 226 707 l 226 488 l 404 488 l 404 361 l 226 361 l 226 111 l 436 111 l 436 0 l 58 0 m 164 881 l 272 1011 l 418 1011 l 253 881 l 164 881 z "},"Ě":{"ha":464,"x_min":58,"x_max":436,"o":"m 58 0 l 58 821 l 436 821 l 436 707 l 226 707 l 226 488 l 404 488 l 404 361 l 226 361 l 226 111 l 436 111 l 436 0 l 58 0 m 201 876 l 71 1011 l 172 1011 l 247 946 l 324 1011 l 422 1011 l 290 876 l 201 876 z "},"Ê":{"ha":464,"x_min":58,"x_max":436,"o":"m 58 0 l 58 821 l 436 821 l 436 707 l 226 707 l 226 488 l 404 488 l 404 361 l 226 361 l 226 111 l 436 111 l 436 0 l 58 0 m 68 876 l 201 1015 l 290 1015 l 425 876 l 325 876 l 247 946 l 169 876 l 68 876 z "},"Ế":{"ha":464,"x_min":58,"x_max":589,"o":"m 58 0 l 58 821 l 436 821 l 436 707 l 226 707 l 226 488 l 404 488 l 404 361 l 226 361 l 226 111 l 436 111 l 436 0 l 58 0 m 107 869 l 204 983 l 288 983 l 385 869 l 294 869 l 247 918 l 200 869 l 107 869 m 383 946 l 440 1050 l 588 1050 l 483 946 l 383 946 z "},"Ệ":{"ha":464,"x_min":58,"x_max":436,"o":"m 58 0 l 58 821 l 436 821 l 436 707 l 226 707 l 226 488 l 404 488 l 404 361 l 226 361 l 226 111 l 436 111 l 436 0 l 58 0 m 244 -181 q 197 -161 215 -181 q 178 -117 178 -142 q 197 -70 178 -89 q 244 -51 215 -51 q 291 -70 271 -51 q 311 -117 311 -89 q 291 -161 311 -142 q 244 -181 271 -181 m 68 876 l 201 1015 l 290 1015 l 425 876 l 325 876 l 247 946 l 169 876 l 68 876 z "},"Ề":{"ha":464,"x_min":58,"x_max":510,"o":"m 58 0 l 58 821 l 436 821 l 436 707 l 226 707 l 226 488 l 404 488 l 404 361 l 226 361 l 226 111 l 436 111 l 436 0 l 58 0 m 107 869 l 204 983 l 288 983 l 385 869 l 294 869 l 247 918 l 200 869 l 107 869 m 410 944 l 306 1049 l 453 1049 l 510 944 l 410 944 z "},"Ể":{"ha":464,"x_min":58,"x_max":515,"o":"m 58 0 l 58 821 l 436 821 l 436 707 l 226 707 l 226 488 l 404 488 l 404 361 l 226 361 l 226 111 l 436 111 l 436 0 l 58 0 m 107 869 l 204 983 l 288 983 l 385 869 l 294 869 l 247 918 l 200 869 l 107 869 m 389 939 l 389 947 q 400 970 389 963 q 422 984 411 978 q 433 1000 433 990 l 433 1007 q 429 1022 433 1018 q 418 1026 425 1026 q 403 1007 406 1026 l 340 1017 q 362 1063 342 1047 q 425 1079 382 1079 q 495 1067 475 1079 q 515 1011 515 1054 l 515 1007 q 504 976 515 985 q 482 963 493 968 q 471 947 471 958 l 471 939 l 389 939 z "},"Ễ":{"ha":464,"x_min":58,"x_max":436,"o":"m 58 0 l 58 821 l 436 821 l 436 707 l 226 707 l 226 488 l 404 488 l 404 361 l 226 361 l 226 111 l 436 111 l 436 0 l 58 0 m 107 869 l 204 983 l 288 983 l 385 869 l 294 869 l 247 918 l 200 869 l 107 869 m 296 1008 q 265 1015 279 1008 q 236 1028 250 1021 q 212 1039 224 1035 q 189 1043 200 1043 q 170 1033 178 1043 q 163 1010 163 1024 l 121 1010 q 140 1085 121 1057 q 192 1113 160 1113 q 222 1108 207 1113 q 251 1096 238 1104 q 274 1085 263 1090 q 296 1081 285 1081 q 319 1090 313 1081 q 326 1110 325 1099 l 374 1110 q 360 1053 374 1076 q 330 1019 347 1031 q 296 1008 313 1008 z "},"Ë":{"ha":464,"x_min":58,"x_max":436,"o":"m 58 0 l 58 821 l 436 821 l 436 707 l 226 707 l 226 488 l 404 488 l 404 361 l 226 361 l 226 111 l 436 111 l 436 0 l 58 0 m 164 881 q 116 899 135 881 q 97 944 97 917 q 116 988 97 971 q 164 1006 135 1006 q 210 988 192 1006 q 228 944 228 971 q 210 899 228 917 q 164 881 192 881 m 331 881 q 283 899 303 881 q 264 944 264 917 q 283 988 264 971 q 331 1006 303 1006 q 377 988 358 1006 q 396 944 396 971 q 377 899 396 917 q 331 881 358 881 z "},"Ė":{"ha":464,"x_min":58,"x_max":436,"o":"m 58 0 l 58 821 l 436 821 l 436 707 l 226 707 l 226 488 l 404 488 l 404 361 l 226 361 l 226 111 l 436 111 l 436 0 l 58 0 m 263 882 q 206 905 229 882 q 181 961 182 928 q 205 1017 181 994 q 264 1040 229 1040 q 322 1017 297 1040 q 346 961 346 994 q 322 905 347 928 q 263 882 297 882 z "},"Ẹ":{"ha":464,"x_min":58,"x_max":436,"o":"m 58 0 l 58 821 l 436 821 l 436 707 l 226 707 l 226 488 l 404 488 l 404 361 l 226 361 l 226 111 l 436 111 l 436 0 l 58 0 m 244 -181 q 197 -161 215 -181 q 178 -117 178 -142 q 197 -70 178 -89 q 244 -51 215 -51 q 291 -70 271 -51 q 311 -117 311 -89 q 291 -161 311 -142 q 244 -181 271 -181 z "},"Ф":{"ha":732,"x_min":36,"x_max":696,"o":"m 286 -37 l 286 99 l 239 99 q 88 139 140 99 q 36 278 36 179 l 36 554 q 79 670 36 629 q 217 711 122 711 l 286 711 l 286 821 l 446 821 l 446 711 l 514 711 q 652 671 608 711 q 696 553 696 631 l 696 279 q 642 138 696 176 q 490 99 589 99 l 446 99 l 446 -37 l 286 -37 m 265 182 l 286 182 q 286 402 286 293 q 286 619 286 511 l 265 619 q 215 601 232 619 q 197 538 197 582 l 197 265 q 215 201 197 221 q 265 182 232 182 m 446 182 l 464 182 q 517 200 499 182 q 535 265 535 218 l 535 536 q 517 601 535 583 q 464 619 499 619 l 446 619 q 446 402 446 511 q 446 182 446 293 z "},"È":{"ha":464,"x_min":58,"x_max":436,"o":"m 58 0 l 58 821 l 436 821 l 436 707 l 226 707 l 226 488 l 404 488 l 404 361 l 226 361 l 226 111 l 436 111 l 436 0 l 58 0 m 226 881 l 72 1007 l 221 1007 l 326 881 l 226 881 z "},"Ẻ":{"ha":464,"x_min":58,"x_max":436,"o":"m 58 0 l 58 821 l 436 821 l 436 707 l 226 707 l 226 488 l 404 488 l 404 361 l 226 361 l 226 111 l 436 111 l 436 0 l 58 0 m 201 872 l 201 889 q 216 920 201 910 q 246 940 231 931 q 261 965 261 949 l 261 974 q 256 994 261 985 q 235 1004 250 1004 q 210 975 213 1004 l 139 986 q 168 1043 143 1024 q 242 1063 193 1063 q 324 1047 296 1063 q 351 976 351 1031 l 351 971 q 335 928 351 940 q 302 910 318 917 q 286 886 286 903 l 286 872 l 201 872 z "},"Л":{"ha":621,"x_min":14,"x_max":575,"o":"m 14 0 l 14 83 q 62 114 39 83 q 88 189 85 144 l 132 821 l 575 821 l 575 0 l 414 0 l 414 707 l 290 707 l 249 147 q 243 97 246 122 q 228 49 240 71 q 190 15 217 28 q 117 0 164 1 l 14 0 z "},"М":{"ha":744,"x_min":58,"x_max":686,"o":"m 58 0 l 58 821 l 260 821 l 372 290 l 486 821 l 686 821 l 686 0 l 544 0 l 544 614 l 426 0 l 317 0 l 200 614 l 200 0 l 58 0 z "},"Ē":{"ha":464,"x_min":58,"x_max":436,"o":"m 58 0 l 58 821 l 436 821 l 436 707 l 226 707 l 226 488 l 404 488 l 404 361 l 226 361 l 226 111 l 436 111 l 436 0 l 58 0 m 103 897 l 103 978 l 389 978 l 389 897 l 103 897 z "},"Н":{"ha":574,"x_min":58,"x_max":515,"o":"m 58 0 l 58 821 l 219 821 l 219 485 l 354 485 l 354 821 l 515 821 l 515 0 l 354 0 l 354 365 l 219 365 l 219 0 l 58 0 z "},"Ŋ":{"ha":569,"x_min":58,"x_max":513,"o":"m 321 -258 q 288 -258 310 -258 q 256 -257 267 -258 l 256 -146 l 297 -146 q 354 -132 339 -146 q 369 -72 369 -118 l 369 3 l 201 464 l 200 0 l 58 0 l 60 821 l 200 821 l 369 324 l 371 821 l 513 821 l 511 -54 q 494 -178 511 -135 q 434 -240 476 -222 q 321 -258 392 -258 z "},"Ę":{"ha":464,"x_min":58,"x_max":436,"o":"m 58 0 l 58 821 l 436 821 l 436 707 l 226 707 l 226 488 l 404 488 l 404 361 l 226 361 l 226 111 l 436 111 l 436 0 l 58 0 m 328 -200 q 246 -173 278 -200 q 214 -111 214 -146 q 245 -39 214 -72 q 324 1 276 -6 l 389 0 q 334 -39 351 -12 q 317 -89 317 -65 q 334 -129 317 -115 q 368 -143 351 -143 q 387 -140 379 -143 q 399 -137 394 -137 l 417 -179 q 390 -192 410 -183 q 328 -200 369 -200 z "},"Р":{"ha":544,"x_min":58,"x_max":517,"o":"m 58 0 l 58 821 l 350 821 q 474 784 432 821 q 517 682 517 747 l 517 540 q 503 437 517 485 q 453 360 489 389 q 349 331 417 331 l 226 331 l 226 0 l 58 0 m 226 419 l 289 419 q 339 451 322 419 q 356 557 356 483 l 356 613 q 342 706 356 678 q 301 733 328 733 l 226 733 l 226 419 z "},"Э":{"ha":547,"x_min":40,"x_max":501,"o":"m 268 -17 q 148 -1 200 -17 q 68 66 96 15 q 40 218 40 117 l 40 268 l 203 268 l 203 158 q 211 109 203 126 q 235 86 219 92 q 268 81 250 81 q 303 86 289 81 q 326 109 318 92 q 333 158 333 126 l 333 346 l 149 346 l 149 454 l 333 454 l 333 650 q 326 700 333 683 q 303 723 318 717 q 268 729 289 729 q 235 724 250 729 q 211 701 219 718 q 203 653 203 685 l 203 522 l 40 522 l 40 647 q 68 760 40 719 q 147 817 96 800 q 268 833 199 833 q 390 817 338 833 q 472 760 442 800 q 501 647 501 719 l 501 217 q 472 66 501 117 q 390 -1 443 15 q 268 -17 338 -17 z "},"С":{"ha":551,"x_min":49,"x_max":508,"o":"m 281 -17 q 160 -1 213 -17 q 78 66 108 15 q 49 217 49 117 l 49 647 q 78 761 49 721 q 161 817 108 801 q 282 833 214 833 q 402 817 351 833 q 481 760 453 800 q 508 647 508 719 l 508 478 l 347 478 l 347 654 q 339 705 347 688 q 316 728 331 722 q 282 733 301 733 q 247 728 263 733 q 224 705 232 722 q 215 654 215 688 l 215 157 q 224 108 215 125 q 247 84 232 90 q 282 78 263 78 q 316 84 301 78 q 339 108 331 90 q 347 157 347 125 l 347 319 l 508 319 l 508 218 q 481 66 508 117 q 402 -1 453 15 q 281 -17 351 -17 z "},"Ð":{"ha":613,"x_min":17,"x_max":564,"o":"m 83 0 l 83 821 l 392 821 q 488 804 450 821 q 544 753 525 788 q 564 668 564 719 l 564 176 q 540 69 564 108 q 473 15 517 31 q 369 0 429 0 l 83 0 m 17 356 l 17 450 l 306 450 l 306 356 l 17 356 m 250 83 l 332 83 q 385 100 368 83 q 403 163 403 117 l 403 650 q 385 713 403 696 q 332 729 368 729 l 250 729 l 250 83 z "},"Ẽ":{"ha":464,"x_min":58,"x_max":436,"o":"m 58 0 l 58 821 l 436 821 l 436 707 l 226 707 l 226 488 l 404 488 l 404 361 l 226 361 l 226 111 l 436 111 l 436 0 l 58 0 m 306 885 q 267 892 285 885 q 229 911 249 900 q 200 928 215 921 q 168 935 185 935 q 140 922 150 935 q 128 886 129 908 l 81 886 q 106 974 82 940 q 169 1008 131 1008 q 211 1001 192 1008 q 247 982 231 993 q 277 967 263 974 q 307 960 292 960 q 337 972 326 960 q 350 1004 347 985 l 401 1004 q 387 938 401 965 q 350 898 372 911 q 306 885 328 885 z "},"F":{"ha":457,"x_min":58,"x_max":436,"o":"m 58 0 l 58 821 l 436 821 l 436 707 l 226 707 l 226 488 l 404 488 l 404 361 l 226 361 l 226 0 l 58 0 z "},"G":{"ha":553,"x_min":49,"x_max":508,"o":"m 231 -15 q 142 0 183 -15 q 75 60 101 15 q 49 196 49 106 l 49 646 q 77 758 49 718 q 157 815 106 799 q 276 831 208 831 q 397 815 344 831 q 478 758 449 799 q 508 646 508 718 l 508 531 l 351 531 l 351 654 q 342 705 351 688 q 318 728 333 722 q 281 733 303 733 q 244 728 260 733 q 219 705 228 722 q 210 654 210 688 l 210 157 q 219 108 210 125 q 244 84 228 90 q 281 78 260 78 q 332 97 313 78 q 351 157 351 117 l 351 321 l 285 321 l 285 413 l 508 413 l 508 0 l 388 0 l 379 64 q 374 56 376 60 q 369 49 371 51 q 323 5 356 25 q 231 -15 290 -15 z "},"Ğ":{"ha":553,"x_min":49,"x_max":508,"o":"m 231 -15 q 142 0 183 -15 q 75 60 101 15 q 49 196 49 106 l 49 646 q 77 758 49 718 q 157 815 106 799 q 276 831 208 831 q 397 815 344 831 q 478 758 449 799 q 508 646 508 718 l 508 531 l 351 531 l 351 654 q 342 705 351 688 q 318 728 333 722 q 281 733 303 733 q 244 728 260 733 q 219 705 228 722 q 210 654 210 688 l 210 157 q 219 108 210 125 q 244 84 228 90 q 281 78 260 78 q 332 97 313 78 q 351 157 351 117 l 351 321 l 285 321 l 285 413 l 508 413 l 508 0 l 388 0 l 379 64 q 374 56 376 60 q 369 49 371 51 q 323 5 356 25 q 231 -15 290 -15 m 275 875 q 178 899 211 875 q 133 955 144 922 q 119 1014 121 988 l 206 1014 q 229 967 208 982 q 276 951 250 951 q 326 966 306 951 q 349 1014 346 981 l 435 1014 q 418 947 435 978 q 367 895 401 915 q 275 875 333 875 z "},"Ģ":{"ha":553,"x_min":49,"x_max":508,"o":"m 231 -15 q 142 0 183 -15 q 75 60 101 15 q 49 196 49 106 l 49 646 q 77 758 49 718 q 157 815 106 799 q 276 831 208 831 q 397 815 344 831 q 478 758 449 799 q 508 646 508 718 l 508 531 l 351 531 l 351 654 q 342 705 351 688 q 318 728 333 722 q 281 733 303 733 q 244 728 260 733 q 219 705 228 722 q 210 654 210 688 l 210 157 q 219 108 210 125 q 244 84 228 90 q 281 78 260 78 q 332 97 313 78 q 351 157 351 117 l 351 321 l 285 321 l 285 413 l 508 413 l 508 0 l 388 0 l 379 64 q 374 56 376 60 q 369 49 371 51 q 323 5 356 25 q 231 -15 290 -15 m 203 -262 q 235 -208 222 -233 q 247 -167 247 -183 q 238 -150 247 -157 q 218 -133 228 -143 q 208 -104 208 -122 q 228 -68 208 -85 q 276 -51 247 -51 q 328 -69 308 -51 q 347 -112 347 -87 q 335 -160 347 -132 q 304 -215 322 -187 q 267 -262 286 -242 l 203 -262 z "},"Ġ":{"ha":553,"x_min":49,"x_max":508,"o":"m 231 -15 q 142 0 183 -15 q 75 60 101 15 q 49 196 49 106 l 49 646 q 77 758 49 718 q 157 815 106 799 q 276 831 208 831 q 397 815 344 831 q 478 758 449 799 q 508 646 508 718 l 508 531 l 351 531 l 351 654 q 342 705 351 688 q 318 728 333 722 q 281 733 303 733 q 244 728 260 733 q 219 705 228 722 q 210 654 210 688 l 210 157 q 219 108 210 125 q 244 84 228 90 q 281 78 260 78 q 332 97 313 78 q 351 157 351 117 l 351 321 l 285 321 l 285 413 l 508 413 l 508 0 l 388 0 l 379 64 q 374 56 376 60 q 369 49 371 51 q 323 5 356 25 q 231 -15 290 -15 m 293 882 q 236 905 260 882 q 211 961 213 928 q 235 1017 211 994 q 294 1040 260 1040 q 352 1017 328 1040 q 376 961 376 994 q 353 905 378 928 q 293 882 328 882 z "},"Г":{"ha":443,"x_min":46,"x_max":425,"o":"m 46 0 l 46 821 l 425 821 l 425 707 l 214 707 l 214 0 l 46 0 z "},"ẞ":{"ha":1107,"x_min":51,"x_max":1054,"o":"m 808 -10 q 684 11 736 -10 q 606 85 632 32 q 579 233 579 138 l 579 282 q 664 282 622 282 q 747 282 706 282 l 747 219 q 756 141 747 168 q 779 103 764 114 q 815 93 794 93 q 866 116 847 93 q 885 206 885 139 q 869 283 885 257 q 818 324 853 308 q 728 364 783 340 q 648 414 679 385 q 601 488 617 443 q 586 596 586 532 q 607 726 586 676 q 678 799 628 776 q 817 822 729 822 q 987 774 928 822 q 1046 631 1046 726 l 1046 532 q 965 532 1006 532 q 885 532 925 532 l 885 582 q 870 669 885 644 q 818 694 856 694 q 766 672 781 694 q 751 600 751 650 q 769 528 751 554 q 817 490 788 503 q 879 464 847 476 q 980 416 942 440 q 1036 349 1018 392 q 1054 228 1054 307 q 1024 87 1054 139 q 938 13 993 35 q 808 -10 883 -10 m 281 -10 q 156 11 207 -10 q 78 85 104 32 q 51 233 51 138 l 51 282 q 135 282 93 282 q 219 282 178 282 l 219 219 q 228 141 219 168 q 251 103 236 114 q 286 93 265 93 q 337 116 318 93 q 356 206 356 139 q 340 283 356 257 q 290 324 324 308 q 200 364 256 340 q 119 414 151 385 q 72 488 88 443 q 57 596 57 532 q 78 726 57 676 q 151 799 100 776 q 288 822 201 822 q 459 774 400 822 q 518 631 518 726 l 518 532 q 437 532 476 532 q 357 532 397 532 l 357 582 q 342 669 357 644 q 290 694 328 694 q 238 672 253 694 q 224 600 224 650 q 242 528 224 554 q 290 490 260 503 q 351 464 319 476 q 452 416 414 440 q 508 349 490 392 q 526 228 526 307 q 496 87 526 139 q 410 13 465 35 q 281 -10 356 -10 z "},"Ѓ":{"ha":443,"x_min":46,"x_max":425,"o":"m 46 0 l 46 821 l 425 821 l 425 707 l 214 707 l 214 0 l 46 0 m 139 881 l 247 1011 l 393 1011 l 228 881 l 139 881 z "},"H":{"ha":574,"x_min":58,"x_max":515,"o":"m 58 0 l 58 821 l 219 821 l 219 485 l 354 485 l 354 821 l 515 821 l 515 0 l 354 0 l 354 365 l 219 365 l 219 0 l 58 0 z "},"Х":{"ha":508,"x_min":14,"x_max":494,"o":"m 14 0 l 135 422 l 21 821 l 182 821 l 254 547 l 325 821 l 494 821 l 378 422 l 492 0 l 331 0 l 256 274 l 185 0 l 14 0 z "},"Ъ":{"ha":572,"x_min":10,"x_max":526,"o":"m 86 0 l 86 707 l 10 707 l 10 821 l 246 821 l 246 606 l 368 606 q 449 592 413 606 q 506 542 485 578 q 526 442 526 507 l 526 215 q 514 103 526 146 q 478 38 501 60 q 421 8 454 17 q 344 0 388 0 l 86 0 m 246 83 l 310 83 q 347 96 335 83 q 364 138 360 108 q 368 221 368 167 l 368 407 q 365 461 368 439 q 349 495 361 483 q 308 507 336 507 l 246 507 l 246 83 z "},"Ħ":{"ha":574,"x_min":17,"x_max":569,"o":"m 17 657 l 17 732 l 569 732 l 569 657 l 17 657 m 58 0 l 58 821 l 219 821 l 219 485 l 354 485 l 354 821 l 515 821 l 515 0 l 354 0 l 354 365 l 219 365 l 219 0 l 58 0 z "},"I":{"ha":278,"x_min":58,"x_max":219,"o":"m 58 0 l 58 821 l 219 821 l 219 0 l 58 0 z "},"І":{"ha":278,"x_min":58,"x_max":219,"o":"m 58 0 l 58 821 l 219 821 l 219 0 l 58 0 z "},"Я":{"ha":583,"x_min":22,"x_max":525,"o":"m 525 0 l 357 0 l 357 351 l 310 351 q 287 341 296 351 q 272 313 278 331 q 260 272 265 294 l 200 0 l 22 0 l 100 283 q 134 362 114 338 q 201 393 154 386 l 201 393 q 94 444 128 400 q 60 554 60 489 l 60 682 q 101 784 60 747 q 225 821 143 821 l 525 821 l 525 0 m 357 463 l 357 733 l 278 733 q 234 715 250 733 q 218 653 218 697 l 218 554 q 236 483 218 504 q 289 463 254 463 l 357 463 z "},"Í":{"ha":278,"x_min":56,"x_max":310,"o":"m 58 0 l 58 821 l 219 821 l 219 0 l 58 0 m 57 881 l 165 1011 l 311 1011 l 146 881 l 57 881 z "},"Ǐ":{"ha":278,"x_min":-37,"x_max":315,"o":"m 58 0 l 58 821 l 219 821 l 219 0 l 58 0 m 94 876 l -36 1011 l 65 1011 l 140 946 l 217 1011 l 315 1011 l 183 876 l 94 876 z "},"Î":{"ha":278,"x_min":-39,"x_max":318,"o":"m 58 0 l 58 821 l 219 821 l 219 0 l 58 0 m -39 876 l 94 1015 l 183 1015 l 318 876 l 218 876 l 140 946 l 63 876 l -39 876 z "},"Ï":{"ha":278,"x_min":-10,"x_max":288,"o":"m 58 0 l 58 821 l 219 821 l 219 0 l 58 0 m 57 881 q 9 899 28 881 q -10 944 -10 917 q 9 988 -10 971 q 57 1006 28 1006 q 103 988 85 1006 q 121 944 121 971 q 103 899 121 917 q 57 881 85 881 m 224 881 q 176 899 196 881 q 157 944 157 917 q 176 988 157 971 q 224 1006 196 1006 q 270 988 251 1006 q 289 944 289 971 q 270 899 289 917 q 224 881 251 881 z "},"İ":{"ha":278,"x_min":58,"x_max":240,"o":"m 58 0 l 58 821 l 219 821 l 219 0 l 58 0 m 156 882 q 99 905 122 882 q 74 961 75 928 q 98 1017 74 994 q 157 1040 122 1040 q 215 1017 190 1040 q 239 961 239 994 q 215 905 240 928 q 156 882 190 882 z "},"Ị":{"ha":278,"x_min":58,"x_max":219,"o":"m 58 0 l 58 821 l 219 821 l 219 0 l 58 0 m 139 -181 q 91 -161 110 -181 q 72 -117 72 -142 q 91 -70 72 -89 q 139 -51 110 -51 q 185 -70 165 -51 q 206 -117 206 -89 q 185 -161 206 -142 q 139 -181 165 -181 z "},"Е":{"ha":464,"x_min":58,"x_max":436,"o":"m 58 0 l 58 821 l 436 821 l 436 707 l 226 707 l 226 488 l 404 488 l 404 361 l 226 361 l 226 111 l 436 111 l 436 0 l 58 0 z "},"Ѐ":{"ha":464,"x_min":58,"x_max":436,"o":"m 58 0 l 58 821 l 436 821 l 436 707 l 226 707 l 226 488 l 404 488 l 404 361 l 226 361 l 226 111 l 436 111 l 436 0 l 58 0 m 232 881 l 78 1007 l 226 1007 l 332 881 l 232 881 z "},"Ì":{"ha":278,"x_min":-35,"x_max":219,"o":"m 58 0 l 58 821 l 219 821 l 219 0 l 58 0 m 119 881 l -35 1007 l 114 1007 l 219 881 l 119 881 z "},"Ỉ":{"ha":278,"x_min":31,"x_max":243,"o":"m 58 0 l 58 821 l 219 821 l 219 0 l 58 0 m 93 872 l 93 889 q 108 920 93 910 q 138 940 122 931 q 153 965 153 949 l 153 974 q 147 994 153 985 q 126 1004 142 1004 q 101 975 104 1004 l 31 986 q 60 1043 35 1024 q 133 1063 85 1063 q 215 1047 188 1063 q 243 976 243 1031 l 243 971 q 226 928 243 940 q 194 910 210 917 q 178 886 178 903 l 178 872 l 93 872 z "},"И":{"ha":544,"x_min":46,"x_max":499,"o":"m 46 0 l 46 821 l 188 821 l 188 322 l 358 821 l 499 821 l 499 0 l 357 0 l 357 465 l 188 0 l 46 0 z "},"Ѝ":{"ha":544,"x_min":46,"x_max":499,"o":"m 46 0 l 46 821 l 188 821 l 188 322 l 358 821 l 499 821 l 499 0 l 357 0 l 357 465 l 188 0 l 46 0 m 253 881 l 99 1007 l 247 1007 l 353 881 l 253 881 z "},"Й":{"ha":544,"x_min":46,"x_max":499,"o":"m 46 0 l 46 821 l 188 821 l 188 322 l 358 821 l 499 821 l 499 0 l 357 0 l 357 465 l 188 0 l 46 0 m 269 875 q 172 899 206 875 q 127 955 139 922 q 114 1014 115 988 l 200 1014 q 224 967 203 982 q 271 951 244 951 q 320 966 300 951 q 343 1014 340 981 l 429 1014 q 413 947 429 978 q 362 895 396 915 q 269 875 328 875 z "},"Ī":{"ha":278,"x_min":-4,"x_max":282,"o":"m 58 0 l 58 821 l 219 821 l 219 0 l 58 0 m -4 897 l -4 978 l 282 978 l 282 897 l -4 897 z "},"Ё":{"ha":464,"x_min":58,"x_max":436,"o":"m 58 0 l 58 821 l 436 821 l 436 707 l 226 707 l 226 488 l 404 488 l 404 361 l 226 361 l 226 111 l 436 111 l 436 0 l 58 0 m 168 881 q 120 899 139 881 q 101 944 101 917 q 120 988 101 971 q 168 1006 139 1006 q 214 988 196 1006 q 232 944 232 971 q 214 899 232 917 q 168 881 196 881 m 335 881 q 288 899 307 881 q 268 944 268 917 q 288 988 268 971 q 335 1006 307 1006 q 381 988 363 1006 q 400 944 400 971 q 381 899 400 917 q 335 881 363 881 z "},"Į":{"ha":278,"x_min":44,"x_max":247,"o":"m 58 0 l 58 821 l 219 821 l 219 0 l 58 0 m 158 -200 q 76 -173 108 -200 q 44 -111 44 -146 q 76 -39 44 -72 q 154 1 107 -6 l 219 0 q 165 -39 182 -12 q 147 -89 147 -65 q 165 -129 147 -115 q 199 -143 182 -143 q 217 -140 210 -143 q 229 -137 225 -137 l 247 -179 q 220 -192 240 -183 q 158 -200 200 -200 z "},"Ĩ":{"ha":278,"x_min":-26,"x_max":294,"o":"m 58 0 l 58 821 l 219 821 l 219 0 l 58 0 m 199 885 q 160 892 178 885 q 122 911 142 900 q 93 928 108 921 q 61 935 78 935 q 33 922 43 935 q 21 886 22 908 l -26 886 q -1 974 -25 940 q 63 1008 24 1008 q 104 1001 85 1008 q 140 982 124 993 q 170 967 156 974 q 200 960 185 960 q 230 972 219 960 q 243 1004 240 985 l 294 1004 q 280 938 294 965 q 243 898 265 911 q 199 885 221 885 z "},"Ю":{"ha":828,"x_min":46,"x_max":782,"o":"m 554 -17 q 433 -1 486 -17 q 351 66 381 15 q 321 218 321 117 l 321 365 l 207 365 l 207 0 l 46 0 l 46 821 l 207 821 l 207 485 l 321 485 l 321 647 q 351 760 321 719 q 433 817 381 801 q 554 833 486 833 q 676 817 625 833 q 754 760 726 800 q 782 647 782 719 l 782 218 q 754 66 782 117 q 675 -1 726 15 q 554 -17 624 -17 m 554 78 q 588 84 574 78 q 612 107 603 90 q 621 156 621 124 l 621 656 q 612 706 621 689 q 588 728 603 722 q 554 733 574 733 q 521 728 536 733 q 497 706 506 722 q 489 656 489 689 l 489 156 q 497 107 489 124 q 521 84 506 90 q 554 78 536 78 z "},"J":{"ha":339,"x_min":8,"x_max":283,"o":"m 75 -1 q 42 -1 64 -1 q 8 0 21 -1 l 8 111 l 51 111 q 108 125 93 110 q 122 183 122 140 l 122 821 l 283 821 l 283 203 q 263 78 283 124 q 198 16 243 33 q 75 -1 153 -1 z "},"Ј":{"ha":339,"x_min":8,"x_max":283,"o":"m 75 -1 q 42 -1 64 -1 q 8 0 21 -1 l 8 111 l 51 111 q 108 125 93 110 q 122 183 122 140 l 122 821 l 283 821 l 283 203 q 263 78 283 124 q 198 16 243 33 q 75 -1 153 -1 z "},"K":{"ha":569,"x_min":58,"x_max":558,"o":"m 383 0 l 226 426 l 381 821 l 553 821 l 385 426 l 558 0 l 383 0 m 58 0 l 58 821 l 219 821 l 219 0 l 58 0 z "},"К":{"ha":594,"x_min":46,"x_max":576,"o":"m 46 0 l 46 821 l 207 821 l 207 464 l 258 464 l 399 821 l 572 821 l 406 426 l 576 0 l 401 0 l 265 357 l 207 357 l 207 0 l 46 0 z "},"Ķ":{"ha":569,"x_min":58,"x_max":558,"o":"m 383 0 l 226 426 l 381 821 l 553 821 l 385 426 l 558 0 l 383 0 m 58 0 l 58 821 l 219 821 l 219 0 l 58 0 m 219 -262 q 251 -208 239 -233 q 264 -167 264 -183 q 254 -150 264 -157 q 235 -133 244 -143 q 225 -104 225 -122 q 244 -68 225 -85 q 293 -51 264 -51 q 344 -69 325 -51 q 364 -112 364 -87 q 351 -160 364 -132 q 321 -215 339 -187 q 283 -262 303 -242 l 219 -262 z "},"Ќ":{"ha":594,"x_min":46,"x_max":576,"o":"m 46 0 l 46 821 l 207 821 l 207 464 l 258 464 l 399 821 l 572 821 l 406 426 l 576 0 l 401 0 l 265 357 l 207 357 l 207 0 l 46 0 m 214 881 l 322 1011 l 468 1011 l 303 881 l 214 881 z "},"L":{"ha":415,"x_min":58,"x_max":404,"o":"m 58 0 l 58 821 l 218 821 l 218 111 l 404 111 l 404 0 l 58 0 z "},"Ĺ":{"ha":415,"x_min":58,"x_max":404,"o":"m 58 0 l 58 821 l 218 821 l 218 111 l 404 111 l 404 0 l 58 0 m 100 881 l 208 1011 l 354 1011 l 189 881 l 100 881 z "},"Ľ":{"ha":442,"x_min":58,"x_max":433,"o":"m 58 0 l 58 821 l 218 821 l 218 111 l 404 111 l 404 0 l 58 0 m 304 642 l 338 844 l 433 844 l 361 642 l 304 642 z "},"Ļ":{"ha":415,"x_min":58,"x_max":404,"o":"m 58 0 l 58 821 l 218 821 l 218 111 l 404 111 l 404 0 l 58 0 m 153 -262 q 185 -208 172 -233 q 197 -167 197 -183 q 188 -150 197 -157 q 168 -133 178 -143 q 158 -104 158 -122 q 178 -68 158 -85 q 226 -51 197 -51 q 278 -69 258 -51 q 297 -112 297 -87 q 285 -160 297 -132 q 254 -215 272 -187 q 217 -262 236 -242 l 153 -262 z "},"Љ":{"ha":899,"x_min":14,"x_max":853,"o":"m 14 0 l 14 83 q 62 114 39 83 q 88 189 85 144 l 132 821 l 575 821 l 575 0 l 414 0 l 414 707 l 290 707 l 249 147 q 243 97 246 122 q 228 49 240 71 q 190 15 217 28 q 117 0 164 1 l 14 0 m 575 83 l 640 83 q 678 96 665 83 q 694 138 690 108 q 699 221 699 167 l 699 407 q 695 461 699 439 q 679 495 692 483 q 638 507 667 507 l 575 507 l 575 83 m 414 0 l 414 819 l 572 819 l 572 606 l 694 606 q 775 592 739 606 q 832 542 811 578 q 853 442 853 507 l 853 215 q 840 103 853 146 q 804 38 828 60 q 747 8 781 17 q 671 0 714 0 l 414 0 z "},"Ł":{"ha":499,"x_min":36,"x_max":458,"o":"m 114 0 l 114 225 l 36 190 l 36 261 l 114 296 l 114 815 l 272 815 l 272 367 l 379 415 l 379 346 l 272 297 l 272 111 l 458 111 l 458 0 l 114 0 z "},"M":{"ha":744,"x_min":58,"x_max":686,"o":"m 58 0 l 58 821 l 260 821 l 372 290 l 486 821 l 686 821 l 686 0 l 544 0 l 544 614 l 426 0 l 317 0 l 200 614 l 200 0 l 58 0 z "},"N":{"ha":568,"x_min":58,"x_max":511,"o":"m 58 0 l 58 821 l 199 821 l 369 324 l 369 821 l 511 821 l 511 0 l 371 0 l 200 464 l 200 0 l 58 0 z "},"Ń":{"ha":568,"x_min":58,"x_max":511,"o":"m 58 0 l 58 821 l 199 821 l 369 324 l 369 821 l 511 821 l 511 0 l 371 0 l 200 464 l 200 0 l 58 0 m 207 881 l 315 1011 l 461 1011 l 296 881 l 207 881 z "},"Ň":{"ha":568,"x_min":58,"x_max":511,"o":"m 58 0 l 58 821 l 199 821 l 369 324 l 369 821 l 511 821 l 511 0 l 371 0 l 200 464 l 200 0 l 58 0 m 244 876 l 114 1011 l 215 1011 l 290 946 l 367 1011 l 465 1011 l 333 876 l 244 876 z "},"Ņ":{"ha":568,"x_min":58,"x_max":511,"o":"m 58 0 l 58 821 l 199 821 l 369 324 l 369 821 l 511 821 l 511 0 l 371 0 l 200 464 l 200 0 l 58 0 m 208 -262 q 240 -208 228 -233 q 253 -167 253 -183 q 243 -150 253 -157 q 224 -133 233 -143 q 214 -104 214 -122 q 233 -68 214 -85 q 282 -51 253 -51 q 333 -69 314 -51 q 353 -112 353 -87 q 340 -160 353 -132 q 310 -215 328 -187 q 272 -262 292 -242 l 208 -262 z "},"Њ":{"ha":836,"x_min":46,"x_max":785,"o":"m 46 0 l 46 821 l 207 821 l 207 485 l 342 485 l 342 821 l 504 821 l 504 606 l 625 606 q 707 592 671 606 q 764 542 743 578 q 785 442 785 507 l 785 215 q 772 103 785 146 q 736 38 760 60 q 679 8 713 17 q 603 0 646 0 l 342 0 l 342 364 l 207 364 l 207 0 l 46 0 m 504 85 l 568 85 q 606 97 593 85 q 622 138 618 108 q 626 217 626 167 l 626 378 q 623 455 626 426 q 607 495 619 483 q 565 507 594 507 l 504 507 l 504 85 z "},"Ñ":{"ha":568,"x_min":58,"x_max":511,"o":"m 58 0 l 58 821 l 199 821 l 369 324 l 369 821 l 511 821 l 511 0 l 371 0 l 200 464 l 200 0 l 58 0 m 349 885 q 310 892 328 885 q 272 911 292 900 q 243 928 258 921 q 211 935 228 935 q 183 922 193 935 q 171 886 172 908 l 124 886 q 149 974 125 940 q 213 1008 174 1008 q 254 1001 235 1008 q 290 982 274 993 q 320 967 306 974 q 350 960 335 960 q 380 972 369 960 q 393 1004 390 985 l 444 1004 q 430 938 444 965 q 393 898 415 911 q 349 885 371 885 z "},"O":{"ha":557,"x_min":49,"x_max":508,"o":"m 276 -17 q 157 -1 208 -17 q 77 66 106 15 q 49 217 49 117 l 49 647 q 77 761 49 721 q 158 817 106 801 q 278 833 210 833 q 397 817 344 833 q 478 760 449 800 q 508 647 508 719 l 508 218 q 478 66 508 117 q 397 -1 449 15 q 276 -17 344 -17 m 276 78 q 313 85 297 78 q 338 109 329 92 q 347 157 347 126 l 347 654 q 338 702 347 685 q 313 726 329 719 q 276 733 297 733 q 240 726 256 733 q 216 702 225 719 q 207 654 207 685 l 207 157 q 216 109 207 126 q 240 85 225 92 q 276 78 256 78 z "},"О":{"ha":557,"x_min":49,"x_max":508,"o":"m 276 -17 q 157 -1 208 -17 q 77 66 106 15 q 49 217 49 117 l 49 647 q 77 761 49 721 q 158 817 106 801 q 278 833 210 833 q 397 817 344 833 q 478 760 449 800 q 508 647 508 719 l 508 218 q 478 66 508 117 q 397 -1 449 15 q 276 -17 344 -17 m 276 78 q 313 85 297 78 q 338 109 329 92 q 347 157 347 126 l 347 654 q 338 702 347 685 q 313 726 329 719 q 276 733 297 733 q 240 726 256 733 q 216 702 225 719 q 207 654 207 685 l 207 157 q 216 109 207 126 q 240 85 225 92 q 276 78 256 78 z "},"Œ":{"ha":774,"x_min":49,"x_max":746,"o":"m 276 -17 q 158 -1 210 -17 q 77 66 106 15 q 49 217 49 117 l 49 647 q 78 761 49 721 q 158 817 107 801 q 278 833 210 833 q 388 817 340 833 q 463 760 435 800 q 490 647 490 719 l 490 218 q 463 66 490 117 q 387 -1 435 15 q 276 -17 339 -17 m 278 78 q 313 85 297 78 q 338 109 329 92 q 347 157 347 126 l 347 654 q 338 702 347 685 q 313 726 329 719 q 278 733 297 733 q 241 726 257 733 q 216 702 225 719 q 207 654 207 685 l 207 157 q 216 109 207 126 q 241 85 225 92 q 278 78 257 78 m 349 0 l 349 821 l 746 821 l 746 707 l 508 707 l 508 488 l 714 488 l 714 361 l 508 361 l 508 111 l 746 111 l 746 0 l 349 0 z "},"Ó":{"ha":557,"x_min":49,"x_max":508,"o":"m 276 -17 q 157 -1 208 -17 q 77 66 106 15 q 49 217 49 117 l 49 647 q 77 761 49 721 q 158 817 106 801 q 278 833 210 833 q 397 817 344 833 q 478 760 449 800 q 508 647 508 719 l 508 218 q 478 66 508 117 q 397 -1 449 15 q 276 -17 344 -17 m 276 78 q 313 85 297 78 q 338 109 329 92 q 347 157 347 126 l 347 654 q 338 702 347 685 q 313 726 329 719 q 276 733 297 733 q 240 726 256 733 q 216 702 225 719 q 207 654 207 685 l 207 157 q 216 109 207 126 q 240 85 225 92 q 276 78 256 78 m 196 881 l 304 1011 l 450 1011 l 285 881 l 196 881 z "},"Ǒ":{"ha":557,"x_min":49,"x_max":508,"o":"m 276 -17 q 157 -1 208 -17 q 77 66 106 15 q 49 217 49 117 l 49 647 q 77 761 49 721 q 158 817 106 801 q 278 833 210 833 q 397 817 344 833 q 478 760 449 800 q 508 647 508 719 l 508 218 q 478 66 508 117 q 397 -1 449 15 q 276 -17 344 -17 m 276 78 q 313 85 297 78 q 338 109 329 92 q 347 157 347 126 l 347 654 q 338 702 347 685 q 313 726 329 719 q 276 733 297 733 q 240 726 256 733 q 216 702 225 719 q 207 654 207 685 l 207 157 q 216 109 207 126 q 240 85 225 92 q 276 78 256 78 m 233 876 l 103 1011 l 204 1011 l 279 946 l 356 1011 l 454 1011 l 322 876 l 233 876 z "},"Ô":{"ha":557,"x_min":49,"x_max":508,"o":"m 276 -17 q 157 -1 208 -17 q 77 66 106 15 q 49 217 49 117 l 49 647 q 77 761 49 721 q 158 817 106 801 q 278 833 210 833 q 397 817 344 833 q 478 760 449 800 q 508 647 508 719 l 508 218 q 478 66 508 117 q 397 -1 449 15 q 276 -17 344 -17 m 276 78 q 313 85 297 78 q 338 109 329 92 q 347 157 347 126 l 347 654 q 338 702 347 685 q 313 726 329 719 q 276 733 297 733 q 240 726 256 733 q 216 702 225 719 q 207 654 207 685 l 207 157 q 216 109 207 126 q 240 85 225 92 q 276 78 256 78 m 101 876 l 235 1015 l 324 1015 l 458 876 l 358 876 l 281 946 l 203 876 l 101 876 z "},"Ố":{"ha":557,"x_min":49,"x_max":621,"o":"m 276 -17 q 157 -1 208 -17 q 77 66 106 15 q 49 217 49 117 l 49 647 q 77 761 49 721 q 158 817 106 801 q 278 833 210 833 q 397 817 344 833 q 478 760 449 800 q 508 647 508 719 l 508 218 q 478 66 508 117 q 397 -1 449 15 q 276 -17 344 -17 m 276 78 q 313 85 297 78 q 338 109 329 92 q 347 157 347 126 l 347 654 q 338 702 347 685 q 313 726 329 719 q 276 733 297 733 q 240 726 256 733 q 216 702 225 719 q 207 654 207 685 l 207 157 q 216 109 207 126 q 240 85 225 92 q 276 78 256 78 m 140 869 l 238 983 l 321 983 l 418 869 l 328 869 l 281 918 l 233 869 l 140 869 m 417 946 l 474 1050 l 621 1050 l 517 946 l 417 946 z "},"Ộ":{"ha":557,"x_min":49,"x_max":508,"o":"m 276 -17 q 157 -1 208 -17 q 77 66 106 15 q 49 217 49 117 l 49 647 q 77 761 49 721 q 158 817 106 801 q 278 833 210 833 q 397 817 344 833 q 478 760 449 800 q 508 647 508 719 l 508 218 q 478 66 508 117 q 397 -1 449 15 q 276 -17 344 -17 m 276 78 q 313 85 297 78 q 338 109 329 92 q 347 157 347 126 l 347 654 q 338 702 347 685 q 313 726 329 719 q 276 733 297 733 q 240 726 256 733 q 216 702 225 719 q 207 654 207 685 l 207 157 q 216 109 207 126 q 240 85 225 92 q 276 78 256 78 m 279 -181 q 231 -161 250 -181 q 213 -117 213 -142 q 231 -70 213 -89 q 279 -51 250 -51 q 326 -70 306 -51 q 346 -117 346 -89 q 326 -161 346 -142 q 279 -181 306 -181 m 101 876 l 235 1015 l 324 1015 l 458 876 l 358 876 l 281 946 l 203 876 l 101 876 z "},"Ồ":{"ha":557,"x_min":49,"x_max":542,"o":"m 276 -17 q 157 -1 208 -17 q 77 66 106 15 q 49 217 49 117 l 49 647 q 77 761 49 721 q 158 817 106 801 q 278 833 210 833 q 397 817 344 833 q 478 760 449 800 q 508 647 508 719 l 508 218 q 478 66 508 117 q 397 -1 449 15 q 276 -17 344 -17 m 276 78 q 313 85 297 78 q 338 109 329 92 q 347 157 347 126 l 347 654 q 338 702 347 685 q 313 726 329 719 q 276 733 297 733 q 240 726 256 733 q 216 702 225 719 q 207 654 207 685 l 207 157 q 216 109 207 126 q 240 85 225 92 q 276 78 256 78 m 140 869 l 238 983 l 321 983 l 418 869 l 328 869 l 281 918 l 233 869 l 140 869 m 443 944 l 339 1049 l 486 1049 l 543 944 l 443 944 z "},"Ổ":{"ha":557,"x_min":49,"x_max":549,"o":"m 276 -17 q 157 -1 208 -17 q 77 66 106 15 q 49 217 49 117 l 49 647 q 77 761 49 721 q 158 817 106 801 q 278 833 210 833 q 397 817 344 833 q 478 760 449 800 q 508 647 508 719 l 508 218 q 478 66 508 117 q 397 -1 449 15 q 276 -17 344 -17 m 276 78 q 313 85 297 78 q 338 109 329 92 q 347 157 347 126 l 347 654 q 338 702 347 685 q 313 726 329 719 q 276 733 297 733 q 240 726 256 733 q 216 702 225 719 q 207 654 207 685 l 207 157 q 216 109 207 126 q 240 85 225 92 q 276 78 256 78 m 140 869 l 238 983 l 321 983 l 418 869 l 328 869 l 281 918 l 233 869 l 140 869 m 422 939 l 422 947 q 433 970 422 963 q 456 984 444 978 q 467 1000 467 990 l 467 1007 q 463 1022 467 1018 q 451 1026 458 1026 q 436 1007 439 1026 l 374 1017 q 395 1063 375 1047 q 458 1079 415 1079 q 528 1067 508 1079 q 549 1011 549 1054 l 549 1007 q 538 976 549 985 q 515 963 526 968 q 504 947 504 958 l 504 939 l 422 939 z "},"Ỗ":{"ha":557,"x_min":49,"x_max":508,"o":"m 276 -17 q 157 -1 208 -17 q 77 66 106 15 q 49 217 49 117 l 49 647 q 77 761 49 721 q 158 817 106 801 q 278 833 210 833 q 397 817 344 833 q 478 760 449 800 q 508 647 508 719 l 508 218 q 478 66 508 117 q 397 -1 449 15 q 276 -17 344 -17 m 276 78 q 313 85 297 78 q 338 109 329 92 q 347 157 347 126 l 347 654 q 338 702 347 685 q 313 726 329 719 q 276 733 297 733 q 240 726 256 733 q 216 702 225 719 q 207 654 207 685 l 207 157 q 216 109 207 126 q 240 85 225 92 q 276 78 256 78 m 140 869 l 238 983 l 321 983 l 418 869 l 328 869 l 281 918 l 233 869 l 140 869 m 329 1008 q 298 1015 313 1008 q 269 1028 283 1021 q 245 1039 257 1035 q 222 1043 233 1043 q 203 1033 211 1043 q 196 1010 196 1024 l 154 1010 q 174 1085 154 1057 q 225 1113 193 1113 q 256 1108 240 1113 q 285 1096 271 1104 q 307 1085 296 1090 q 329 1081 318 1081 q 352 1090 346 1081 q 360 1110 358 1099 l 407 1110 q 394 1053 407 1076 q 363 1019 381 1031 q 329 1008 346 1008 z "},"Ö":{"ha":557,"x_min":49,"x_max":508,"o":"m 276 -17 q 157 -1 208 -17 q 77 66 106 15 q 49 217 49 117 l 49 647 q 77 761 49 721 q 158 817 106 801 q 278 833 210 833 q 397 817 344 833 q 478 760 449 800 q 508 647 508 719 l 508 218 q 478 66 508 117 q 397 -1 449 15 q 276 -17 344 -17 m 276 78 q 313 85 297 78 q 338 109 329 92 q 347 157 347 126 l 347 654 q 338 702 347 685 q 313 726 329 719 q 276 733 297 733 q 240 726 256 733 q 216 702 225 719 q 207 654 207 685 l 207 157 q 216 109 207 126 q 240 85 225 92 q 276 78 256 78 m 196 881 q 148 899 167 881 q 129 944 129 917 q 148 988 129 971 q 196 1006 167 1006 q 242 988 224 1006 q 260 944 260 971 q 242 899 260 917 q 196 881 224 881 m 363 881 q 315 899 335 881 q 296 944 296 917 q 315 988 296 971 q 363 1006 335 1006 q 409 988 390 1006 q 428 944 428 971 q 409 899 428 917 q 363 881 390 881 z "},"Ọ":{"ha":557,"x_min":49,"x_max":508,"o":"m 276 -17 q 157 -1 208 -17 q 77 66 106 15 q 49 217 49 117 l 49 647 q 77 761 49 721 q 158 817 106 801 q 278 833 210 833 q 397 817 344 833 q 478 760 449 800 q 508 647 508 719 l 508 218 q 478 66 508 117 q 397 -1 449 15 q 276 -17 344 -17 m 276 78 q 313 85 297 78 q 338 109 329 92 q 347 157 347 126 l 347 654 q 338 702 347 685 q 313 726 329 719 q 276 733 297 733 q 240 726 256 733 q 216 702 225 719 q 207 654 207 685 l 207 157 q 216 109 207 126 q 240 85 225 92 q 276 78 256 78 m 279 -181 q 231 -161 250 -181 q 213 -117 213 -142 q 231 -70 213 -89 q 279 -51 250 -51 q 326 -70 306 -51 q 346 -117 346 -89 q 326 -161 346 -142 q 279 -181 306 -181 z "},"Ò":{"ha":557,"x_min":49,"x_max":508,"o":"m 276 -17 q 157 -1 208 -17 q 77 66 106 15 q 49 217 49 117 l 49 647 q 77 761 49 721 q 158 817 106 801 q 278 833 210 833 q 397 817 344 833 q 478 760 449 800 q 508 647 508 719 l 508 218 q 478 66 508 117 q 397 -1 449 15 q 276 -17 344 -17 m 276 78 q 313 85 297 78 q 338 109 329 92 q 347 157 347 126 l 347 654 q 338 702 347 685 q 313 726 329 719 q 276 733 297 733 q 240 726 256 733 q 216 702 225 719 q 207 654 207 685 l 207 157 q 216 109 207 126 q 240 85 225 92 q 276 78 256 78 m 260 881 l 106 1007 l 254 1007 l 360 881 l 260 881 z "},"Ỏ":{"ha":557,"x_min":49,"x_max":508,"o":"m 276 -17 q 157 -1 208 -17 q 77 66 106 15 q 49 217 49 117 l 49 647 q 77 761 49 721 q 158 817 106 801 q 278 833 210 833 q 397 817 344 833 q 478 760 449 800 q 508 647 508 719 l 508 218 q 478 66 508 117 q 397 -1 449 15 q 276 -17 344 -17 m 276 78 q 313 85 297 78 q 338 109 329 92 q 347 157 347 126 l 347 654 q 338 702 347 685 q 313 726 329 719 q 276 733 297 733 q 240 726 256 733 q 216 702 225 719 q 207 654 207 685 l 207 157 q 216 109 207 126 q 240 85 225 92 q 276 78 256 78 m 233 872 l 233 889 q 248 920 233 910 q 278 940 263 931 q 293 965 293 949 l 293 974 q 288 994 293 985 q 267 1004 282 1004 q 242 975 244 1004 l 171 986 q 200 1043 175 1024 q 274 1063 225 1063 q 356 1047 328 1063 q 383 976 383 1031 l 383 971 q 367 928 383 940 q 334 910 350 917 q 318 886 318 903 l 318 872 l 233 872 z "},"Ơ":{"ha":557,"x_min":49,"x_max":533,"o":"m 276 -17 q 157 -1 208 -17 q 77 66 106 15 q 49 217 49 117 l 49 647 q 77 761 49 721 q 158 817 106 801 q 278 833 210 833 q 397 817 344 833 q 478 760 449 800 q 508 647 508 719 l 508 218 q 478 66 508 117 q 397 -1 449 15 q 276 -17 344 -17 m 276 78 q 313 85 297 78 q 338 109 329 92 q 347 157 347 126 l 347 654 q 338 702 347 685 q 313 726 329 719 q 276 733 297 733 q 240 726 256 733 q 216 702 225 719 q 207 654 207 685 l 207 157 q 216 109 207 126 q 240 85 225 92 q 276 78 256 78 m 344 751 l 343 821 l 367 821 q 429 886 429 821 l 429 911 l 533 911 l 533 888 q 486 783 533 814 q 344 751 439 751 z "},"Ớ":{"ha":557,"x_min":49,"x_max":533,"o":"m 276 -17 q 157 -1 208 -17 q 77 66 106 15 q 49 217 49 117 l 49 647 q 77 761 49 721 q 158 817 106 801 q 278 833 210 833 q 397 817 344 833 q 478 760 449 800 q 508 647 508 719 l 508 218 q 478 66 508 117 q 397 -1 449 15 q 276 -17 344 -17 m 276 78 q 313 85 297 78 q 338 109 329 92 q 347 157 347 126 l 347 654 q 338 702 347 685 q 313 726 329 719 q 276 733 297 733 q 240 726 256 733 q 216 702 225 719 q 207 654 207 685 l 207 157 q 216 109 207 126 q 240 85 225 92 q 276 78 256 78 m 344 751 l 343 821 l 367 821 q 429 886 429 821 l 429 911 l 533 911 l 533 888 q 486 783 533 814 q 344 751 439 751 m 196 881 l 304 1011 l 450 1011 l 285 881 l 196 881 z "},"Ợ":{"ha":557,"x_min":49,"x_max":533,"o":"m 276 -17 q 157 -1 208 -17 q 77 66 106 15 q 49 217 49 117 l 49 647 q 77 761 49 721 q 158 817 106 801 q 278 833 210 833 q 397 817 344 833 q 478 760 449 800 q 508 647 508 719 l 508 218 q 478 66 508 117 q 397 -1 449 15 q 276 -17 344 -17 m 276 78 q 313 85 297 78 q 338 109 329 92 q 347 157 347 126 l 347 654 q 338 702 347 685 q 313 726 329 719 q 276 733 297 733 q 240 726 256 733 q 216 702 225 719 q 207 654 207 685 l 207 157 q 216 109 207 126 q 240 85 225 92 q 276 78 256 78 m 344 751 l 343 821 l 367 821 q 429 886 429 821 l 429 911 l 533 911 l 533 888 q 486 783 533 814 q 344 751 439 751 m 279 -181 q 231 -161 250 -181 q 213 -117 213 -142 q 231 -70 213 -89 q 279 -51 250 -51 q 326 -70 306 -51 q 346 -117 346 -89 q 326 -161 346 -142 q 279 -181 306 -181 z "},"Ờ":{"ha":557,"x_min":49,"x_max":533,"o":"m 276 -17 q 157 -1 208 -17 q 77 66 106 15 q 49 217 49 117 l 49 647 q 77 761 49 721 q 158 817 106 801 q 278 833 210 833 q 397 817 344 833 q 478 760 449 800 q 508 647 508 719 l 508 218 q 478 66 508 117 q 397 -1 449 15 q 276 -17 344 -17 m 276 78 q 313 85 297 78 q 338 109 329 92 q 347 157 347 126 l 347 654 q 338 702 347 685 q 313 726 329 719 q 276 733 297 733 q 240 726 256 733 q 216 702 225 719 q 207 654 207 685 l 207 157 q 216 109 207 126 q 240 85 225 92 q 276 78 256 78 m 344 751 l 343 821 l 367 821 q 429 886 429 821 l 429 911 l 533 911 l 533 888 q 486 783 533 814 q 344 751 439 751 m 260 881 l 106 1007 l 254 1007 l 360 881 l 260 881 z "},"Ở":{"ha":557,"x_min":49,"x_max":533,"o":"m 276 -17 q 157 -1 208 -17 q 77 66 106 15 q 49 217 49 117 l 49 647 q 77 761 49 721 q 158 817 106 801 q 278 833 210 833 q 397 817 344 833 q 478 760 449 800 q 508 647 508 719 l 508 218 q 478 66 508 117 q 397 -1 449 15 q 276 -17 344 -17 m 276 78 q 313 85 297 78 q 338 109 329 92 q 347 157 347 126 l 347 654 q 338 702 347 685 q 313 726 329 719 q 276 733 297 733 q 240 726 256 733 q 216 702 225 719 q 207 654 207 685 l 207 157 q 216 109 207 126 q 240 85 225 92 q 276 78 256 78 m 344 751 l 343 821 l 367 821 q 429 886 429 821 l 429 911 l 533 911 l 533 888 q 486 783 533 814 q 344 751 439 751 m 233 872 l 233 889 q 248 920 233 910 q 278 940 263 931 q 293 965 293 949 l 293 974 q 288 994 293 985 q 267 1004 282 1004 q 242 975 244 1004 l 171 986 q 200 1043 175 1024 q 274 1063 225 1063 q 356 1047 328 1063 q 383 976 383 1031 l 383 971 q 367 928 383 940 q 334 910 350 917 q 318 886 318 903 l 318 872 l 233 872 z "},"Ỡ":{"ha":557,"x_min":49,"x_max":533,"o":"m 276 -17 q 157 -1 208 -17 q 77 66 106 15 q 49 217 49 117 l 49 647 q 77 761 49 721 q 158 817 106 801 q 278 833 210 833 q 397 817 344 833 q 478 760 449 800 q 508 647 508 719 l 508 218 q 478 66 508 117 q 397 -1 449 15 q 276 -17 344 -17 m 276 78 q 313 85 297 78 q 338 109 329 92 q 347 157 347 126 l 347 654 q 338 702 347 685 q 313 726 329 719 q 276 733 297 733 q 240 726 256 733 q 216 702 225 719 q 207 654 207 685 l 207 157 q 216 109 207 126 q 240 85 225 92 q 276 78 256 78 m 344 751 l 343 821 l 367 821 q 429 886 429 821 l 429 911 l 533 911 l 533 888 q 486 783 533 814 q 344 751 439 751 m 339 885 q 300 892 318 885 q 263 911 282 900 q 233 928 249 921 q 201 935 218 935 q 173 922 183 935 q 161 886 163 908 l 114 886 q 140 974 115 940 q 203 1008 164 1008 q 244 1001 225 1008 q 281 982 264 993 q 310 967 296 974 q 340 960 325 960 q 370 972 360 960 q 383 1004 381 985 l 435 1004 q 420 938 435 965 q 383 898 406 911 q 339 885 361 885 z "},"Ő":{"ha":557,"x_min":49,"x_max":508,"o":"m 276 -17 q 157 -1 208 -17 q 77 66 106 15 q 49 217 49 117 l 49 647 q 77 761 49 721 q 158 817 106 801 q 278 833 210 833 q 397 817 344 833 q 478 760 449 800 q 508 647 508 719 l 508 218 q 478 66 508 117 q 397 -1 449 15 q 276 -17 344 -17 m 276 78 q 313 85 297 78 q 338 109 329 92 q 347 157 347 126 l 347 654 q 338 702 347 685 q 313 726 329 719 q 276 733 297 733 q 240 726 256 733 q 216 702 225 719 q 207 654 207 685 l 207 157 q 216 109 207 126 q 240 85 225 92 q 276 78 256 78 m 167 875 l 190 1014 l 314 1014 l 229 875 l 167 875 m 297 875 l 340 1014 l 463 1014 l 369 875 l 297 875 z "},"Ō":{"ha":557,"x_min":49,"x_max":508,"o":"m 276 -17 q 157 -1 208 -17 q 77 66 106 15 q 49 217 49 117 l 49 647 q 77 761 49 721 q 158 817 106 801 q 278 833 210 833 q 397 817 344 833 q 478 760 449 800 q 508 647 508 719 l 508 218 q 478 66 508 117 q 397 -1 449 15 q 276 -17 344 -17 m 276 78 q 313 85 297 78 q 338 109 329 92 q 347 157 347 126 l 347 654 q 338 702 347 685 q 313 726 329 719 q 276 733 297 733 q 240 726 256 733 q 216 702 225 719 q 207 654 207 685 l 207 157 q 216 109 207 126 q 240 85 225 92 q 276 78 256 78 m 136 897 l 136 978 l 422 978 l 422 897 l 136 897 z "},"Ω":{"ha":833,"x_min":56,"x_max":819,"o":"m 56 0 l 56 118 l 271 113 l 242 131 q 158 214 193 168 q 103 315 122 260 q 85 438 85 371 q 103 574 85 511 q 164 684 122 636 q 274 758 206 732 q 440 785 342 785 q 607 757 540 785 q 714 683 674 729 q 772 575 754 636 q 790 447 790 514 q 771 319 790 376 q 716 215 751 261 q 632 131 681 169 l 603 113 l 819 118 l 819 0 l 486 0 l 486 93 q 559 165 529 129 q 606 240 589 201 q 631 322 624 279 q 639 411 639 364 q 619 549 639 488 q 556 647 600 611 q 439 683 511 683 q 322 647 367 683 q 257 549 278 611 q 236 406 236 486 q 244 322 236 364 q 269 240 251 281 q 316 163 286 200 q 390 93 346 126 l 390 0 l 56 0 z "},"Ø":{"ha":578,"x_min":36,"x_max":535,"o":"m 36 -21 l 460 821 l 535 821 l 110 -21 l 36 -21 m 290 -17 q 169 -1 221 -17 q 87 66 117 15 q 57 217 57 117 l 57 647 q 87 761 57 721 q 169 817 117 801 q 290 833 222 833 q 410 817 360 833 q 489 760 461 800 q 517 647 517 719 l 517 218 q 489 66 517 117 q 410 -1 461 15 q 290 -17 360 -17 m 290 78 q 324 84 310 78 q 347 108 339 90 q 356 157 356 125 l 356 654 q 347 705 356 688 q 324 728 339 722 q 290 733 310 733 q 256 728 271 733 q 233 705 242 722 q 225 654 225 688 l 225 157 q 233 108 225 125 q 256 84 242 90 q 290 78 271 78 z "},"Õ":{"ha":557,"x_min":49,"x_max":508,"o":"m 276 -17 q 157 -1 208 -17 q 77 66 106 15 q 49 217 49 117 l 49 647 q 77 761 49 721 q 158 817 106 801 q 278 833 210 833 q 397 817 344 833 q 478 760 449 800 q 508 647 508 719 l 508 218 q 478 66 508 117 q 397 -1 449 15 q 276 -17 344 -17 m 276 78 q 313 85 297 78 q 338 109 329 92 q 347 157 347 126 l 347 654 q 338 702 347 685 q 313 726 329 719 q 276 733 297 733 q 240 726 256 733 q 216 702 225 719 q 207 654 207 685 l 207 157 q 216 109 207 126 q 240 85 225 92 q 276 78 256 78 m 339 885 q 300 892 318 885 q 263 911 282 900 q 233 928 249 921 q 201 935 218 935 q 173 922 183 935 q 161 886 163 908 l 114 886 q 140 974 115 940 q 203 1008 164 1008 q 244 1001 225 1008 q 281 982 264 993 q 310 967 296 974 q 340 960 325 960 q 370 972 360 960 q 383 1004 381 985 l 435 1004 q 420 938 435 965 q 383 898 406 911 q 339 885 361 885 z "},"P":{"ha":544,"x_min":58,"x_max":517,"o":"m 58 0 l 58 821 l 350 821 q 474 784 432 821 q 517 682 517 747 l 517 540 q 503 437 517 485 q 453 360 489 389 q 349 331 417 331 l 226 331 l 226 0 l 58 0 m 226 419 l 289 419 q 339 451 322 419 q 356 557 356 483 l 356 613 q 342 706 356 678 q 301 733 328 733 l 226 733 l 226 419 z "},"П":{"ha":551,"x_min":46,"x_max":506,"o":"m 46 0 l 46 821 l 506 821 l 506 0 l 336 0 l 336 707 l 214 707 l 214 0 l 46 0 z "},"Q":{"ha":564,"x_min":49,"x_max":515,"o":"m 404 -172 l 313 -11 q 296 -12 304 -12 q 278 -12 288 -12 q 159 3 211 -12 q 78 70 107 19 q 49 221 49 121 l 49 647 q 78 761 49 721 q 163 817 108 801 q 286 833 217 833 q 408 817 357 833 q 488 760 460 800 q 515 647 515 719 l 515 222 q 495 91 515 138 q 438 21 475 44 l 511 -108 l 404 -172 m 285 82 q 322 88 306 82 q 346 111 338 93 q 354 161 354 129 l 354 654 q 346 705 354 688 q 322 728 338 722 q 285 733 306 733 q 249 728 265 733 q 224 705 233 722 q 215 654 215 688 l 215 161 q 224 111 215 129 q 249 88 233 93 q 285 82 265 82 z "},"R":{"ha":583,"x_min":58,"x_max":561,"o":"m 58 0 l 58 821 l 358 821 q 482 784 440 821 q 524 682 524 747 l 524 554 q 489 444 524 489 q 381 393 454 400 l 381 393 q 448 362 428 386 q 483 283 468 338 l 561 0 l 382 0 l 322 272 q 311 313 318 294 q 296 341 304 331 q 274 351 288 351 l 226 351 l 226 0 l 58 0 m 226 463 l 293 463 q 347 483 329 463 q 365 554 365 504 l 365 653 q 349 715 365 697 q 306 733 332 733 l 226 733 l 226 463 z "},"Ŕ":{"ha":583,"x_min":58,"x_max":561,"o":"m 58 0 l 58 821 l 358 821 q 482 784 440 821 q 524 682 524 747 l 524 554 q 489 444 524 489 q 381 393 454 400 l 381 393 q 448 362 428 386 q 483 283 468 338 l 561 0 l 382 0 l 322 272 q 311 313 318 294 q 296 341 304 331 q 274 351 288 351 l 226 351 l 226 0 l 58 0 m 226 463 l 293 463 q 347 483 329 463 q 365 554 365 504 l 365 653 q 349 715 365 697 q 306 733 332 733 l 226 733 l 226 463 m 208 881 l 317 1011 l 463 1011 l 297 881 l 208 881 z "},"Ř":{"ha":583,"x_min":58,"x_max":561,"o":"m 58 0 l 58 821 l 358 821 q 482 784 440 821 q 524 682 524 747 l 524 554 q 489 444 524 489 q 381 393 454 400 l 381 393 q 448 362 428 386 q 483 283 468 338 l 561 0 l 382 0 l 322 272 q 311 313 318 294 q 296 341 304 331 q 274 351 288 351 l 226 351 l 226 0 l 58 0 m 226 463 l 293 463 q 347 483 329 463 q 365 554 365 504 l 365 653 q 349 715 365 697 q 306 733 332 733 l 226 733 l 226 463 m 246 876 l 115 1011 l 217 1011 l 292 946 l 368 1011 l 467 1011 l 335 876 l 246 876 z "},"Ŗ":{"ha":583,"x_min":58,"x_max":561,"o":"m 58 0 l 58 821 l 358 821 q 482 784 440 821 q 524 682 524 747 l 524 554 q 489 444 524 489 q 381 393 454 400 l 381 393 q 448 362 428 386 q 483 283 468 338 l 561 0 l 382 0 l 322 272 q 311 313 318 294 q 296 341 304 331 q 274 351 288 351 l 226 351 l 226 0 l 58 0 m 226 463 l 293 463 q 347 483 329 463 q 365 554 365 504 l 365 653 q 349 715 365 697 q 306 733 332 733 l 226 733 l 226 463 m 221 -262 q 253 -208 240 -233 q 265 -167 265 -183 q 256 -150 265 -157 q 236 -133 246 -143 q 226 -104 226 -122 q 246 -68 226 -85 q 294 -51 265 -51 q 346 -69 326 -51 q 365 -112 365 -87 q 353 -160 365 -132 q 322 -215 340 -187 q 285 -262 304 -242 l 221 -262 z "},"S":{"ha":543,"x_min":33,"x_max":510,"o":"m 267 -10 q 141 11 193 -10 q 61 85 89 32 q 33 233 33 138 l 33 282 q 118 282 76 282 q 201 282 160 282 l 201 219 q 210 141 201 168 q 233 103 218 114 q 269 93 249 93 q 320 116 301 93 q 339 206 339 139 q 323 283 339 257 q 272 324 307 308 q 183 364 238 340 q 103 414 135 385 q 56 488 71 443 q 40 596 40 532 q 62 726 40 676 q 134 799 83 776 q 271 822 185 822 q 441 774 382 822 q 500 631 500 726 l 500 532 q 420 532 460 532 q 339 532 381 532 l 339 582 q 324 669 339 644 q 272 694 310 694 q 221 672 236 694 q 206 600 206 650 q 224 528 206 554 q 272 490 243 503 q 335 464 301 476 q 435 416 396 440 q 492 349 474 392 q 510 228 510 307 q 480 87 510 139 q 395 13 450 35 q 267 -10 340 -10 z "},"Ś":{"ha":543,"x_min":33,"x_max":510,"o":"m 267 -10 q 141 11 193 -10 q 61 85 89 32 q 33 233 33 138 l 33 282 q 118 282 76 282 q 201 282 160 282 l 201 219 q 210 141 201 168 q 233 103 218 114 q 269 93 249 93 q 320 116 301 93 q 339 206 339 139 q 323 283 339 257 q 272 324 307 308 q 183 364 238 340 q 103 414 135 385 q 56 488 71 443 q 40 596 40 532 q 62 726 40 676 q 134 799 83 776 q 271 822 185 822 q 441 774 382 822 q 500 631 500 726 l 500 532 q 420 532 460 532 q 339 532 381 532 l 339 582 q 324 669 339 644 q 272 694 310 694 q 221 672 236 694 q 206 600 206 650 q 224 528 206 554 q 272 490 243 503 q 335 464 301 476 q 435 416 396 440 q 492 349 474 392 q 510 228 510 307 q 480 87 510 139 q 395 13 450 35 q 267 -10 340 -10 m 189 881 l 297 1011 l 443 1011 l 278 881 l 189 881 z "},"Š":{"ha":543,"x_min":33,"x_max":510,"o":"m 267 -10 q 141 11 193 -10 q 61 85 89 32 q 33 233 33 138 l 33 282 q 118 282 76 282 q 201 282 160 282 l 201 219 q 210 141 201 168 q 233 103 218 114 q 269 93 249 93 q 320 116 301 93 q 339 206 339 139 q 323 283 339 257 q 272 324 307 308 q 183 364 238 340 q 103 414 135 385 q 56 488 71 443 q 40 596 40 532 q 62 726 40 676 q 134 799 83 776 q 271 822 185 822 q 441 774 382 822 q 500 631 500 726 l 500 532 q 420 532 460 532 q 339 532 381 532 l 339 582 q 324 669 339 644 q 272 694 310 694 q 221 672 236 694 q 206 600 206 650 q 224 528 206 554 q 272 490 243 503 q 335 464 301 476 q 435 416 396 440 q 492 349 474 392 q 510 228 510 307 q 480 87 510 139 q 395 13 450 35 q 267 -10 340 -10 m 226 876 l 96 1011 l 197 1011 l 272 946 l 349 1011 l 447 1011 l 315 876 l 226 876 z "},"Ş":{"ha":543,"x_min":33,"x_max":510,"o":"m 267 -10 q 141 11 193 -10 q 61 85 89 32 q 33 233 33 138 l 33 282 q 118 282 76 282 q 201 282 160 282 l 201 219 q 210 141 201 168 q 233 103 218 114 q 269 93 249 93 q 320 116 301 93 q 339 206 339 139 q 323 283 339 257 q 272 324 307 308 q 183 364 238 340 q 103 414 135 385 q 56 488 71 443 q 40 596 40 532 q 62 726 40 676 q 134 799 83 776 q 271 822 185 822 q 441 774 382 822 q 500 631 500 726 l 500 532 q 420 532 460 532 q 339 532 381 532 l 339 582 q 324 669 339 644 q 272 694 310 694 q 221 672 236 694 q 206 600 206 650 q 224 528 206 554 q 272 490 243 503 q 335 464 301 476 q 435 416 396 440 q 492 349 474 392 q 510 228 510 307 q 480 87 510 139 q 395 13 450 35 q 267 -10 340 -10 m 265 -224 q 216 -214 239 -224 q 183 -199 193 -204 l 203 -149 q 229 -161 213 -156 q 258 -167 246 -167 q 292 -156 281 -167 q 303 -129 303 -146 q 294 -108 303 -115 q 271 -100 285 -100 q 256 -103 263 -100 q 243 -110 249 -106 l 199 -86 l 243 0 l 303 0 l 267 -72 l 257 -68 q 280 -59 267 -62 q 310 -56 293 -56 q 369 -79 347 -56 q 390 -131 390 -103 q 358 -197 390 -169 q 265 -224 325 -224 z "},"Ș":{"ha":543,"x_min":33,"x_max":510,"o":"m 267 -10 q 141 11 193 -10 q 61 85 89 32 q 33 233 33 138 l 33 282 q 118 282 76 282 q 201 282 160 282 l 201 219 q 210 141 201 168 q 233 103 218 114 q 269 93 249 93 q 320 116 301 93 q 339 206 339 139 q 323 283 339 257 q 272 324 307 308 q 183 364 238 340 q 103 414 135 385 q 56 488 71 443 q 40 596 40 532 q 62 726 40 676 q 134 799 83 776 q 271 822 185 822 q 441 774 382 822 q 500 631 500 726 l 500 532 q 420 532 460 532 q 339 532 381 532 l 339 582 q 324 669 339 644 q 272 694 310 694 q 221 672 236 694 q 206 600 206 650 q 224 528 206 554 q 272 490 243 503 q 335 464 301 476 q 435 416 396 440 q 492 349 474 392 q 510 228 510 307 q 480 87 510 139 q 395 13 450 35 q 267 -10 340 -10 m 196 -262 q 228 -208 215 -233 q 240 -167 240 -183 q 231 -150 240 -157 q 211 -133 221 -143 q 201 -104 201 -122 q 221 -68 201 -85 q 269 -51 240 -51 q 321 -69 301 -51 q 340 -112 340 -87 q 328 -160 340 -132 q 297 -215 315 -187 q 260 -262 279 -242 l 196 -262 z "},"Ш":{"ha":850,"x_min":46,"x_max":806,"o":"m 46 0 l 46 821 l 214 821 l 214 114 l 342 114 l 342 821 l 510 821 l 510 114 l 638 114 l 638 821 l 806 821 l 806 0 l 46 0 z "},"Щ":{"ha":928,"x_min":46,"x_max":889,"o":"m 761 -126 l 761 0 l 46 0 l 46 821 l 214 821 l 214 114 l 342 114 l 342 821 l 510 821 l 510 114 l 638 114 l 638 821 l 806 821 l 806 74 l 889 74 l 889 -126 l 761 -126 z "},"Ь":{"ha":531,"x_min":46,"x_max":486,"o":"m 46 0 l 46 819 l 204 819 l 204 606 l 326 606 q 408 592 372 606 q 465 542 443 578 q 486 442 486 507 l 486 215 q 474 103 486 146 q 438 38 461 60 q 380 8 414 17 q 303 0 346 0 l 46 0 m 204 83 l 268 83 q 307 96 294 83 q 324 138 319 108 q 328 221 328 167 l 328 407 q 324 461 328 439 q 307 495 319 483 q 267 507 294 507 l 204 507 l 204 83 z "},"T":{"ha":442,"x_min":13,"x_max":429,"o":"m 140 0 l 140 707 l 13 707 l 13 821 l 429 821 l 429 707 l 301 707 l 301 0 l 140 0 z "},"Ŧ":{"ha":447,"x_min":13,"x_max":429,"o":"m 74 514 l 74 599 l 369 599 l 369 514 l 74 514 m 140 0 l 140 707 l 13 707 l 13 821 l 429 821 l 429 707 l 301 707 l 301 0 l 140 0 z "},"Ť":{"ha":442,"x_min":13,"x_max":429,"o":"m 140 0 l 140 707 l 13 707 l 13 821 l 429 821 l 429 707 l 301 707 l 301 0 l 140 0 m 176 876 l 46 1011 l 147 1011 l 222 946 l 299 1011 l 397 1011 l 265 876 l 176 876 z "},"Ţ":{"ha":442,"x_min":13,"x_max":429,"o":"m 140 0 l 140 707 l 13 707 l 13 821 l 429 821 l 429 707 l 301 707 l 301 0 l 140 0 m 215 -224 q 166 -214 189 -224 q 133 -199 143 -204 l 153 -149 q 179 -161 163 -156 q 208 -167 196 -167 q 242 -156 231 -167 q 253 -129 253 -146 q 244 -108 253 -115 q 221 -100 235 -100 q 206 -103 213 -100 q 193 -110 199 -106 l 149 -86 l 193 0 l 253 0 l 217 -72 l 207 -68 q 230 -59 217 -62 q 260 -56 243 -56 q 319 -79 297 -56 q 340 -131 340 -103 q 308 -197 340 -169 q 215 -224 275 -224 z "},"Ț":{"ha":442,"x_min":13,"x_max":429,"o":"m 140 0 l 140 707 l 13 707 l 13 821 l 429 821 l 429 707 l 301 707 l 301 0 l 140 0 m 146 -262 q 178 -208 165 -233 q 190 -167 190 -183 q 181 -150 190 -157 q 161 -133 171 -143 q 151 -104 151 -122 q 171 -68 151 -85 q 219 -51 190 -51 q 271 -69 251 -51 q 290 -112 290 -87 q 278 -160 290 -132 q 247 -215 265 -187 q 210 -262 229 -242 l 146 -262 z "},"Т":{"ha":442,"x_min":13,"x_max":429,"o":"m 140 0 l 140 707 l 13 707 l 13 821 l 429 821 l 429 707 l 301 707 l 301 0 l 140 0 z "},"Þ":{"ha":549,"x_min":46,"x_max":503,"o":"m 46 0 l 46 821 l 214 821 l 214 678 l 338 678 q 461 641 419 678 q 503 539 503 604 l 503 396 q 490 293 503 340 q 440 216 476 246 q 336 186 403 186 l 214 186 l 214 0 l 46 0 m 214 275 l 276 275 q 326 307 310 275 q 343 413 343 339 l 343 468 q 330 563 343 535 q 289 590 317 590 l 214 590 l 214 275 z "},"Ц":{"ha":631,"x_min":46,"x_max":594,"o":"m 467 -126 l 467 0 l 46 0 l 46 821 l 214 821 l 214 114 l 343 114 l 343 821 l 511 821 l 511 74 l 594 74 l 594 -126 l 467 -126 z "},"Ћ":{"ha":632,"x_min":14,"x_max":588,"o":"m 144 0 l 144 707 l 14 707 l 14 821 l 436 821 l 436 707 l 306 707 l 306 554 q 352 586 318 571 q 429 601 386 601 q 529 579 494 601 q 576 516 564 557 q 588 418 588 475 l 588 0 l 428 0 l 428 417 q 423 458 428 442 q 406 485 418 475 q 368 494 393 494 q 326 483 342 494 q 306 460 311 472 l 306 0 l 144 0 z "},"U":{"ha":565,"x_min":56,"x_max":510,"o":"m 283 -17 q 192 -10 233 -17 q 119 19 150 -3 q 72 85 89 42 q 56 204 56 129 l 56 821 l 217 821 l 217 158 q 226 112 217 129 q 250 89 235 94 q 283 83 265 83 q 315 89 300 83 q 340 112 331 94 q 349 158 349 129 l 349 821 l 510 821 l 510 204 q 493 86 510 131 q 447 19 476 42 q 374 -10 417 -3 q 283 -17 332 -17 z "},"У":{"ha":500,"x_min":10,"x_max":492,"o":"m 151 -21 q 80 -15 115 -21 q 24 -4 44 -10 l 24 79 q 47 74 33 76 q 74 72 60 72 q 115 78 93 72 q 142 111 136 83 q 145 140 144 125 q 144 178 146 154 l 10 821 l 174 821 l 256 292 l 257 292 l 340 821 l 492 821 l 358 200 q 287 30 333 81 q 151 -21 240 -21 z "},"Ú":{"ha":565,"x_min":56,"x_max":510,"o":"m 283 -17 q 192 -10 233 -17 q 119 19 150 -3 q 72 85 89 42 q 56 204 56 129 l 56 821 l 217 821 l 217 158 q 226 112 217 129 q 250 89 235 94 q 283 83 265 83 q 315 89 300 83 q 340 112 331 94 q 349 158 349 129 l 349 821 l 510 821 l 510 204 q 493 86 510 131 q 447 19 476 42 q 374 -10 417 -3 q 283 -17 332 -17 m 200 881 l 308 1011 l 454 1011 l 289 881 l 200 881 z "},"Ǔ":{"ha":565,"x_min":56,"x_max":510,"o":"m 283 -17 q 192 -10 233 -17 q 119 19 150 -3 q 72 85 89 42 q 56 204 56 129 l 56 821 l 217 821 l 217 158 q 226 112 217 129 q 250 89 235 94 q 283 83 265 83 q 315 89 300 83 q 340 112 331 94 q 349 158 349 129 l 349 821 l 510 821 l 510 204 q 493 86 510 131 q 447 19 476 42 q 374 -10 417 -3 q 283 -17 332 -17 m 238 876 l 107 1011 l 208 1011 l 283 946 l 360 1011 l 458 1011 l 326 876 l 238 876 z "},"Û":{"ha":565,"x_min":56,"x_max":510,"o":"m 283 -17 q 192 -10 233 -17 q 119 19 150 -3 q 72 85 89 42 q 56 204 56 129 l 56 821 l 217 821 l 217 158 q 226 112 217 129 q 250 89 235 94 q 283 83 265 83 q 315 89 300 83 q 340 112 331 94 q 349 158 349 129 l 349 821 l 510 821 l 510 204 q 493 86 510 131 q 447 19 476 42 q 374 -10 417 -3 q 283 -17 332 -17 m 104 876 l 238 1015 l 326 1015 l 461 876 l 361 876 l 283 946 l 206 876 l 104 876 z "},"Ü":{"ha":565,"x_min":56,"x_max":510,"o":"m 283 -17 q 192 -10 233 -17 q 119 19 150 -3 q 72 85 89 42 q 56 204 56 129 l 56 821 l 217 821 l 217 158 q 226 112 217 129 q 250 89 235 94 q 283 83 265 83 q 315 89 300 83 q 340 112 331 94 q 349 158 349 129 l 349 821 l 510 821 l 510 204 q 493 86 510 131 q 447 19 476 42 q 374 -10 417 -3 q 283 -17 332 -17 m 200 881 q 152 899 171 881 q 133 944 133 917 q 152 988 133 971 q 200 1006 171 1006 q 246 988 228 1006 q 264 944 264 971 q 246 899 264 917 q 200 881 228 881 m 367 881 q 319 899 339 881 q 300 944 300 917 q 319 988 300 971 q 367 1006 339 1006 q 413 988 394 1006 q 432 944 432 971 q 413 899 432 917 q 367 881 394 881 z "},"Ǘ":{"ha":565,"x_min":56,"x_max":510,"o":"m 283 -17 q 192 -10 233 -17 q 119 19 150 -3 q 72 85 89 42 q 56 204 56 129 l 56 821 l 217 821 l 217 158 q 226 112 217 129 q 250 89 235 94 q 283 83 265 83 q 315 89 300 83 q 340 112 331 94 q 349 158 349 129 l 349 821 l 510 821 l 510 204 q 493 86 510 131 q 447 19 476 42 q 374 -10 417 -3 q 283 -17 332 -17 m 200 881 q 152 899 171 881 q 133 944 133 917 q 152 988 133 971 q 200 1006 171 1006 q 246 988 228 1006 q 264 944 264 971 q 246 899 264 917 q 200 881 228 881 m 367 881 q 319 899 339 881 q 300 944 300 917 q 319 988 300 971 q 367 1006 339 1006 q 413 988 394 1006 q 432 944 432 971 q 413 899 432 917 q 367 881 394 881 m 200 1036 l 308 1167 l 454 1167 l 289 1036 l 200 1036 z "},"Ǚ":{"ha":565,"x_min":56,"x_max":510,"o":"m 283 -17 q 192 -10 233 -17 q 119 19 150 -3 q 72 85 89 42 q 56 204 56 129 l 56 821 l 217 821 l 217 158 q 226 112 217 129 q 250 89 235 94 q 283 83 265 83 q 315 89 300 83 q 340 112 331 94 q 349 158 349 129 l 349 821 l 510 821 l 510 204 q 493 86 510 131 q 447 19 476 42 q 374 -10 417 -3 q 283 -17 332 -17 m 200 881 q 152 899 171 881 q 133 944 133 917 q 152 988 133 971 q 200 1006 171 1006 q 246 988 228 1006 q 264 944 264 971 q 246 899 264 917 q 200 881 228 881 m 367 881 q 319 899 339 881 q 300 944 300 917 q 319 988 300 971 q 367 1006 339 1006 q 413 988 394 1006 q 432 944 432 971 q 413 899 432 917 q 367 881 394 881 m 238 1032 l 107 1167 l 208 1167 l 283 1101 l 360 1167 l 458 1167 l 326 1032 l 238 1032 z "},"Ǜ":{"ha":565,"x_min":56,"x_max":510,"o":"m 283 -17 q 192 -10 233 -17 q 119 19 150 -3 q 72 85 89 42 q 56 204 56 129 l 56 821 l 217 821 l 217 158 q 226 112 217 129 q 250 89 235 94 q 283 83 265 83 q 315 89 300 83 q 340 112 331 94 q 349 158 349 129 l 349 821 l 510 821 l 510 204 q 493 86 510 131 q 447 19 476 42 q 374 -10 417 -3 q 283 -17 332 -17 m 200 881 q 152 899 171 881 q 133 944 133 917 q 152 988 133 971 q 200 1006 171 1006 q 246 988 228 1006 q 264 944 264 971 q 246 899 264 917 q 200 881 228 881 m 367 881 q 319 899 339 881 q 300 944 300 917 q 319 988 300 971 q 367 1006 339 1006 q 413 988 394 1006 q 432 944 432 971 q 413 899 432 917 q 367 881 394 881 m 263 1036 l 108 1163 l 257 1163 l 363 1036 l 263 1036 z "},"Ǖ":{"ha":565,"x_min":56,"x_max":510,"o":"m 283 -17 q 192 -10 233 -17 q 119 19 150 -3 q 72 85 89 42 q 56 204 56 129 l 56 821 l 217 821 l 217 158 q 226 112 217 129 q 250 89 235 94 q 283 83 265 83 q 315 89 300 83 q 340 112 331 94 q 349 158 349 129 l 349 821 l 510 821 l 510 204 q 493 86 510 131 q 447 19 476 42 q 374 -10 417 -3 q 283 -17 332 -17 m 200 881 q 152 899 171 881 q 133 944 133 917 q 152 988 133 971 q 200 1006 171 1006 q 246 988 228 1006 q 264 944 264 971 q 246 899 264 917 q 200 881 228 881 m 367 881 q 319 899 339 881 q 300 944 300 917 q 319 988 300 971 q 367 1006 339 1006 q 413 988 394 1006 q 432 944 432 971 q 413 899 432 917 q 367 881 394 881 m 139 1051 l 139 1132 l 425 1132 l 425 1051 l 139 1051 z "},"Ụ":{"ha":565,"x_min":56,"x_max":510,"o":"m 283 -17 q 192 -10 233 -17 q 119 19 150 -3 q 72 85 89 42 q 56 204 56 129 l 56 821 l 217 821 l 217 158 q 226 112 217 129 q 250 89 235 94 q 283 83 265 83 q 315 89 300 83 q 340 112 331 94 q 349 158 349 129 l 349 821 l 510 821 l 510 204 q 493 86 510 131 q 447 19 476 42 q 374 -10 417 -3 q 283 -17 332 -17 m 282 -181 q 234 -161 253 -181 q 215 -117 215 -142 q 234 -70 215 -89 q 282 -51 253 -51 q 328 -70 308 -51 q 349 -117 349 -89 q 328 -161 349 -142 q 282 -181 308 -181 z "},"Ù":{"ha":565,"x_min":56,"x_max":510,"o":"m 283 -17 q 192 -10 233 -17 q 119 19 150 -3 q 72 85 89 42 q 56 204 56 129 l 56 821 l 217 821 l 217 158 q 226 112 217 129 q 250 89 235 94 q 283 83 265 83 q 315 89 300 83 q 340 112 331 94 q 349 158 349 129 l 349 821 l 510 821 l 510 204 q 493 86 510 131 q 447 19 476 42 q 374 -10 417 -3 q 283 -17 332 -17 m 263 881 l 108 1007 l 257 1007 l 363 881 l 263 881 z "},"Ủ":{"ha":565,"x_min":56,"x_max":510,"o":"m 283 -17 q 192 -10 233 -17 q 119 19 150 -3 q 72 85 89 42 q 56 204 56 129 l 56 821 l 217 821 l 217 158 q 226 112 217 129 q 250 89 235 94 q 283 83 265 83 q 315 89 300 83 q 340 112 331 94 q 349 158 349 129 l 349 821 l 510 821 l 510 204 q 493 86 510 131 q 447 19 476 42 q 374 -10 417 -3 q 283 -17 332 -17 m 238 872 l 238 889 q 252 920 238 910 q 282 940 267 931 q 297 965 297 949 l 297 974 q 292 994 297 985 q 271 1004 286 1004 q 246 975 249 1004 l 175 986 q 204 1043 179 1024 q 278 1063 229 1063 q 360 1047 332 1063 q 388 976 388 1031 l 388 971 q 371 928 388 940 q 338 910 354 917 q 322 886 322 903 l 322 872 l 238 872 z "},"Ư":{"ha":565,"x_min":56,"x_max":571,"o":"m 283 -17 q 192 -10 233 -17 q 119 19 150 -3 q 72 85 89 42 q 56 204 56 129 l 56 821 l 217 821 l 217 158 q 226 112 217 129 q 250 89 235 94 q 283 83 265 83 q 315 89 300 83 q 340 112 331 94 q 349 158 349 129 l 349 821 l 510 821 l 510 204 q 493 86 510 131 q 447 19 476 42 q 374 -10 417 -3 q 283 -17 332 -17 m 382 751 l 381 821 l 404 821 q 467 886 467 821 l 467 911 l 571 911 l 571 888 q 524 783 571 814 q 382 751 476 751 z "},"Ứ":{"ha":565,"x_min":56,"x_max":571,"o":"m 283 -17 q 192 -10 233 -17 q 119 19 150 -3 q 72 85 89 42 q 56 204 56 129 l 56 821 l 217 821 l 217 158 q 226 112 217 129 q 250 89 235 94 q 283 83 265 83 q 315 89 300 83 q 340 112 331 94 q 349 158 349 129 l 349 821 l 510 821 l 510 204 q 493 86 510 131 q 447 19 476 42 q 374 -10 417 -3 q 283 -17 332 -17 m 382 751 l 381 821 l 404 821 q 467 886 467 821 l 467 911 l 571 911 l 571 888 q 524 783 571 814 q 382 751 476 751 m 200 881 l 308 1011 l 454 1011 l 289 881 l 200 881 z "},"Ự":{"ha":565,"x_min":56,"x_max":571,"o":"m 283 -17 q 192 -10 233 -17 q 119 19 150 -3 q 72 85 89 42 q 56 204 56 129 l 56 821 l 217 821 l 217 158 q 226 112 217 129 q 250 89 235 94 q 283 83 265 83 q 315 89 300 83 q 340 112 331 94 q 349 158 349 129 l 349 821 l 510 821 l 510 204 q 493 86 510 131 q 447 19 476 42 q 374 -10 417 -3 q 283 -17 332 -17 m 382 751 l 381 821 l 404 821 q 467 886 467 821 l 467 911 l 571 911 l 571 888 q 524 783 571 814 q 382 751 476 751 m 282 -181 q 234 -161 253 -181 q 215 -117 215 -142 q 234 -70 215 -89 q 282 -51 253 -51 q 328 -70 308 -51 q 349 -117 349 -89 q 328 -161 349 -142 q 282 -181 308 -181 z "},"Ừ":{"ha":565,"x_min":56,"x_max":571,"o":"m 283 -17 q 192 -10 233 -17 q 119 19 150 -3 q 72 85 89 42 q 56 204 56 129 l 56 821 l 217 821 l 217 158 q 226 112 217 129 q 250 89 235 94 q 283 83 265 83 q 315 89 300 83 q 340 112 331 94 q 349 158 349 129 l 349 821 l 510 821 l 510 204 q 493 86 510 131 q 447 19 476 42 q 374 -10 417 -3 q 283 -17 332 -17 m 382 751 l 381 821 l 404 821 q 467 886 467 821 l 467 911 l 571 911 l 571 888 q 524 783 571 814 q 382 751 476 751 m 263 881 l 108 1007 l 257 1007 l 363 881 l 263 881 z "},"Ử":{"ha":565,"x_min":56,"x_max":571,"o":"m 283 -17 q 192 -10 233 -17 q 119 19 150 -3 q 72 85 89 42 q 56 204 56 129 l 56 821 l 217 821 l 217 158 q 226 112 217 129 q 250 89 235 94 q 283 83 265 83 q 315 89 300 83 q 340 112 331 94 q 349 158 349 129 l 349 821 l 510 821 l 510 204 q 493 86 510 131 q 447 19 476 42 q 374 -10 417 -3 q 283 -17 332 -17 m 382 751 l 381 821 l 404 821 q 467 886 467 821 l 467 911 l 571 911 l 571 888 q 524 783 571 814 q 382 751 476 751 m 238 872 l 238 889 q 252 920 238 910 q 282 940 267 931 q 297 965 297 949 l 297 974 q 292 994 297 985 q 271 1004 286 1004 q 246 975 249 1004 l 175 986 q 204 1043 179 1024 q 278 1063 229 1063 q 360 1047 332 1063 q 388 976 388 1031 l 388 971 q 371 928 388 940 q 338 910 354 917 q 322 886 322 903 l 322 872 l 238 872 z "},"Ữ":{"ha":565,"x_min":56,"x_max":571,"o":"m 283 -17 q 192 -10 233 -17 q 119 19 150 -3 q 72 85 89 42 q 56 204 56 129 l 56 821 l 217 821 l 217 158 q 226 112 217 129 q 250 89 235 94 q 283 83 265 83 q 315 89 300 83 q 340 112 331 94 q 349 158 349 129 l 349 821 l 510 821 l 510 204 q 493 86 510 131 q 447 19 476 42 q 374 -10 417 -3 q 283 -17 332 -17 m 382 751 l 381 821 l 404 821 q 467 886 467 821 l 467 911 l 571 911 l 571 888 q 524 783 571 814 q 382 751 476 751 m 342 885 q 303 892 321 885 q 265 911 285 900 q 236 928 251 921 q 204 935 221 935 q 176 922 186 935 q 164 886 165 908 l 117 886 q 142 974 118 940 q 206 1008 167 1008 q 247 1001 228 1008 q 283 982 267 993 q 313 967 299 974 q 343 960 328 960 q 373 972 363 960 q 386 1004 383 985 l 438 1004 q 423 938 438 965 q 386 898 408 911 q 342 885 364 885 z "},"Ű":{"ha":565,"x_min":56,"x_max":510,"o":"m 283 -17 q 192 -10 233 -17 q 119 19 150 -3 q 72 85 89 42 q 56 204 56 129 l 56 821 l 217 821 l 217 158 q 226 112 217 129 q 250 89 235 94 q 283 83 265 83 q 315 89 300 83 q 340 112 331 94 q 349 158 349 129 l 349 821 l 510 821 l 510 204 q 493 86 510 131 q 447 19 476 42 q 374 -10 417 -3 q 283 -17 332 -17 m 169 875 l 193 1014 l 317 1014 l 232 875 l 169 875 m 300 875 l 343 1014 l 465 1014 l 372 875 l 300 875 z "},"Ū":{"ha":565,"x_min":56,"x_max":510,"o":"m 283 -17 q 192 -10 233 -17 q 119 19 150 -3 q 72 85 89 42 q 56 204 56 129 l 56 821 l 217 821 l 217 158 q 226 112 217 129 q 250 89 235 94 q 283 83 265 83 q 315 89 300 83 q 340 112 331 94 q 349 158 349 129 l 349 821 l 510 821 l 510 204 q 493 86 510 131 q 447 19 476 42 q 374 -10 417 -3 q 283 -17 332 -17 m 139 897 l 139 978 l 425 978 l 425 897 l 139 897 z "},"Ų":{"ha":565,"x_min":56,"x_max":510,"o":"m 283 -17 q 192 -10 233 -17 q 119 19 150 -3 q 72 85 89 42 q 56 204 56 129 l 56 821 l 217 821 l 217 158 q 226 112 217 129 q 250 89 235 94 q 283 83 265 83 q 315 89 300 83 q 340 112 331 94 q 349 158 349 129 l 349 821 l 510 821 l 510 204 q 493 86 510 131 q 447 19 476 42 q 374 -10 417 -3 q 283 -17 332 -17 m 300 -200 q 218 -173 250 -200 q 186 -111 186 -146 q 217 -39 186 -72 q 296 1 249 -6 l 361 0 q 306 -39 324 -12 q 289 -89 289 -65 q 306 -129 289 -115 q 340 -143 324 -143 q 359 -140 351 -143 q 371 -137 367 -137 l 389 -179 q 362 -192 382 -183 q 300 -200 342 -200 z "},"Ů":{"ha":565,"x_min":56,"x_max":510,"o":"m 283 -17 q 192 -10 233 -17 q 119 19 150 -3 q 72 85 89 42 q 56 204 56 129 l 56 821 l 217 821 l 217 158 q 226 112 217 129 q 250 89 235 94 q 283 83 265 83 q 315 89 300 83 q 340 112 331 94 q 349 158 349 129 l 349 821 l 510 821 l 510 204 q 493 86 510 131 q 447 19 476 42 q 374 -10 417 -3 q 283 -17 332 -17 m 282 863 q 197 896 231 863 q 163 975 163 929 q 197 1057 163 1024 q 282 1090 231 1090 q 368 1056 333 1090 q 403 975 403 1022 q 367 896 403 929 q 282 863 332 863 m 282 926 q 321 940 306 926 q 336 975 336 954 q 321 1014 336 1000 q 282 1028 306 1028 q 244 1014 260 1028 q 229 975 229 1000 q 244 940 229 954 q 282 926 260 926 z "},"Ў":{"ha":500,"x_min":10,"x_max":492,"o":"m 151 -21 q 80 -15 115 -21 q 24 -4 44 -10 l 24 79 q 47 74 33 76 q 74 72 60 72 q 115 78 93 72 q 142 111 136 83 q 145 140 144 125 q 144 178 146 154 l 10 821 l 174 821 l 256 292 l 257 292 l 340 821 l 492 821 l 358 200 q 287 30 333 81 q 151 -21 240 -21 m 247 875 q 150 899 183 875 q 105 955 117 922 q 92 1014 93 988 l 178 1014 q 201 967 181 982 q 249 951 222 951 q 298 966 278 951 q 321 1014 318 981 l 407 1014 q 390 947 407 978 q 340 895 374 915 q 247 875 306 875 z "},"Ũ":{"ha":565,"x_min":56,"x_max":510,"o":"m 283 -17 q 192 -10 233 -17 q 119 19 150 -3 q 72 85 89 42 q 56 204 56 129 l 56 821 l 217 821 l 217 158 q 226 112 217 129 q 250 89 235 94 q 283 83 265 83 q 315 89 300 83 q 340 112 331 94 q 349 158 349 129 l 349 821 l 510 821 l 510 204 q 493 86 510 131 q 447 19 476 42 q 374 -10 417 -3 q 283 -17 332 -17 m 342 885 q 303 892 321 885 q 265 911 285 900 q 236 928 251 921 q 204 935 221 935 q 176 922 186 935 q 164 886 165 908 l 117 886 q 142 974 118 940 q 206 1008 167 1008 q 247 1001 228 1008 q 283 982 267 993 q 313 967 299 974 q 343 960 328 960 q 373 972 363 960 q 386 1004 383 985 l 438 1004 q 423 938 438 965 q 386 898 408 911 q 342 885 364 885 z "},"V":{"ha":533,"x_min":18,"x_max":515,"o":"m 153 0 l 18 821 l 185 821 l 268 171 l 268 171 l 354 821 l 515 821 l 379 0 l 153 0 z "},"В":{"ha":564,"x_min":58,"x_max":522,"o":"m 58 0 l 58 821 l 350 821 q 469 784 428 821 q 510 682 510 747 l 510 589 q 499 523 510 553 q 468 472 489 493 q 429 449 453 457 q 383 439 406 440 l 383 438 q 429 432 407 438 q 471 410 451 426 q 508 360 494 392 q 522 283 522 329 l 522 171 q 499 67 522 104 q 434 15 476 29 q 333 0 392 0 l 58 0 m 221 85 l 296 85 q 330 92 317 85 q 351 121 343 100 q 358 182 358 142 l 358 279 q 340 352 358 335 q 290 369 321 369 l 221 369 l 221 85 m 221 471 l 286 471 q 337 493 318 471 q 356 571 356 515 l 356 653 q 340 715 356 696 q 299 733 324 733 l 221 733 l 221 471 z "},"W":{"ha":831,"x_min":18,"x_max":811,"o":"m 143 0 l 18 821 l 185 821 l 263 208 l 349 821 l 482 821 l 567 208 l 646 821 l 811 821 l 688 0 l 500 0 l 415 476 l 332 0 l 143 0 z "},"Ẃ":{"ha":831,"x_min":18,"x_max":811,"o":"m 143 0 l 18 821 l 185 821 l 263 208 l 349 821 l 482 821 l 567 208 l 646 821 l 811 821 l 688 0 l 500 0 l 415 476 l 332 0 l 143 0 m 333 881 l 442 1011 l 588 1011 l 422 881 l 333 881 z "},"Ŵ":{"ha":831,"x_min":18,"x_max":811,"o":"m 143 0 l 18 821 l 185 821 l 263 208 l 349 821 l 482 821 l 567 208 l 646 821 l 811 821 l 688 0 l 500 0 l 415 476 l 332 0 l 143 0 m 238 876 l 371 1015 l 460 1015 l 594 876 l 494 876 l 417 946 l 339 876 l 238 876 z "},"Ẅ":{"ha":831,"x_min":18,"x_max":811,"o":"m 143 0 l 18 821 l 185 821 l 263 208 l 349 821 l 482 821 l 567 208 l 646 821 l 811 821 l 688 0 l 500 0 l 415 476 l 332 0 l 143 0 m 333 881 q 285 899 304 881 q 267 944 267 917 q 285 988 267 971 q 333 1006 304 1006 q 379 988 361 1006 q 397 944 397 971 q 379 899 397 917 q 333 881 361 881 m 500 881 q 453 899 472 881 q 433 944 433 917 q 453 988 433 971 q 500 1006 472 1006 q 547 988 528 1006 q 565 944 565 971 q 547 899 565 917 q 500 881 528 881 z "},"Ẁ":{"ha":831,"x_min":18,"x_max":811,"o":"m 143 0 l 18 821 l 185 821 l 263 208 l 349 821 l 482 821 l 567 208 l 646 821 l 811 821 l 688 0 l 500 0 l 415 476 l 332 0 l 143 0 m 396 881 l 242 1007 l 390 1007 l 496 881 l 396 881 z "},"X":{"ha":508,"x_min":14,"x_max":494,"o":"m 14 0 l 135 422 l 21 821 l 182 821 l 254 547 l 325 821 l 494 821 l 378 422 l 492 0 l 331 0 l 256 274 l 185 0 l 14 0 z "},"Y":{"ha":501,"x_min":13,"x_max":489,"o":"m 167 0 l 167 349 l 13 821 l 174 821 l 246 575 l 256 522 l 264 575 l 340 821 l 489 821 l 328 340 l 328 0 l 167 0 z "},"Ý":{"ha":501,"x_min":13,"x_max":489,"o":"m 167 0 l 167 349 l 13 821 l 174 821 l 246 575 l 256 522 l 264 575 l 340 821 l 489 821 l 328 340 l 328 0 l 167 0 m 175 881 l 283 1011 l 429 1011 l 264 881 l 175 881 z "},"Ѣ":{"ha":604,"x_min":22,"x_max":558,"o":"m 118 0 l 118 819 l 276 819 l 276 606 l 399 606 q 479 592 443 606 q 537 542 515 578 q 558 442 558 507 l 558 215 q 546 103 558 146 q 510 38 533 60 q 453 8 486 17 q 375 0 419 0 l 118 0 m 276 83 l 340 83 q 379 96 367 83 q 396 138 392 108 q 400 221 400 167 l 400 407 q 397 461 400 439 q 380 495 393 483 q 339 507 367 507 l 276 507 l 276 83 m 22 685 l 22 764 l 454 764 l 454 685 l 22 685 z "},"Ŷ":{"ha":501,"x_min":13,"x_max":489,"o":"m 167 0 l 167 349 l 13 821 l 174 821 l 246 575 l 256 522 l 264 575 l 340 821 l 489 821 l 328 340 l 328 0 l 167 0 m 79 876 l 213 1015 l 301 1015 l 436 876 l 336 876 l 258 946 l 181 876 l 79 876 z "},"Ÿ":{"ha":501,"x_min":13,"x_max":489,"o":"m 167 0 l 167 349 l 13 821 l 174 821 l 246 575 l 256 522 l 264 575 l 340 821 l 489 821 l 328 340 l 328 0 l 167 0 m 175 881 q 127 899 146 881 q 108 944 108 917 q 127 988 108 971 q 175 1006 146 1006 q 221 988 203 1006 q 239 944 239 971 q 221 899 239 917 q 175 881 203 881 m 342 881 q 294 899 314 881 q 275 944 275 917 q 294 988 275 971 q 342 1006 314 1006 q 388 988 369 1006 q 407 944 407 971 q 388 899 407 917 q 342 881 369 881 z "},"Ỵ":{"ha":501,"x_min":13,"x_max":489,"o":"m 167 0 l 167 349 l 13 821 l 174 821 l 246 575 l 256 522 l 264 575 l 340 821 l 489 821 l 328 340 l 328 0 l 167 0 m 251 -181 q 203 -161 222 -181 q 185 -117 185 -142 q 203 -70 185 -89 q 251 -51 222 -51 q 298 -70 278 -51 q 318 -117 318 -89 q 298 -161 318 -142 q 251 -181 278 -181 z "},"Ы":{"ha":775,"x_min":46,"x_max":729,"o":"m 46 0 l 46 819 l 204 819 l 204 606 l 326 606 q 408 592 372 606 q 465 542 443 578 q 486 442 486 507 l 486 215 q 474 103 486 146 q 438 38 461 60 q 380 8 414 17 q 303 0 346 0 l 46 0 m 204 83 l 268 83 q 307 96 294 83 q 324 138 319 108 q 328 221 328 167 l 328 407 q 324 461 328 439 q 307 495 319 483 q 267 507 294 507 l 204 507 l 204 83 m 568 0 l 568 821 l 729 821 l 729 0 l 568 0 z "},"Ỳ":{"ha":501,"x_min":13,"x_max":489,"o":"m 167 0 l 167 349 l 13 821 l 174 821 l 246 575 l 256 522 l 264 575 l 340 821 l 489 821 l 328 340 l 328 0 l 167 0 m 238 881 l 83 1007 l 232 1007 l 338 881 l 238 881 z "},"Ỷ":{"ha":501,"x_min":13,"x_max":489,"o":"m 167 0 l 167 349 l 13 821 l 174 821 l 246 575 l 256 522 l 264 575 l 340 821 l 489 821 l 328 340 l 328 0 l 167 0 m 213 872 l 213 889 q 227 920 213 910 q 257 940 242 931 q 272 965 272 949 l 272 974 q 267 994 272 985 q 246 1004 261 1004 q 221 975 224 1004 l 150 986 q 179 1043 154 1024 q 253 1063 204 1063 q 335 1047 307 1063 q 363 976 363 1031 l 363 971 q 346 928 363 940 q 313 910 329 917 q 297 886 297 903 l 297 872 l 213 872 z "},"Ї":{"ha":278,"x_min":-10,"x_max":288,"o":"m 58 0 l 58 821 l 219 821 l 219 0 l 58 0 m 57 881 q 9 899 28 881 q -10 944 -10 917 q 9 988 -10 971 q 57 1006 28 1006 q 103 988 85 1006 q 121 944 121 971 q 103 899 121 917 q 57 881 85 881 m 224 881 q 176 899 196 881 q 157 944 157 917 q 176 988 157 971 q 224 1006 196 1006 q 270 988 251 1006 q 289 944 289 971 q 270 899 289 917 q 224 881 251 881 z "},"Ỹ":{"ha":501,"x_min":13,"x_max":489,"o":"m 167 0 l 167 349 l 13 821 l 174 821 l 246 575 l 256 522 l 264 575 l 340 821 l 489 821 l 328 340 l 328 0 l 167 0 m 317 885 q 278 892 296 885 q 240 911 260 900 q 211 928 226 921 q 179 935 196 935 q 151 922 161 935 q 139 886 140 908 l 92 886 q 117 974 93 940 q 181 1008 142 1008 q 222 1001 203 1008 q 258 982 242 993 q 288 967 274 974 q 318 960 303 960 q 348 972 338 960 q 361 1004 358 985 l 413 1004 q 398 938 413 965 q 361 898 383 911 q 317 885 339 885 z "},"Ѫ":{"ha":917,"x_min":32,"x_max":878,"o":"m 40 0 l 121 339 q 143 399 128 372 q 183 444 158 426 q 242 463 207 461 l 321 464 l 32 711 l 32 821 l 878 821 l 878 711 l 590 465 l 675 461 q 733 443 710 460 q 772 399 757 426 q 796 339 788 372 l 876 0 l 697 0 l 636 311 q 619 372 629 343 q 589 419 608 401 l 542 419 l 542 0 l 374 0 l 374 419 l 326 419 q 297 376 307 404 q 281 317 286 347 l 218 0 l 40 0 m 456 519 l 692 711 l 218 711 l 456 519 z "},"Z":{"ha":408,"x_min":19,"x_max":390,"o":"m 19 0 l 19 103 l 206 707 l 33 707 l 33 821 l 390 821 l 390 740 l 193 114 l 390 114 l 390 0 l 19 0 z "},"Ź":{"ha":408,"x_min":19,"x_max":390,"o":"m 19 0 l 19 103 l 206 707 l 33 707 l 33 821 l 390 821 l 390 740 l 193 114 l 390 114 l 390 0 l 19 0 m 136 881 l 244 1011 l 390 1011 l 225 881 l 136 881 z "},"Ž":{"ha":408,"x_min":19,"x_max":394,"o":"m 19 0 l 19 103 l 206 707 l 33 707 l 33 821 l 390 821 l 390 740 l 193 114 l 390 114 l 390 0 l 19 0 m 174 876 l 43 1011 l 144 1011 l 219 946 l 296 1011 l 394 1011 l 263 876 l 174 876 z "},"Ż":{"ha":408,"x_min":19,"x_max":390,"o":"m 19 0 l 19 103 l 206 707 l 33 707 l 33 821 l 390 821 l 390 740 l 193 114 l 390 114 l 390 0 l 19 0 m 235 882 q 178 905 201 882 q 153 961 154 928 q 177 1017 153 994 q 236 1040 201 1040 q 294 1017 269 1040 q 318 961 318 994 q 294 905 319 928 q 235 882 269 882 z "},"З":{"ha":564,"x_min":29,"x_max":501,"o":"m 265 -10 q 132 15 185 -10 q 54 84 79 39 q 29 193 29 129 l 29 288 l 190 288 l 190 236 q 207 140 190 174 q 263 106 224 107 q 316 135 299 106 q 333 210 333 164 l 333 289 q 303 354 333 335 q 213 375 272 374 l 147 375 l 147 464 l 214 464 q 264 471 242 464 q 301 490 286 478 q 325 520 318 504 q 332 554 332 536 l 332 611 q 317 681 332 651 q 263 710 301 710 q 208 676 222 710 q 193 585 193 643 l 193 551 l 31 551 l 31 628 q 88 775 31 725 q 265 825 146 825 q 445 779 390 825 q 500 642 500 733 l 500 579 q 465 465 500 508 q 361 414 429 422 q 465 367 429 410 q 501 253 501 324 l 501 193 q 478 78 501 124 q 402 12 454 33 q 265 -10 350 -10 z "},"Ж":{"ha":921,"x_min":31,"x_max":890,"o":"m 31 0 l 207 426 l 36 821 l 221 821 l 343 471 l 378 471 l 378 821 l 540 821 l 540 471 l 579 471 l 700 821 l 886 821 l 715 426 l 890 0 l 710 0 l 579 382 l 540 382 l 540 0 l 378 0 l 378 382 l 342 382 l 211 0 l 31 0 z "},"a":{"ha":514,"x_min":36,"x_max":471,"o":"m 175 -11 q 108 -1 139 -11 q 56 40 76 8 q 36 132 36 71 l 36 224 q 74 330 36 289 q 194 400 113 371 q 263 432 238 418 q 299 466 288 446 q 310 521 310 486 l 310 558 q 303 592 310 581 q 283 610 296 604 q 253 615 269 615 q 206 591 217 615 q 194 510 194 567 l 194 451 l 51 451 l 51 525 q 66 616 51 576 q 124 678 81 656 q 253 701 167 701 q 388 685 340 701 q 453 635 435 669 q 471 543 471 601 l 471 0 l 313 0 l 313 76 q 262 13 301 36 q 175 -11 222 -11 m 243 93 q 295 122 281 93 q 310 201 310 150 l 310 378 q 282 353 301 364 q 243 331 263 343 q 203 294 217 313 q 189 242 189 275 l 189 171 q 196 124 189 142 q 215 100 203 107 q 243 93 228 93 z "},"а":{"ha":514,"x_min":36,"x_max":471,"o":"m 175 -11 q 108 -1 139 -11 q 56 40 76 8 q 36 132 36 71 l 36 224 q 74 330 36 289 q 194 400 113 371 q 263 432 238 418 q 299 466 288 446 q 310 521 310 486 l 310 558 q 303 592 310 581 q 283 610 296 604 q 253 615 269 615 q 206 591 217 615 q 194 510 194 567 l 194 451 l 51 451 l 51 525 q 66 616 51 576 q 124 678 81 656 q 253 701 167 701 q 388 685 340 701 q 453 635 435 669 q 471 543 471 601 l 471 0 l 313 0 l 313 76 q 262 13 301 36 q 175 -11 222 -11 m 243 93 q 295 122 281 93 q 310 201 310 150 l 310 378 q 282 353 301 364 q 243 331 263 343 q 203 294 217 313 q 189 242 189 275 l 189 171 q 196 124 189 142 q 215 100 203 107 q 243 93 228 93 z "},"á":{"ha":514,"x_min":36,"x_max":471,"o":"m 175 -11 q 108 -1 139 -11 q 56 40 76 8 q 36 132 36 71 l 36 224 q 74 330 36 289 q 194 400 113 371 q 263 432 238 418 q 299 466 288 446 q 310 521 310 486 l 310 558 q 303 592 310 581 q 283 610 296 604 q 253 615 269 615 q 206 591 217 615 q 194 510 194 567 l 194 451 l 51 451 l 51 525 q 66 616 51 576 q 124 678 81 656 q 253 701 167 701 q 388 685 340 701 q 453 635 435 669 q 471 543 471 601 l 471 0 l 313 0 l 313 76 q 262 13 301 36 q 175 -11 222 -11 m 243 93 q 295 122 281 93 q 310 201 310 150 l 310 378 q 282 353 301 364 q 243 331 263 343 q 203 294 217 313 q 189 242 189 275 l 189 171 q 196 124 189 142 q 215 100 203 107 q 243 93 228 93 m 193 761 l 272 900 l 425 900 l 293 761 l 193 761 z "},"ă":{"ha":514,"x_min":36,"x_max":471,"o":"m 175 -11 q 108 -1 139 -11 q 56 40 76 8 q 36 132 36 71 l 36 224 q 74 330 36 289 q 194 400 113 371 q 263 432 238 418 q 299 466 288 446 q 310 521 310 486 l 310 558 q 303 592 310 581 q 283 610 296 604 q 253 615 269 615 q 206 591 217 615 q 194 510 194 567 l 194 451 l 51 451 l 51 525 q 66 616 51 576 q 124 678 81 656 q 253 701 167 701 q 388 685 340 701 q 453 635 435 669 q 471 543 471 601 l 471 0 l 313 0 l 313 76 q 262 13 301 36 q 175 -11 222 -11 m 243 93 q 295 122 281 93 q 310 201 310 150 l 310 378 q 282 353 301 364 q 243 331 263 343 q 203 294 217 313 q 189 242 189 275 l 189 171 q 196 124 189 142 q 215 100 203 107 q 243 93 228 93 m 260 757 q 163 781 196 757 q 117 837 129 804 q 104 896 106 869 l 190 896 q 214 849 193 864 q 261 833 235 833 q 310 848 290 833 q 333 896 331 863 l 419 896 q 403 828 419 860 q 352 777 386 797 q 260 757 318 757 z "},"ắ":{"ha":514,"x_min":36,"x_max":471,"o":"m 175 -11 q 108 -1 139 -11 q 56 40 76 8 q 36 132 36 71 l 36 224 q 74 330 36 289 q 194 400 113 371 q 263 432 238 418 q 299 466 288 446 q 310 521 310 486 l 310 558 q 303 592 310 581 q 283 610 296 604 q 253 615 269 615 q 206 591 217 615 q 194 510 194 567 l 194 451 l 51 451 l 51 525 q 66 616 51 576 q 124 678 81 656 q 253 701 167 701 q 388 685 340 701 q 453 635 435 669 q 471 543 471 601 l 471 0 l 313 0 l 313 76 q 262 13 301 36 q 175 -11 222 -11 m 243 93 q 295 122 281 93 q 310 201 310 150 l 310 378 q 282 353 301 364 q 243 331 263 343 q 203 294 217 313 q 189 242 189 275 l 189 171 q 196 124 189 142 q 215 100 203 107 q 243 93 228 93 m 260 757 q 163 781 196 757 q 117 837 129 804 q 104 896 106 869 l 190 896 q 214 849 193 864 q 261 833 235 833 q 310 848 290 833 q 333 896 331 863 l 419 896 q 403 828 419 860 q 352 777 386 797 q 260 757 318 757 m 193 925 l 272 1064 l 425 1064 l 293 925 l 193 925 z "},"ặ":{"ha":514,"x_min":36,"x_max":471,"o":"m 175 -11 q 108 -1 139 -11 q 56 40 76 8 q 36 132 36 71 l 36 224 q 74 330 36 289 q 194 400 113 371 q 263 432 238 418 q 299 466 288 446 q 310 521 310 486 l 310 558 q 303 592 310 581 q 283 610 296 604 q 253 615 269 615 q 206 591 217 615 q 194 510 194 567 l 194 451 l 51 451 l 51 525 q 66 616 51 576 q 124 678 81 656 q 253 701 167 701 q 388 685 340 701 q 453 635 435 669 q 471 543 471 601 l 471 0 l 313 0 l 313 76 q 262 13 301 36 q 175 -11 222 -11 m 243 93 q 295 122 281 93 q 310 201 310 150 l 310 378 q 282 353 301 364 q 243 331 263 343 q 203 294 217 313 q 189 242 189 275 l 189 171 q 196 124 189 142 q 215 100 203 107 q 243 93 228 93 m 257 -181 q 209 -161 228 -181 q 190 -117 190 -142 q 209 -70 190 -89 q 257 -51 228 -51 q 303 -70 283 -51 q 324 -117 324 -89 q 303 -161 324 -142 q 257 -181 283 -181 m 260 757 q 163 781 196 757 q 117 837 129 804 q 104 896 106 869 l 190 896 q 214 849 193 864 q 261 833 235 833 q 310 848 290 833 q 333 896 331 863 l 419 896 q 403 828 419 860 q 352 777 386 797 q 260 757 318 757 z "},"ằ":{"ha":514,"x_min":36,"x_max":471,"o":"m 175 -11 q 108 -1 139 -11 q 56 40 76 8 q 36 132 36 71 l 36 224 q 74 330 36 289 q 194 400 113 371 q 263 432 238 418 q 299 466 288 446 q 310 521 310 486 l 310 558 q 303 592 310 581 q 283 610 296 604 q 253 615 269 615 q 206 591 217 615 q 194 510 194 567 l 194 451 l 51 451 l 51 525 q 66 616 51 576 q 124 678 81 656 q 253 701 167 701 q 388 685 340 701 q 453 635 435 669 q 471 543 471 601 l 471 0 l 313 0 l 313 76 q 262 13 301 36 q 175 -11 222 -11 m 243 93 q 295 122 281 93 q 310 201 310 150 l 310 378 q 282 353 301 364 q 243 331 263 343 q 203 294 217 313 q 189 242 189 275 l 189 171 q 196 124 189 142 q 215 100 203 107 q 243 93 228 93 m 260 757 q 163 781 196 757 q 117 837 129 804 q 104 896 106 869 l 190 896 q 214 849 193 864 q 261 833 235 833 q 310 848 290 833 q 333 896 331 863 l 419 896 q 403 828 419 860 q 352 777 386 797 q 260 757 318 757 m 240 925 l 107 1064 l 260 1064 l 339 925 l 240 925 z "},"ẳ":{"ha":514,"x_min":36,"x_max":471,"o":"m 175 -11 q 108 -1 139 -11 q 56 40 76 8 q 36 132 36 71 l 36 224 q 74 330 36 289 q 194 400 113 371 q 263 432 238 418 q 299 466 288 446 q 310 521 310 486 l 310 558 q 303 592 310 581 q 283 610 296 604 q 253 615 269 615 q 206 591 217 615 q 194 510 194 567 l 194 451 l 51 451 l 51 525 q 66 616 51 576 q 124 678 81 656 q 253 701 167 701 q 388 685 340 701 q 453 635 435 669 q 471 543 471 601 l 471 0 l 313 0 l 313 76 q 262 13 301 36 q 175 -11 222 -11 m 243 93 q 295 122 281 93 q 310 201 310 150 l 310 378 q 282 353 301 364 q 243 331 263 343 q 203 294 217 313 q 189 242 189 275 l 189 171 q 196 124 189 142 q 215 100 203 107 q 243 93 228 93 m 260 757 q 163 781 196 757 q 117 837 129 804 q 104 896 106 869 l 190 896 q 214 849 193 864 q 261 833 235 833 q 310 848 290 833 q 333 896 331 863 l 419 896 q 403 828 419 860 q 352 777 386 797 q 260 757 318 757 m 218 926 l 218 943 q 233 974 218 964 q 263 994 247 985 q 278 1019 278 1003 l 278 1028 q 272 1049 278 1039 q 251 1058 267 1058 q 226 1029 229 1058 l 156 1040 q 185 1097 160 1078 q 258 1117 210 1117 q 340 1101 313 1117 q 368 1031 368 1085 l 368 1025 q 351 983 368 994 q 319 964 335 971 q 303 940 303 957 l 303 926 l 218 926 z "},"ẵ":{"ha":514,"x_min":36,"x_max":471,"o":"m 175 -11 q 108 -1 139 -11 q 56 40 76 8 q 36 132 36 71 l 36 224 q 74 330 36 289 q 194 400 113 371 q 263 432 238 418 q 299 466 288 446 q 310 521 310 486 l 310 558 q 303 592 310 581 q 283 610 296 604 q 253 615 269 615 q 206 591 217 615 q 194 510 194 567 l 194 451 l 51 451 l 51 525 q 66 616 51 576 q 124 678 81 656 q 253 701 167 701 q 388 685 340 701 q 453 635 435 669 q 471 543 471 601 l 471 0 l 313 0 l 313 76 q 262 13 301 36 q 175 -11 222 -11 m 243 93 q 295 122 281 93 q 310 201 310 150 l 310 378 q 282 353 301 364 q 243 331 263 343 q 203 294 217 313 q 189 242 189 275 l 189 171 q 196 124 189 142 q 215 100 203 107 q 243 93 228 93 m 260 757 q 163 781 196 757 q 117 837 129 804 q 104 896 106 869 l 190 896 q 214 849 193 864 q 261 833 235 833 q 310 848 290 833 q 333 896 331 863 l 419 896 q 403 828 419 860 q 352 777 386 797 q 260 757 318 757 m 326 929 q 288 937 306 929 q 250 956 269 944 q 221 972 236 965 q 189 979 206 979 q 160 966 171 979 q 149 931 150 953 l 101 931 q 127 1019 103 985 q 190 1053 151 1053 q 232 1045 213 1053 q 268 1026 251 1038 q 298 1011 283 1018 q 328 1004 313 1004 q 358 1017 347 1004 q 371 1049 368 1029 l 422 1049 q 408 983 422 1010 q 371 942 393 956 q 326 929 349 929 z "},"ǎ":{"ha":514,"x_min":36,"x_max":471,"o":"m 175 -11 q 108 -1 139 -11 q 56 40 76 8 q 36 132 36 71 l 36 224 q 74 330 36 289 q 194 400 113 371 q 263 432 238 418 q 299 466 288 446 q 310 521 310 486 l 310 558 q 303 592 310 581 q 283 610 296 604 q 253 615 269 615 q 206 591 217 615 q 194 510 194 567 l 194 451 l 51 451 l 51 525 q 66 616 51 576 q 124 678 81 656 q 253 701 167 701 q 388 685 340 701 q 453 635 435 669 q 471 543 471 601 l 471 0 l 313 0 l 313 76 q 262 13 301 36 q 175 -11 222 -11 m 243 93 q 295 122 281 93 q 310 201 310 150 l 310 378 q 282 353 301 364 q 243 331 263 343 q 203 294 217 313 q 189 242 189 275 l 189 171 q 196 124 189 142 q 215 100 203 107 q 243 93 228 93 m 217 758 l 86 904 l 183 904 l 264 826 l 344 904 l 439 904 l 307 758 l 217 758 z "},"â":{"ha":514,"x_min":36,"x_max":471,"o":"m 175 -11 q 108 -1 139 -11 q 56 40 76 8 q 36 132 36 71 l 36 224 q 74 330 36 289 q 194 400 113 371 q 263 432 238 418 q 299 466 288 446 q 310 521 310 486 l 310 558 q 303 592 310 581 q 283 610 296 604 q 253 615 269 615 q 206 591 217 615 q 194 510 194 567 l 194 451 l 51 451 l 51 525 q 66 616 51 576 q 124 678 81 656 q 253 701 167 701 q 388 685 340 701 q 453 635 435 669 q 471 543 471 601 l 471 0 l 313 0 l 313 76 q 262 13 301 36 q 175 -11 222 -11 m 243 93 q 295 122 281 93 q 310 201 310 150 l 310 378 q 282 353 301 364 q 243 331 263 343 q 203 294 217 313 q 189 242 189 275 l 189 171 q 196 124 189 142 q 215 100 203 107 q 243 93 228 93 m 86 758 l 218 904 l 307 904 l 439 758 l 344 758 l 264 836 l 183 758 l 86 758 z "},"ấ":{"ha":514,"x_min":36,"x_max":664,"o":"m 175 -11 q 108 -1 139 -11 q 56 40 76 8 q 36 132 36 71 l 36 224 q 74 330 36 289 q 194 400 113 371 q 263 432 238 418 q 299 466 288 446 q 310 521 310 486 l 310 558 q 303 592 310 581 q 283 610 296 604 q 253 615 269 615 q 206 591 217 615 q 194 510 194 567 l 194 451 l 51 451 l 51 525 q 66 616 51 576 q 124 678 81 656 q 253 701 167 701 q 388 685 340 701 q 453 635 435 669 q 471 543 471 601 l 471 0 l 313 0 l 313 76 q 262 13 301 36 q 175 -11 222 -11 m 243 93 q 295 122 281 93 q 310 201 310 150 l 310 378 q 282 353 301 364 q 243 331 263 343 q 203 294 217 313 q 189 242 189 275 l 189 171 q 196 124 189 142 q 215 100 203 107 q 243 93 228 93 m 86 758 l 218 904 l 307 904 l 439 758 l 344 758 l 264 836 l 183 758 l 86 758 m 432 836 l 511 975 l 664 975 l 532 836 l 432 836 z "},"ậ":{"ha":514,"x_min":36,"x_max":471,"o":"m 175 -11 q 108 -1 139 -11 q 56 40 76 8 q 36 132 36 71 l 36 224 q 74 330 36 289 q 194 400 113 371 q 263 432 238 418 q 299 466 288 446 q 310 521 310 486 l 310 558 q 303 592 310 581 q 283 610 296 604 q 253 615 269 615 q 206 591 217 615 q 194 510 194 567 l 194 451 l 51 451 l 51 525 q 66 616 51 576 q 124 678 81 656 q 253 701 167 701 q 388 685 340 701 q 453 635 435 669 q 471 543 471 601 l 471 0 l 313 0 l 313 76 q 262 13 301 36 q 175 -11 222 -11 m 243 93 q 295 122 281 93 q 310 201 310 150 l 310 378 q 282 353 301 364 q 243 331 263 343 q 203 294 217 313 q 189 242 189 275 l 189 171 q 196 124 189 142 q 215 100 203 107 q 243 93 228 93 m 257 -181 q 209 -161 228 -181 q 190 -117 190 -142 q 209 -70 190 -89 q 257 -51 228 -51 q 303 -70 283 -51 q 324 -117 324 -89 q 303 -161 324 -142 q 257 -181 283 -181 m 86 758 l 218 904 l 307 904 l 439 758 l 344 758 l 264 836 l 183 758 l 86 758 z "},"ầ":{"ha":514,"x_min":36,"x_max":578,"o":"m 175 -11 q 108 -1 139 -11 q 56 40 76 8 q 36 132 36 71 l 36 224 q 74 330 36 289 q 194 400 113 371 q 263 432 238 418 q 299 466 288 446 q 310 521 310 486 l 310 558 q 303 592 310 581 q 283 610 296 604 q 253 615 269 615 q 206 591 217 615 q 194 510 194 567 l 194 451 l 51 451 l 51 525 q 66 616 51 576 q 124 678 81 656 q 253 701 167 701 q 388 685 340 701 q 453 635 435 669 q 471 543 471 601 l 471 0 l 313 0 l 313 76 q 262 13 301 36 q 175 -11 222 -11 m 243 93 q 295 122 281 93 q 310 201 310 150 l 310 378 q 282 353 301 364 q 243 331 263 343 q 203 294 217 313 q 189 242 189 275 l 189 171 q 196 124 189 142 q 215 100 203 107 q 243 93 228 93 m 86 758 l 218 904 l 307 904 l 439 758 l 344 758 l 264 836 l 183 758 l 86 758 m 479 836 l 346 975 l 499 975 l 578 836 l 479 836 z "},"ẩ":{"ha":514,"x_min":36,"x_max":607,"o":"m 175 -11 q 108 -1 139 -11 q 56 40 76 8 q 36 132 36 71 l 36 224 q 74 330 36 289 q 194 400 113 371 q 263 432 238 418 q 299 466 288 446 q 310 521 310 486 l 310 558 q 303 592 310 581 q 283 610 296 604 q 253 615 269 615 q 206 591 217 615 q 194 510 194 567 l 194 451 l 51 451 l 51 525 q 66 616 51 576 q 124 678 81 656 q 253 701 167 701 q 388 685 340 701 q 453 635 435 669 q 471 543 471 601 l 471 0 l 313 0 l 313 76 q 262 13 301 36 q 175 -11 222 -11 m 243 93 q 295 122 281 93 q 310 201 310 150 l 310 378 q 282 353 301 364 q 243 331 263 343 q 203 294 217 313 q 189 242 189 275 l 189 171 q 196 124 189 142 q 215 100 203 107 q 243 93 228 93 m 86 758 l 218 904 l 307 904 l 439 758 l 344 758 l 264 836 l 183 758 l 86 758 m 457 838 l 457 854 q 472 885 457 875 q 501 905 486 896 q 517 931 517 914 l 517 939 q 511 960 517 950 q 490 969 506 969 q 465 940 468 969 l 394 951 q 424 1008 399 989 q 497 1028 449 1028 q 579 1012 551 1028 q 607 942 607 996 l 607 936 q 590 894 607 906 q 558 875 574 882 q 542 851 542 868 l 542 838 l 457 838 z "},"ẫ":{"ha":514,"x_min":36,"x_max":471,"o":"m 175 -11 q 108 -1 139 -11 q 56 40 76 8 q 36 132 36 71 l 36 224 q 74 330 36 289 q 194 400 113 371 q 263 432 238 418 q 299 466 288 446 q 310 521 310 486 l 310 558 q 303 592 310 581 q 283 610 296 604 q 253 615 269 615 q 206 591 217 615 q 194 510 194 567 l 194 451 l 51 451 l 51 525 q 66 616 51 576 q 124 678 81 656 q 253 701 167 701 q 388 685 340 701 q 453 635 435 669 q 471 543 471 601 l 471 0 l 313 0 l 313 76 q 262 13 301 36 q 175 -11 222 -11 m 243 93 q 295 122 281 93 q 310 201 310 150 l 310 378 q 282 353 301 364 q 243 331 263 343 q 203 294 217 313 q 189 242 189 275 l 189 171 q 196 124 189 142 q 215 100 203 107 q 243 93 228 93 m 86 758 l 218 904 l 307 904 l 439 758 l 344 758 l 264 836 l 183 758 l 86 758 m 328 938 q 289 945 307 938 q 251 964 271 953 q 222 981 238 974 q 190 988 207 988 q 162 974 172 988 q 150 939 151 961 l 103 939 q 128 1027 104 993 q 192 1061 153 1061 q 233 1053 214 1061 q 269 1035 253 1046 q 299 1019 285 1026 q 329 1013 314 1013 q 359 1025 349 1013 q 372 1057 369 1038 l 424 1057 q 409 991 424 1018 q 372 951 394 964 q 328 938 350 938 z "},"´":{"ha":258,"x_min":0,"x_max":232,"o":"m 0 761 l 79 900 l 232 900 l 100 761 l 0 761 z "},"́":{"ha":0,"x_min":0,"x_max":232,"o":"m 0 761 l 79 900 l 232 900 l 100 761 l 0 761 z "},"ä":{"ha":514,"x_min":36,"x_max":471,"o":"m 175 -11 q 108 -1 139 -11 q 56 40 76 8 q 36 132 36 71 l 36 224 q 74 330 36 289 q 194 400 113 371 q 263 432 238 418 q 299 466 288 446 q 310 521 310 486 l 310 558 q 303 592 310 581 q 283 610 296 604 q 253 615 269 615 q 206 591 217 615 q 194 510 194 567 l 194 451 l 51 451 l 51 525 q 66 616 51 576 q 124 678 81 656 q 253 701 167 701 q 388 685 340 701 q 453 635 435 669 q 471 543 471 601 l 471 0 l 313 0 l 313 76 q 262 13 301 36 q 175 -11 222 -11 m 243 93 q 295 122 281 93 q 310 201 310 150 l 310 378 q 282 353 301 364 q 243 331 263 343 q 203 294 217 313 q 189 242 189 275 l 189 171 q 196 124 189 142 q 215 100 203 107 q 243 93 228 93 m 181 763 q 133 781 151 763 q 114 826 114 799 q 133 870 114 853 q 181 888 151 888 q 226 870 208 888 q 244 826 244 853 q 226 781 244 799 q 181 763 208 763 m 347 763 q 300 781 319 763 q 281 826 281 799 q 300 870 281 853 q 347 888 319 888 q 394 870 375 888 q 413 826 413 853 q 394 781 413 799 q 347 763 375 763 z "},"ạ":{"ha":514,"x_min":36,"x_max":471,"o":"m 175 -11 q 108 -1 139 -11 q 56 40 76 8 q 36 132 36 71 l 36 224 q 74 330 36 289 q 194 400 113 371 q 263 432 238 418 q 299 466 288 446 q 310 521 310 486 l 310 558 q 303 592 310 581 q 283 610 296 604 q 253 615 269 615 q 206 591 217 615 q 194 510 194 567 l 194 451 l 51 451 l 51 525 q 66 616 51 576 q 124 678 81 656 q 253 701 167 701 q 388 685 340 701 q 453 635 435 669 q 471 543 471 601 l 471 0 l 313 0 l 313 76 q 262 13 301 36 q 175 -11 222 -11 m 243 93 q 295 122 281 93 q 310 201 310 150 l 310 378 q 282 353 301 364 q 243 331 263 343 q 203 294 217 313 q 189 242 189 275 l 189 171 q 196 124 189 142 q 215 100 203 107 q 243 93 228 93 m 257 -181 q 209 -161 228 -181 q 190 -117 190 -142 q 209 -70 190 -89 q 257 -51 228 -51 q 303 -70 283 -51 q 324 -117 324 -89 q 303 -161 324 -142 q 257 -181 283 -181 z "},"æ":{"ha":781,"x_min":36,"x_max":747,"o":"m 175 -8 q 133 -6 157 -8 q 88 10 110 -3 q 51 51 65 22 q 36 135 36 81 l 36 226 q 78 334 36 296 q 188 397 121 372 q 259 430 232 417 q 298 463 286 443 q 310 517 310 483 l 310 558 q 303 592 310 581 q 283 610 296 604 q 253 615 269 615 q 206 591 217 615 q 194 510 194 567 l 194 451 l 51 451 l 51 525 q 66 616 51 576 q 124 678 81 656 q 253 701 167 701 q 369 682 328 701 q 425 628 410 663 q 440 543 440 593 l 440 25 l 344 113 q 275 18 322 44 q 175 -8 228 -8 m 243 96 q 295 123 281 96 q 310 201 310 150 l 310 378 q 281 353 301 364 q 242 329 261 343 q 202 293 215 311 q 189 243 189 275 l 189 172 q 196 126 189 143 q 215 102 203 108 q 243 96 228 96 m 529 -3 q 444 3 482 -3 q 382 31 407 10 q 344 94 357 51 q 332 211 332 138 l 332 524 q 381 652 332 604 q 529 700 431 700 q 693 662 639 700 q 747 524 747 624 l 747 336 l 471 336 l 471 146 q 476 101 471 117 q 494 78 482 85 q 529 72 507 72 q 565 79 551 72 q 583 103 578 86 q 588 149 588 119 l 588 254 l 747 254 l 747 215 q 733 97 747 140 q 691 32 718 53 q 623 4 664 11 q 529 -3 582 -3 m 471 408 l 588 408 l 588 542 q 576 599 588 582 q 529 615 564 615 q 484 599 497 615 q 471 542 471 582 l 471 408 z "},"à":{"ha":514,"x_min":36,"x_max":471,"o":"m 175 -11 q 108 -1 139 -11 q 56 40 76 8 q 36 132 36 71 l 36 224 q 74 330 36 289 q 194 400 113 371 q 263 432 238 418 q 299 466 288 446 q 310 521 310 486 l 310 558 q 303 592 310 581 q 283 610 296 604 q 253 615 269 615 q 206 591 217 615 q 194 510 194 567 l 194 451 l 51 451 l 51 525 q 66 616 51 576 q 124 678 81 656 q 253 701 167 701 q 388 685 340 701 q 453 635 435 669 q 471 543 471 601 l 471 0 l 313 0 l 313 76 q 262 13 301 36 q 175 -11 222 -11 m 243 93 q 295 122 281 93 q 310 201 310 150 l 310 378 q 282 353 301 364 q 243 331 263 343 q 203 294 217 313 q 189 242 189 275 l 189 171 q 196 124 189 142 q 215 100 203 107 q 243 93 228 93 m 242 761 l 108 900 l 261 900 l 340 761 l 242 761 z "},"ả":{"ha":514,"x_min":36,"x_max":471,"o":"m 175 -11 q 108 -1 139 -11 q 56 40 76 8 q 36 132 36 71 l 36 224 q 74 330 36 289 q 194 400 113 371 q 263 432 238 418 q 299 466 288 446 q 310 521 310 486 l 310 558 q 303 592 310 581 q 283 610 296 604 q 253 615 269 615 q 206 591 217 615 q 194 510 194 567 l 194 451 l 51 451 l 51 525 q 66 616 51 576 q 124 678 81 656 q 253 701 167 701 q 388 685 340 701 q 453 635 435 669 q 471 543 471 601 l 471 0 l 313 0 l 313 76 q 262 13 301 36 q 175 -11 222 -11 m 243 93 q 295 122 281 93 q 310 201 310 150 l 310 378 q 282 353 301 364 q 243 331 263 343 q 203 294 217 313 q 189 242 189 275 l 189 171 q 196 124 189 142 q 215 100 203 107 q 243 93 228 93 m 219 763 l 219 779 q 234 810 219 800 q 264 830 249 821 q 279 856 279 839 l 279 864 q 274 885 279 875 q 253 894 268 894 q 228 865 231 894 l 157 876 q 186 933 161 914 q 260 953 211 953 q 342 937 314 953 q 369 867 369 921 l 369 861 q 353 819 369 831 q 320 800 336 807 q 304 776 304 793 l 304 763 l 219 763 z "},"ā":{"ha":514,"x_min":36,"x_max":471,"o":"m 175 -11 q 108 -1 139 -11 q 56 40 76 8 q 36 132 36 71 l 36 224 q 74 330 36 289 q 194 400 113 371 q 263 432 238 418 q 299 466 288 446 q 310 521 310 486 l 310 558 q 303 592 310 581 q 283 610 296 604 q 253 615 269 615 q 206 591 217 615 q 194 510 194 567 l 194 451 l 51 451 l 51 525 q 66 616 51 576 q 124 678 81 656 q 253 701 167 701 q 388 685 340 701 q 453 635 435 669 q 471 543 471 601 l 471 0 l 313 0 l 313 76 q 262 13 301 36 q 175 -11 222 -11 m 243 93 q 295 122 281 93 q 310 201 310 150 l 310 378 q 282 353 301 364 q 243 331 263 343 q 203 294 217 313 q 189 242 189 275 l 189 171 q 196 124 189 142 q 215 100 203 107 q 243 93 228 93 m 119 778 l 119 858 l 406 858 l 406 778 l 119 778 z "},"&":{"ha":643,"x_min":40,"x_max":603,"o":"m 260 -6 q 138 23 186 -6 q 65 102 89 51 q 40 224 40 153 q 69 341 40 290 q 154 404 97 392 q 129 465 139 431 q 121 544 119 500 q 167 664 125 622 q 299 706 210 706 q 384 699 342 706 q 458 686 426 693 q 501 674 489 679 l 501 558 q 472 566 497 560 q 412 578 447 572 q 340 583 376 583 q 290 569 308 583 q 266 533 272 554 q 265 486 260 511 q 285 438 271 461 q 301 415 290 429 q 324 385 311 400 q 349 354 336 369 q 372 326 361 339 q 390 306 383 314 l 392 431 l 603 431 l 603 331 l 494 331 q 494 287 494 306 q 492 252 493 268 q 489 219 490 236 q 549 173 517 196 q 603 140 582 150 l 603 -3 q 526 26 574 -1 q 436 89 479 53 q 391 32 418 53 q 331 3 364 11 q 260 -6 297 -6 m 267 103 q 321 119 300 103 q 350 161 342 135 q 272 244 310 201 q 208 321 233 286 q 177 293 189 313 q 165 239 165 274 q 191 138 163 174 q 267 103 219 103 z "},"ą":{"ha":514,"x_min":36,"x_max":499,"o":"m 175 -11 q 108 -1 139 -11 q 56 40 76 8 q 36 132 36 71 l 36 224 q 74 330 36 289 q 194 400 113 371 q 263 432 238 418 q 299 466 288 446 q 310 521 310 486 l 310 558 q 303 592 310 581 q 283 610 296 604 q 253 615 269 615 q 206 591 217 615 q 194 510 194 567 l 194 451 l 51 451 l 51 525 q 66 616 51 576 q 124 678 81 656 q 253 701 167 701 q 388 685 340 701 q 453 635 435 669 q 471 543 471 601 l 471 0 l 313 0 l 313 76 q 262 13 301 36 q 175 -11 222 -11 m 243 93 q 295 122 281 93 q 310 201 310 150 l 310 378 q 282 353 301 364 q 243 331 263 343 q 203 294 217 313 q 189 242 189 275 l 189 171 q 196 124 189 142 q 215 100 203 107 q 243 93 228 93 m 410 -200 q 328 -173 360 -200 q 296 -111 296 -146 q 327 -39 296 -72 q 406 1 358 -6 l 471 0 q 416 -39 433 -12 q 399 -89 399 -65 q 416 -129 399 -115 q 450 -143 433 -143 q 469 -140 461 -143 q 481 -137 476 -137 l 499 -179 q 472 -192 492 -183 q 410 -200 451 -200 z "},"≈":{"ha":726,"x_min":50,"x_max":676,"o":"m 499 425 q 406 442 450 426 q 318 473 363 457 q 221 492 274 489 q 158 472 182 493 q 132 425 135 451 l 50 425 q 74 511 51 474 q 135 572 96 549 q 228 593 175 594 q 317 577 275 592 q 403 548 360 563 q 492 532 446 533 q 560 549 540 529 q 585 590 581 568 l 676 590 q 647 484 675 521 q 579 435 619 447 q 499 425 539 422 m 499 129 q 406 148 450 132 q 318 180 363 164 q 221 197 274 196 q 158 178 182 199 q 132 131 135 157 l 50 131 q 74 216 51 178 q 135 277 96 254 q 228 299 175 300 q 317 283 275 297 q 403 253 360 268 q 492 238 446 239 q 560 254 540 235 q 585 296 581 274 l 676 296 q 647 190 675 226 q 579 140 619 153 q 499 129 539 128 z "},"å":{"ha":514,"x_min":36,"x_max":471,"o":"m 175 -11 q 108 -1 139 -11 q 56 40 76 8 q 36 132 36 71 l 36 224 q 74 330 36 289 q 194 400 113 371 q 263 432 238 418 q 299 466 288 446 q 310 521 310 486 l 310 558 q 303 592 310 581 q 283 610 296 604 q 253 615 269 615 q 206 591 217 615 q 194 510 194 567 l 194 451 l 51 451 l 51 525 q 66 616 51 576 q 124 678 81 656 q 253 701 167 701 q 388 685 340 701 q 453 635 435 669 q 471 543 471 601 l 471 0 l 313 0 l 313 76 q 262 13 301 36 q 175 -11 222 -11 m 243 93 q 295 122 281 93 q 310 201 310 150 l 310 378 q 282 353 301 364 q 243 331 263 343 q 203 294 217 313 q 189 242 189 275 l 189 171 q 196 124 189 142 q 215 100 203 107 q 243 93 228 93 m 263 751 q 177 785 211 751 q 143 864 143 818 q 177 946 143 913 q 263 979 211 979 q 349 945 314 979 q 383 864 383 911 q 348 785 383 818 q 263 751 313 751 m 263 815 q 301 829 286 815 q 317 864 317 843 q 301 903 317 889 q 263 917 286 917 q 225 903 240 917 q 210 864 210 889 q 225 829 210 843 q 263 815 240 815 z "},"^":{"ha":583,"x_min":50,"x_max":533,"o":"m 50 688 l 253 974 l 332 974 l 533 688 l 404 688 l 293 851 l 182 688 l 50 688 z "},"~":{"ha":726,"x_min":50,"x_max":676,"o":"m 499 706 q 406 722 450 707 q 318 753 363 738 q 221 772 274 769 q 158 753 182 775 q 132 706 135 732 l 50 706 q 74 793 51 754 q 135 854 96 832 q 228 874 175 876 q 317 858 275 874 q 403 828 360 843 q 492 813 446 814 q 560 829 540 810 q 585 871 581 849 l 676 871 q 647 765 675 801 q 579 717 619 729 q 499 706 539 704 z "},"*":{"ha":803,"x_min":56,"x_max":713,"o":"m 260 118 l 139 208 l 340 408 l 56 439 l 108 601 l 358 457 l 306 739 l 461 739 l 413 458 l 664 597 l 713 447 l 431 408 l 636 210 l 511 122 l 388 375 l 260 118 z "},"@":{"ha":1026,"x_min":65,"x_max":953,"o":"m 494 -93 q 235 -42 329 -93 q 103 108 142 10 q 65 349 65 207 q 169 698 65 574 q 503 824 274 822 q 733 783 632 825 q 894 649 835 740 q 953 411 953 558 q 927 233 953 304 q 857 124 901 161 q 756 88 813 88 q 678 106 714 88 q 622 160 643 125 q 597 239 601 194 l 633 229 q 569 138 610 165 q 467 111 528 111 q 360 144 400 111 q 319 261 319 178 q 330 328 319 299 q 375 382 340 358 q 486 426 410 406 q 541 449 519 435 q 568 475 563 464 q 574 494 572 485 q 576 514 576 504 q 563 560 576 546 q 513 574 549 574 q 458 557 474 574 q 442 503 442 540 l 442 461 l 333 461 l 333 508 q 347 585 333 556 q 399 628 361 615 q 511 642 438 642 q 628 626 588 642 q 683 578 668 610 q 699 494 699 546 l 699 256 q 720 174 699 197 q 775 150 742 150 q 822 172 800 150 q 858 248 844 194 q 871 393 871 301 q 832 588 871 506 q 713 714 793 669 q 511 758 633 758 q 308 719 389 758 q 188 590 228 681 q 149 346 149 500 q 175 157 149 231 q 249 44 201 83 q 362 -10 296 6 q 508 -28 428 -26 q 582 -25 536 -29 q 679 -13 628 -21 q 775 6 731 -6 q 842 31 819 17 l 842 -33 q 765 -59 815 -44 q 645 -83 714 -74 q 494 -93 576 -93 m 501 196 q 551 210 533 196 q 576 242 568 224 q 583 274 583 260 l 583 389 q 536 378 560 386 q 494 361 513 371 q 458 339 472 350 q 438 312 444 328 q 431 271 431 296 q 444 215 431 233 q 501 196 458 196 z "},"ã":{"ha":514,"x_min":36,"x_max":471,"o":"m 175 -11 q 108 -1 139 -11 q 56 40 76 8 q 36 132 36 71 l 36 224 q 74 330 36 289 q 194 400 113 371 q 263 432 238 418 q 299 466 288 446 q 310 521 310 486 l 310 558 q 303 592 310 581 q 283 610 296 604 q 253 615 269 615 q 206 591 217 615 q 194 510 194 567 l 194 451 l 51 451 l 51 525 q 66 616 51 576 q 124 678 81 656 q 253 701 167 701 q 388 685 340 701 q 453 635 435 669 q 471 543 471 601 l 471 0 l 313 0 l 313 76 q 262 13 301 36 q 175 -11 222 -11 m 243 93 q 295 122 281 93 q 310 201 310 150 l 310 378 q 282 353 301 364 q 243 331 263 343 q 203 294 217 313 q 189 242 189 275 l 189 171 q 196 124 189 142 q 215 100 203 107 q 243 93 228 93 m 328 765 q 289 773 307 765 q 251 792 271 781 q 222 808 238 801 q 190 815 207 815 q 162 802 172 815 q 150 767 151 789 l 103 767 q 128 855 104 821 q 192 889 153 889 q 233 881 214 889 q 269 863 253 874 q 299 847 285 854 q 329 840 314 840 q 359 853 349 840 q 372 885 369 865 l 424 885 q 409 819 424 846 q 372 778 394 792 q 328 765 350 765 z "},"b":{"ha":528,"x_min":51,"x_max":486,"o":"m 304 -10 q 210 15 243 -10 q 168 61 178 39 l 164 0 l 51 0 l 51 875 l 210 875 l 210 633 q 252 679 224 660 q 332 699 281 699 q 415 683 381 699 q 467 631 449 667 q 486 533 486 594 l 486 201 q 475 95 486 136 q 442 31 464 54 q 385 -1 419 8 q 304 -10 351 -10 m 269 97 q 303 104 292 97 q 321 123 315 111 q 327 151 326 135 q 328 185 328 167 l 328 518 q 326 549 328 535 q 319 575 325 564 q 301 592 313 586 q 269 599 290 599 q 224 581 238 599 q 210 525 210 563 l 210 197 q 211 160 210 178 q 219 128 213 142 q 236 106 225 114 q 269 97 247 97 z "},"\\":{"ha":776,"x_min":50,"x_max":638,"o":"m 526 -62 l 50 875 l 164 875 l 638 -62 l 526 -62 z "},"|":{"ha":399,"x_min":131,"x_max":268,"o":"m 131 -333 l 131 875 l 268 875 l 268 -333 l 131 -333 z "},"б":{"ha":521,"x_min":40,"x_max":481,"o":"m 254 -10 q 142 5 190 -10 q 68 58 94 19 q 42 164 42 96 l 40 654 q 53 772 40 725 q 100 843 67 819 q 193 867 133 867 q 261 871 221 867 q 340 881 301 875 q 407 893 379 886 q 438 906 435 900 l 438 842 q 413 799 438 818 q 332 778 389 779 l 315 778 q 241 767 265 778 q 208 732 217 756 q 199 675 200 708 l 199 613 q 239 655 211 635 q 321 675 267 675 q 402 660 367 675 q 459 610 438 646 q 481 510 481 575 l 481 206 q 467 94 481 136 q 427 29 454 51 q 357 -1 400 7 q 254 -10 314 -10 m 261 83 q 300 94 288 83 q 317 123 313 104 q 322 167 322 142 l 322 494 q 318 538 322 519 q 301 565 314 556 q 261 575 288 575 q 228 569 240 575 q 208 553 215 564 q 200 529 201 542 q 199 503 199 517 l 199 167 q 203 123 199 142 q 222 94 208 104 q 261 83 235 83 z "},"{":{"ha":463,"x_min":88,"x_max":390,"o":"m 390 -189 q 213 -157 279 -186 q 119 -83 147 -128 q 92 11 92 -37 q 107 98 92 63 q 143 160 122 133 q 180 211 164 186 q 196 264 196 236 q 182 306 196 289 q 144 335 168 324 q 88 346 119 346 l 88 392 q 138 405 115 393 q 176 438 161 417 q 192 485 192 458 q 176 532 192 508 q 142 582 161 556 q 107 642 122 608 q 92 717 92 675 q 119 817 92 772 q 210 891 146 863 q 390 924 275 919 l 390 839 q 326 824 356 833 q 278 791 296 815 q 261 717 261 767 q 273 646 261 676 q 299 590 285 615 q 326 537 314 564 q 338 474 338 510 q 327 431 338 454 q 293 391 317 408 q 228 369 269 374 q 307 341 276 364 q 338 271 338 318 q 328 215 338 240 q 305 162 318 189 q 281 103 292 135 q 271 28 271 71 q 290 -51 271 -22 q 338 -91 310 -79 q 390 -106 365 -103 l 390 -189 z "},"}":{"ha":463,"x_min":72,"x_max":375,"o":"m 72 -189 l 72 -106 q 125 -91 97 -103 q 172 -51 153 -79 q 192 28 192 -22 q 181 103 192 71 q 158 162 171 135 q 134 215 144 189 q 124 271 124 240 q 155 341 124 318 q 235 369 186 364 q 169 391 193 374 q 135 431 144 408 q 125 474 125 454 q 137 537 125 510 q 163 590 149 564 q 190 646 178 615 q 201 717 201 676 q 184 791 201 767 q 138 824 167 815 q 72 839 108 833 l 72 924 q 252 891 188 919 q 344 817 317 863 q 371 717 371 772 q 356 642 371 675 q 321 582 340 608 q 286 532 301 556 q 271 485 271 508 q 285 438 271 458 q 324 405 300 417 q 375 392 349 393 l 375 346 q 319 335 344 346 q 281 306 294 324 q 267 264 267 289 q 283 211 267 236 q 319 160 299 186 q 356 98 340 133 q 371 11 371 63 q 343 -83 371 -37 q 249 -157 315 -128 q 72 -189 183 -186 z "},"[":{"ha":435,"x_min":60,"x_max":374,"o":"m 60 -79 l 60 875 l 374 875 l 374 792 l 208 792 l 208 4 l 374 4 l 374 -79 l 60 -79 z "},"]":{"ha":435,"x_min":60,"x_max":374,"o":"m 60 -79 l 60 4 l 225 4 l 225 792 l 60 792 l 60 875 l 374 875 l 374 -79 l 60 -79 z "},"˘":{"ha":361,"x_min":21,"x_max":336,"o":"m 176 763 q 79 786 113 763 q 34 842 46 810 q 21 901 22 875 l 107 901 q 131 854 110 869 q 178 839 151 839 q 227 853 207 839 q 250 901 247 868 l 336 901 q 319 834 336 865 q 269 783 303 803 q 176 763 235 763 z "},"̆":{"ha":0,"x_min":21,"x_max":336,"o":"m 176 763 q 79 786 113 763 q 34 842 46 810 q 21 901 22 875 l 107 901 q 131 854 110 869 q 178 839 151 839 q 227 853 207 839 q 250 901 247 868 l 336 901 q 319 834 336 865 q 269 783 303 803 q 176 763 235 763 z "},"¦":{"ha":319,"x_min":92,"x_max":229,"o":"m 92 -232 l 92 246 l 229 246 l 229 -232 l 92 -232 m 92 375 l 92 813 l 229 813 l 229 375 l 92 375 z "},"•":{"ha":515,"x_min":68,"x_max":447,"o":"m 258 199 q 163 224 206 199 q 94 293 119 250 q 68 389 68 336 q 94 484 68 442 q 163 552 119 526 q 258 578 206 578 q 353 552 311 578 q 422 484 396 526 q 447 389 447 442 q 422 293 447 336 q 353 224 396 250 q 258 199 311 199 z "},"c":{"ha":508,"x_min":40,"x_max":475,"o":"m 260 -11 q 140 4 189 -11 q 65 67 90 19 q 40 211 40 115 l 40 514 q 94 660 40 619 q 258 700 149 700 q 421 662 367 700 q 475 524 475 624 l 475 422 l 315 422 l 315 532 q 303 590 315 572 q 258 607 292 607 q 212 590 225 607 q 199 532 199 572 l 199 160 q 212 99 199 117 q 260 82 225 82 q 303 99 292 82 q 315 160 315 115 l 315 278 l 475 278 l 475 211 q 450 68 475 117 q 377 4 425 19 q 260 -11 329 -11 z "},"ć":{"ha":508,"x_min":40,"x_max":475,"o":"m 260 -11 q 140 4 189 -11 q 65 67 90 19 q 40 211 40 115 l 40 514 q 94 660 40 619 q 258 700 149 700 q 421 662 367 700 q 475 524 475 624 l 475 422 l 315 422 l 315 532 q 303 590 315 572 q 258 607 292 607 q 212 590 225 607 q 199 532 199 572 l 199 160 q 212 99 199 117 q 260 82 225 82 q 303 99 292 82 q 315 160 315 115 l 315 278 l 475 278 l 475 211 q 450 68 475 117 q 377 4 425 19 q 260 -11 329 -11 m 185 761 l 264 900 l 417 900 l 285 761 l 185 761 z "},"ˇ":{"ha":393,"x_min":4,"x_max":357,"o":"m 135 758 l 4 904 l 101 904 l 182 826 l 263 904 l 357 904 l 225 758 l 135 758 z "},"̌":{"ha":0,"x_min":4,"x_max":357,"o":"m 135 758 l 4 904 l 101 904 l 182 826 l 263 904 l 357 904 l 225 758 l 135 758 z "},"č":{"ha":508,"x_min":40,"x_max":475,"o":"m 260 -11 q 140 4 189 -11 q 65 67 90 19 q 40 211 40 115 l 40 514 q 94 660 40 619 q 258 700 149 700 q 421 662 367 700 q 475 524 475 624 l 475 422 l 315 422 l 315 532 q 303 590 315 572 q 258 607 292 607 q 212 590 225 607 q 199 532 199 572 l 199 160 q 212 99 199 117 q 260 82 225 82 q 303 99 292 82 q 315 160 315 115 l 315 278 l 475 278 l 475 211 q 450 68 475 117 q 377 4 425 19 q 260 -11 329 -11 m 208 758 l 78 904 l 175 904 l 256 826 l 336 904 l 431 904 l 299 758 l 208 758 z "},"ç":{"ha":508,"x_min":40,"x_max":475,"o":"m 260 -11 q 140 4 189 -11 q 65 67 90 19 q 40 211 40 115 l 40 514 q 94 660 40 619 q 258 700 149 700 q 421 662 367 700 q 475 524 475 624 l 475 422 l 315 422 l 315 532 q 303 590 315 572 q 258 607 292 607 q 212 590 225 607 q 199 532 199 572 l 199 160 q 212 99 199 117 q 260 82 225 82 q 303 99 292 82 q 315 160 315 115 l 315 278 l 475 278 l 475 211 q 450 68 475 117 q 377 4 425 19 q 260 -11 329 -11 m 249 -224 q 199 -214 222 -224 q 167 -199 176 -204 l 186 -149 q 213 -161 196 -156 q 242 -167 229 -167 q 275 -156 264 -167 q 286 -129 286 -146 q 277 -108 286 -115 q 254 -100 268 -100 q 239 -103 246 -100 q 226 -110 232 -106 l 182 -86 l 226 0 l 286 0 l 250 -72 l 240 -68 q 263 -59 250 -62 q 293 -56 276 -56 q 352 -79 331 -56 q 374 -131 374 -103 q 341 -197 374 -169 q 249 -224 308 -224 z "},"ċ":{"ha":508,"x_min":40,"x_max":475,"o":"m 260 -11 q 140 4 189 -11 q 65 67 90 19 q 40 211 40 115 l 40 514 q 94 660 40 619 q 258 700 149 700 q 421 662 367 700 q 475 524 475 624 l 475 422 l 315 422 l 315 532 q 303 590 315 572 q 258 607 292 607 q 212 590 225 607 q 199 532 199 572 l 199 160 q 212 99 199 117 q 260 82 225 82 q 303 99 292 82 q 315 160 315 115 l 315 278 l 475 278 l 475 211 q 450 68 475 117 q 377 4 425 19 q 260 -11 329 -11 m 254 763 q 197 785 221 763 q 172 842 174 808 q 197 898 172 875 q 256 921 221 921 q 313 898 289 921 q 338 842 338 875 q 314 785 339 808 q 254 763 289 763 z "},"¸":{"ha":281,"x_min":0,"x_max":207,"o":"m 82 -224 q 33 -214 56 -224 q 0 -199 10 -204 l 19 -149 q 46 -161 29 -156 q 75 -167 63 -167 q 108 -156 97 -167 q 119 -129 119 -146 q 110 -108 119 -115 q 88 -100 101 -100 q 72 -103 79 -100 q 60 -110 65 -106 l 15 -86 l 60 0 l 119 0 l 83 -72 l 74 -68 q 97 -59 83 -62 q 126 -56 110 -56 q 185 -79 164 -56 q 207 -131 207 -103 q 174 -197 207 -169 q 82 -224 142 -224 z "},"̧":{"ha":0,"x_min":0,"x_max":207,"o":"m 82 -224 q 33 -214 56 -224 q 0 -199 10 -204 l 19 -149 q 46 -161 29 -156 q 75 -167 63 -167 q 108 -156 97 -167 q 119 -129 119 -146 q 110 -108 119 -115 q 88 -100 101 -100 q 72 -103 79 -100 q 60 -110 65 -106 l 15 -86 l 60 0 l 119 0 l 83 -72 l 74 -68 q 97 -59 83 -62 q 126 -56 110 -56 q 185 -79 164 -56 q 207 -131 207 -103 q 174 -197 207 -169 q 82 -224 142 -224 z "},"¢":{"ha":508,"x_min":50,"x_max":458,"o":"m 207 -90 l 207 68 q 124 90 160 72 q 69 147 89 107 q 50 263 50 188 l 50 625 q 69 711 50 679 q 124 760 89 743 q 207 779 160 776 l 207 900 l 308 900 l 308 775 q 385 753 351 769 q 439 706 419 736 q 458 625 458 675 l 458 483 l 319 483 l 319 632 q 310 674 319 661 q 287 693 301 688 q 254 699 272 699 q 223 693 238 699 q 199 674 208 688 q 190 632 190 661 l 190 215 q 199 172 190 186 q 223 153 208 158 q 254 147 238 147 q 287 153 272 147 q 310 172 301 158 q 319 215 319 186 l 319 350 l 458 350 l 458 264 q 438 156 458 196 q 385 97 418 115 q 308 72 351 78 l 308 -90 l 207 -90 z "},"ч":{"ha":510,"x_min":35,"x_max":464,"o":"m 317 0 l 317 232 q 271 165 307 190 q 188 140 235 140 q 90 162 124 140 q 46 224 57 183 q 35 324 35 265 l 35 688 l 193 688 l 193 324 q 205 267 193 286 q 249 247 217 247 q 286 258 272 247 q 306 281 300 269 l 306 688 l 464 688 l 464 0 l 317 0 z "},"ˆ":{"ha":381,"x_min":14,"x_max":367,"o":"m 14 758 l 146 904 l 235 904 l 367 758 l 272 758 l 192 836 l 111 758 l 14 758 z "},"̂":{"ha":0,"x_min":14,"x_max":367,"o":"m 14 758 l 146 904 l 235 904 l 367 758 l 272 758 l 192 836 l 111 758 l 14 758 z "},":":{"ha":306,"x_min":69,"x_max":236,"o":"m 151 369 q 94 392 118 369 q 69 449 69 415 q 94 505 69 482 q 151 528 118 528 q 211 505 186 528 q 236 449 236 482 q 211 392 236 415 q 151 369 186 369 m 151 -12 q 94 10 118 -12 q 69 67 69 33 q 94 123 69 100 q 151 146 118 146 q 211 123 186 146 q 236 67 236 100 q 211 10 236 33 q 151 -12 186 -12 z "},",":{"ha":310,"x_min":71,"x_max":240,"o":"m 71 -204 q 108 -120 92 -158 q 124 -51 124 -82 q 112 -10 124 -25 q 88 19 100 6 q 75 60 75 33 q 99 113 75 90 q 160 136 122 136 q 218 113 196 136 q 240 51 240 89 q 225 -32 240 14 q 188 -124 210 -78 q 140 -204 165 -169 l 71 -204 z "},"̦":{"ha":0,"x_min":0,"x_max":144,"o":"m 0 -262 q 32 -208 19 -233 q 44 -167 44 -183 q 35 -150 44 -157 q 15 -133 25 -143 q 6 -104 6 -122 q 25 -68 6 -85 q 74 -51 44 -51 q 125 -69 106 -51 q 144 -112 144 -87 q 132 -160 144 -132 q 101 -215 119 -187 q 64 -262 83 -242 l 0 -262 z "},"̒":{"ha":0,"x_min":-3,"x_max":142,"o":"m 142 965 q 111 911 124 936 q 99 869 99 886 q 108 852 99 860 q 127 835 118 844 q 136 807 136 825 q 117 770 136 786 q 68 754 99 754 q 17 772 38 754 q -3 815 -3 789 q 10 863 -3 836 q 41 917 22 890 q 78 965 60 944 l 142 965 z "},"©":{"ha":833,"x_min":46,"x_max":824,"o":"m 435 42 q 283 72 354 42 q 159 156 213 101 q 76 281 106 210 q 46 432 46 351 q 76 583 46 513 q 159 708 106 654 q 283 791 213 761 q 435 821 354 821 q 586 791 515 821 q 710 708 657 761 q 794 583 764 654 q 824 432 824 513 q 794 281 824 351 q 710 156 764 210 q 586 72 657 101 q 435 42 515 42 m 435 103 q 563 128 503 103 q 667 200 622 154 q 736 306 711 246 q 761 432 761 365 q 717 597 761 522 q 600 715 674 671 q 435 760 526 760 q 309 734 368 760 q 205 663 250 708 q 134 559 160 618 q 108 432 108 500 q 134 306 108 365 q 205 200 160 246 q 309 128 250 154 q 435 103 368 103 m 438 208 q 355 219 389 208 q 304 261 321 229 q 288 356 288 293 l 288 554 q 324 651 288 625 q 436 678 361 678 q 548 653 511 678 q 585 561 585 628 l 585 494 l 478 494 l 478 568 q 469 604 478 593 q 436 615 460 615 q 403 604 413 615 q 394 568 394 593 l 394 321 q 403 283 394 293 q 438 272 413 272 q 469 283 460 272 q 478 321 478 293 l 478 400 l 585 400 l 585 357 q 568 261 585 293 q 518 219 551 229 q 438 208 485 208 z "},"¤":{"ha":724,"x_min":50,"x_max":674,"o":"m 129 113 l 56 186 l 186 317 q 163 365 171 340 q 154 418 154 390 q 185 519 154 474 l 50 654 l 124 726 l 261 590 q 360 615 307 615 q 458 590 413 615 l 594 728 l 668 654 l 535 519 q 565 418 565 474 q 536 319 565 364 l 674 183 l 600 110 l 460 249 q 410 229 435 236 q 360 222 385 222 q 261 246 306 222 l 129 113 m 360 328 q 424 354 397 328 q 450 417 450 381 q 424 482 450 456 q 360 508 397 508 q 295 483 321 508 q 269 417 269 457 q 295 354 269 381 q 360 328 321 328 z "},"d":{"ha":528,"x_min":40,"x_max":475,"o":"m 221 -10 q 143 -1 176 -10 q 86 31 110 8 q 51 94 63 53 q 40 201 40 136 l 40 536 q 53 613 40 582 q 86 662 65 643 q 134 689 107 681 q 193 697 161 697 q 276 680 249 697 q 317 640 304 663 l 317 875 l 475 875 l 475 0 l 368 0 l 351 65 q 331 34 346 51 q 290 3 315 17 q 221 -10 264 -10 m 257 81 q 290 88 278 81 q 308 109 301 96 q 315 139 314 122 q 317 175 317 156 l 317 569 q 309 583 315 576 q 290 596 303 590 q 258 601 278 601 q 226 595 238 601 q 208 578 214 589 q 200 552 201 567 q 199 519 199 538 l 199 163 q 202 120 199 139 q 218 91 206 101 q 257 81 231 81 z "},"†":{"ha":531,"x_min":50,"x_max":482,"o":"m 196 -168 l 196 439 l 50 439 l 50 526 l 196 526 l 196 813 l 333 813 l 333 526 l 482 526 l 482 439 l 333 439 l 333 -168 l 196 -168 z "},"‡":{"ha":538,"x_min":50,"x_max":488,"o":"m 199 -168 l 199 185 l 50 185 l 50 283 l 199 283 l 199 454 l 50 454 l 50 553 l 199 553 l 199 856 l 338 856 l 338 553 l 488 553 l 488 454 l 338 454 l 338 283 l 488 283 l 488 185 l 338 185 l 338 -168 l 199 -168 z "},"ď":{"ha":626,"x_min":40,"x_max":640,"o":"m 221 -10 q 143 -1 176 -10 q 86 31 110 8 q 51 94 63 53 q 40 201 40 136 l 40 536 q 53 613 40 582 q 86 662 65 643 q 134 689 107 681 q 193 697 161 697 q 276 680 249 697 q 317 640 304 663 l 317 875 l 475 875 l 475 0 l 368 0 l 351 65 q 331 34 346 51 q 290 3 315 17 q 221 -10 264 -10 m 257 81 q 290 88 278 81 q 308 109 301 96 q 315 139 314 122 q 317 175 317 156 l 317 569 q 309 583 315 576 q 290 596 303 590 q 258 601 278 601 q 226 595 238 601 q 208 578 214 589 q 200 552 201 567 q 199 519 199 538 l 199 163 q 202 120 199 139 q 218 91 206 101 q 257 81 231 81 m 510 676 l 543 879 l 639 879 l 567 676 l 510 676 z "},"đ":{"ha":522,"x_min":40,"x_max":517,"o":"m 193 739 l 193 800 l 517 800 l 517 739 l 193 739 m 221 -10 q 143 -1 176 -10 q 86 31 110 8 q 51 94 63 53 q 40 201 40 136 l 40 536 q 53 613 40 582 q 86 662 65 643 q 134 689 107 681 q 193 697 161 697 q 276 680 249 697 q 317 640 304 663 l 317 875 l 475 875 l 475 0 l 368 0 l 351 65 q 331 34 346 51 q 290 3 315 17 q 221 -10 264 -10 m 257 81 q 290 88 278 81 q 308 109 301 96 q 315 139 314 122 q 317 175 317 156 l 317 569 q 309 583 315 576 q 290 596 303 590 q 258 601 278 601 q 226 595 238 601 q 208 578 214 589 q 200 552 201 567 q 199 519 199 538 l 199 163 q 202 120 199 139 q 218 91 206 101 q 257 81 231 81 z "},"д":{"ha":749,"x_min":25,"x_max":722,"o":"m 25 -158 l 25 93 l 75 93 q 110 109 90 96 q 145 151 129 122 q 167 226 161 179 l 217 688 l 613 688 l 613 93 l 722 93 l 722 -158 l 590 -158 l 590 -31 l 157 -31 l 157 -158 l 25 -158 m 281 93 l 444 93 l 444 574 l 361 574 l 322 235 q 308 151 317 194 q 281 93 300 108 z "},"°":{"ha":457,"x_min":50,"x_max":407,"o":"m 228 474 q 93 524 136 474 q 50 646 50 575 q 91 769 50 718 q 231 821 132 821 q 336 797 297 821 q 391 735 375 774 q 407 649 407 696 q 363 523 407 572 q 228 474 319 474 m 229 544 q 298 573 272 544 q 324 647 324 601 q 299 720 324 689 q 228 751 275 751 q 160 721 185 751 q 135 646 135 690 q 162 573 135 601 q 229 544 189 544 z "},"¨":{"ha":326,"x_min":0,"x_max":299,"o":"m 67 763 q 19 781 38 763 q 0 826 0 799 q 19 870 0 853 q 67 888 38 888 q 113 870 94 888 q 131 826 131 853 q 113 781 131 799 q 67 763 94 763 m 233 763 q 186 781 206 763 q 167 826 167 799 q 186 870 167 853 q 233 888 206 888 q 280 870 261 888 q 299 826 299 853 q 280 781 299 799 q 233 763 261 763 z "},"̈":{"ha":0,"x_min":0,"x_max":299,"o":"m 67 763 q 19 781 38 763 q 0 826 0 799 q 19 870 0 853 q 67 888 38 888 q 113 870 94 888 q 131 826 131 853 q 113 781 131 799 q 67 763 94 763 m 233 763 q 186 781 206 763 q 167 826 167 799 q 186 870 167 853 q 233 888 206 888 q 280 870 261 888 q 299 826 299 853 q 280 781 299 799 q 233 763 261 763 z "},"÷":{"ha":538,"x_min":60,"x_max":478,"o":"m 60 346 l 60 453 l 478 453 l 478 346 l 60 346 m 268 99 q 214 119 236 99 q 192 171 192 139 q 214 223 192 201 q 268 244 236 244 q 324 223 301 244 q 346 171 346 201 q 324 119 346 139 q 268 99 301 99 m 268 547 q 214 569 236 547 q 192 621 192 590 q 214 674 192 653 q 268 694 236 694 q 322 674 300 694 q 344 621 344 653 q 322 569 344 590 q 268 547 300 547 z "},"∕":{"ha":613,"x_min":24,"x_max":601,"o":"m 24 -197 l 489 992 l 601 992 l 135 -197 l 24 -197 z "},"ђ":{"ha":596,"x_min":14,"x_max":553,"o":"m 401 -128 q 344 -122 368 -128 q 306 -110 321 -117 l 311 -36 q 324 -42 317 -40 q 342 -44 332 -44 q 383 -22 371 -44 q 394 47 394 1 l 394 408 q 380 460 393 442 q 333 479 367 479 q 299 472 311 479 q 282 451 288 464 q 274 425 276 438 q 271 401 272 413 l 271 0 l 110 0 l 110 686 l 14 686 l 14 771 l 110 771 l 110 875 l 271 875 l 271 771 l 396 771 l 396 686 l 271 686 l 271 511 q 313 557 285 538 q 393 576 342 576 q 475 563 439 576 q 532 513 511 549 q 553 413 553 478 l 553 88 q 542 -19 553 22 q 510 -85 531 -61 q 463 -119 490 -110 q 401 -128 436 -128 z "},"$":{"ha":492,"x_min":39,"x_max":465,"o":"m 215 -83 l 215 68 q 108 97 146 74 q 54 165 69 121 q 39 275 39 210 l 39 325 l 190 325 l 190 242 q 192 196 190 217 q 207 164 194 175 q 249 153 219 153 q 287 163 275 153 q 301 190 299 174 q 304 222 304 207 l 304 275 q 291 330 304 310 q 253 365 278 350 q 192 394 228 379 q 124 428 156 408 q 73 481 92 449 q 54 565 54 514 l 54 606 q 90 727 54 682 q 215 781 126 772 l 215 910 l 301 910 l 301 783 q 431 727 396 775 q 465 586 465 679 l 465 535 l 321 535 l 321 614 q 308 678 321 660 q 264 697 294 697 q 218 679 229 697 q 207 635 207 661 l 207 582 q 225 526 207 546 q 272 493 243 506 q 336 467 301 481 q 400 434 371 453 q 447 384 429 415 q 465 300 465 353 l 465 258 q 451 167 465 207 q 402 101 438 126 q 301 69 367 76 l 301 -83 l 215 -83 z "},"˙":{"ha":160,"x_min":0,"x_max":167,"o":"m 82 763 q 25 785 49 763 q 0 842 1 808 q 24 898 0 875 q 83 921 49 921 q 141 898 117 921 q 165 842 165 875 q 142 785 167 808 q 82 763 117 763 z "},"̇":{"ha":0,"x_min":0,"x_max":167,"o":"m 82 763 q 25 785 49 763 q 0 842 1 808 q 24 898 0 875 q 83 921 49 921 q 141 898 117 921 q 165 842 165 875 q 142 785 167 808 q 82 763 117 763 z "},"̣":{"ha":0,"x_min":14,"x_max":147,"o":"m 81 -181 q 33 -161 51 -181 q 14 -117 14 -142 q 33 -70 14 -89 q 81 -51 51 -51 q 127 -70 107 -51 q 147 -117 147 -89 q 127 -161 147 -142 q 81 -181 107 -181 z "},"↓":{"ha":738,"x_min":50,"x_max":688,"o":"m 371 -1 l 50 383 l 126 461 l 304 271 l 308 1010 l 433 1010 l 432 274 l 611 460 l 688 383 l 371 -1 z "},"ѕ":{"ha":513,"x_min":33,"x_max":478,"o":"m 253 -15 q 140 -1 183 -15 q 73 41 96 14 q 42 107 50 68 q 33 193 33 146 l 33 242 l 192 242 l 192 160 q 194 114 192 135 q 210 82 197 93 q 251 71 222 71 q 290 81 278 71 q 306 108 303 92 q 308 140 308 125 l 308 193 q 295 249 308 228 q 255 283 282 269 q 190 311 228 296 q 121 347 153 326 q 69 399 89 367 q 49 482 49 432 l 49 522 q 96 656 49 610 q 267 701 143 701 q 394 680 349 701 q 459 615 440 658 q 478 504 478 572 l 478 453 l 325 453 l 325 532 q 312 597 325 578 q 268 615 299 615 q 222 597 233 615 q 210 553 210 579 l 210 499 q 228 443 210 464 q 278 410 247 422 q 343 385 308 399 q 410 352 379 371 q 459 302 440 333 q 478 218 478 271 l 478 176 q 459 75 478 118 q 392 8 440 32 q 253 -15 343 -15 z "},"џ":{"ha":532,"x_min":46,"x_max":486,"o":"m 207 -143 l 207 0 l 46 0 l 46 688 l 204 688 l 204 114 l 328 114 l 328 688 l 486 688 l 486 0 l 322 0 l 322 -143 l 207 -143 z "},"e":{"ha":508,"x_min":40,"x_max":475,"o":"m 261 -11 q 140 5 189 -11 q 65 69 90 21 q 40 214 40 117 l 40 524 q 94 661 40 624 q 258 699 149 699 q 421 661 367 699 q 475 524 475 624 l 475 336 l 199 336 l 199 149 q 212 90 199 107 q 260 74 225 74 q 303 90 292 74 q 315 149 315 106 l 315 258 l 475 258 l 475 215 q 450 69 475 118 q 377 5 425 21 q 261 -11 329 -11 m 199 408 l 315 408 l 315 542 q 303 599 315 582 q 258 615 292 615 q 212 599 225 615 q 199 542 199 582 l 199 408 z "},"é":{"ha":508,"x_min":40,"x_max":475,"o":"m 261 -11 q 140 5 189 -11 q 65 69 90 21 q 40 214 40 117 l 40 524 q 94 661 40 624 q 258 699 149 699 q 421 661 367 699 q 475 524 475 624 l 475 336 l 199 336 l 199 149 q 212 90 199 107 q 260 74 225 74 q 303 90 292 74 q 315 149 315 106 l 315 258 l 475 258 l 475 215 q 450 69 475 118 q 377 5 425 21 q 261 -11 329 -11 m 199 408 l 315 408 l 315 542 q 303 599 315 582 q 258 615 292 615 q 212 599 225 615 q 199 542 199 582 l 199 408 m 185 761 l 264 900 l 417 900 l 285 761 l 185 761 z "},"ě":{"ha":508,"x_min":40,"x_max":475,"o":"m 261 -11 q 140 5 189 -11 q 65 69 90 21 q 40 214 40 117 l 40 524 q 94 661 40 624 q 258 699 149 699 q 421 661 367 699 q 475 524 475 624 l 475 336 l 199 336 l 199 149 q 212 90 199 107 q 260 74 225 74 q 303 90 292 74 q 315 149 315 106 l 315 258 l 475 258 l 475 215 q 450 69 475 118 q 377 5 425 21 q 261 -11 329 -11 m 199 408 l 315 408 l 315 542 q 303 599 315 582 q 258 615 292 615 q 212 599 225 615 q 199 542 199 582 l 199 408 m 208 758 l 78 904 l 175 904 l 256 826 l 336 904 l 431 904 l 299 758 l 208 758 z "},"ê":{"ha":508,"x_min":40,"x_max":475,"o":"m 261 -11 q 140 5 189 -11 q 65 69 90 21 q 40 214 40 117 l 40 524 q 94 661 40 624 q 258 699 149 699 q 421 661 367 699 q 475 524 475 624 l 475 336 l 199 336 l 199 149 q 212 90 199 107 q 260 74 225 74 q 303 90 292 74 q 315 149 315 106 l 315 258 l 475 258 l 475 215 q 450 69 475 118 q 377 5 425 21 q 261 -11 329 -11 m 199 408 l 315 408 l 315 542 q 303 599 315 582 q 258 615 292 615 q 212 599 225 615 q 199 542 199 582 l 199 408 m 78 758 l 210 904 l 299 904 l 431 758 l 336 758 l 256 836 l 175 758 l 78 758 z "},"ế":{"ha":508,"x_min":40,"x_max":656,"o":"m 261 -11 q 140 5 189 -11 q 65 69 90 21 q 40 214 40 117 l 40 524 q 94 661 40 624 q 258 699 149 699 q 421 661 367 699 q 475 524 475 624 l 475 336 l 199 336 l 199 149 q 212 90 199 107 q 260 74 225 74 q 303 90 292 74 q 315 149 315 106 l 315 258 l 475 258 l 475 215 q 450 69 475 118 q 377 5 425 21 q 261 -11 329 -11 m 199 408 l 315 408 l 315 542 q 303 599 315 582 q 258 615 292 615 q 212 599 225 615 q 199 542 199 582 l 199 408 m 78 758 l 210 904 l 299 904 l 431 758 l 336 758 l 256 836 l 175 758 l 78 758 m 424 836 l 503 975 l 656 975 l 524 836 l 424 836 z "},"ệ":{"ha":508,"x_min":40,"x_max":475,"o":"m 261 -11 q 140 5 189 -11 q 65 69 90 21 q 40 214 40 117 l 40 524 q 94 661 40 624 q 258 699 149 699 q 421 661 367 699 q 475 524 475 624 l 475 336 l 199 336 l 199 149 q 212 90 199 107 q 260 74 225 74 q 303 90 292 74 q 315 149 315 106 l 315 258 l 475 258 l 475 215 q 450 69 475 118 q 377 5 425 21 q 261 -11 329 -11 m 199 408 l 315 408 l 315 542 q 303 599 315 582 q 258 615 292 615 q 212 599 225 615 q 199 542 199 582 l 199 408 m 254 -181 q 206 -161 225 -181 q 188 -117 188 -142 q 206 -70 188 -89 q 254 -51 225 -51 q 301 -70 281 -51 q 321 -117 321 -89 q 301 -161 321 -142 q 254 -181 281 -181 m 78 758 l 210 904 l 299 904 l 431 758 l 336 758 l 256 836 l 175 758 l 78 758 z "},"ề":{"ha":508,"x_min":40,"x_max":569,"o":"m 261 -11 q 140 5 189 -11 q 65 69 90 21 q 40 214 40 117 l 40 524 q 94 661 40 624 q 258 699 149 699 q 421 661 367 699 q 475 524 475 624 l 475 336 l 199 336 l 199 149 q 212 90 199 107 q 260 74 225 74 q 303 90 292 74 q 315 149 315 106 l 315 258 l 475 258 l 475 215 q 450 69 475 118 q 377 5 425 21 q 261 -11 329 -11 m 199 408 l 315 408 l 315 542 q 303 599 315 582 q 258 615 292 615 q 212 599 225 615 q 199 542 199 582 l 199 408 m 78 758 l 210 904 l 299 904 l 431 758 l 336 758 l 256 836 l 175 758 l 78 758 m 471 836 l 338 975 l 490 975 l 569 836 l 471 836 z "},"ể":{"ha":508,"x_min":40,"x_max":597,"o":"m 261 -11 q 140 5 189 -11 q 65 69 90 21 q 40 214 40 117 l 40 524 q 94 661 40 624 q 258 699 149 699 q 421 661 367 699 q 475 524 475 624 l 475 336 l 199 336 l 199 149 q 212 90 199 107 q 260 74 225 74 q 303 90 292 74 q 315 149 315 106 l 315 258 l 475 258 l 475 215 q 450 69 475 118 q 377 5 425 21 q 261 -11 329 -11 m 199 408 l 315 408 l 315 542 q 303 599 315 582 q 258 615 292 615 q 212 599 225 615 q 199 542 199 582 l 199 408 m 78 758 l 210 904 l 299 904 l 431 758 l 336 758 l 256 836 l 175 758 l 78 758 m 449 838 l 449 854 q 463 885 449 875 q 493 905 478 896 q 508 931 508 914 l 508 939 q 503 960 508 950 q 482 969 497 969 q 457 940 460 969 l 386 951 q 415 1008 390 989 q 489 1028 440 1028 q 571 1012 543 1028 q 599 942 599 996 l 599 936 q 582 894 599 906 q 549 875 565 882 q 533 851 533 868 l 533 838 l 449 838 z "},"ễ":{"ha":508,"x_min":40,"x_max":475,"o":"m 261 -11 q 140 5 189 -11 q 65 69 90 21 q 40 214 40 117 l 40 524 q 94 661 40 624 q 258 699 149 699 q 421 661 367 699 q 475 524 475 624 l 475 336 l 199 336 l 199 149 q 212 90 199 107 q 260 74 225 74 q 303 90 292 74 q 315 149 315 106 l 315 258 l 475 258 l 475 215 q 450 69 475 118 q 377 5 425 21 q 261 -11 329 -11 m 199 408 l 315 408 l 315 542 q 303 599 315 582 q 258 615 292 615 q 212 599 225 615 q 199 542 199 582 l 199 408 m 78 758 l 210 904 l 299 904 l 431 758 l 336 758 l 256 836 l 175 758 l 78 758 m 318 938 q 279 945 297 938 q 242 964 261 953 q 213 981 228 974 q 181 988 197 988 q 152 974 163 988 q 140 939 142 961 l 93 939 q 119 1027 94 993 q 182 1061 143 1061 q 224 1053 204 1061 q 260 1035 243 1046 q 290 1019 275 1026 q 319 1013 304 1013 q 349 1025 339 1013 q 363 1057 360 1038 l 414 1057 q 399 991 414 1018 q 363 951 385 964 q 318 938 340 938 z "},"ë":{"ha":508,"x_min":40,"x_max":475,"o":"m 261 -11 q 140 5 189 -11 q 65 69 90 21 q 40 214 40 117 l 40 524 q 94 661 40 624 q 258 699 149 699 q 421 661 367 699 q 475 524 475 624 l 475 336 l 199 336 l 199 149 q 212 90 199 107 q 260 74 225 74 q 303 90 292 74 q 315 149 315 106 l 315 258 l 475 258 l 475 215 q 450 69 475 118 q 377 5 425 21 q 261 -11 329 -11 m 199 408 l 315 408 l 315 542 q 303 599 315 582 q 258 615 292 615 q 212 599 225 615 q 199 542 199 582 l 199 408 m 172 763 q 124 781 143 763 q 106 826 106 799 q 124 870 106 853 q 172 888 143 888 q 218 870 200 888 q 236 826 236 853 q 218 781 236 799 q 172 763 200 763 m 339 763 q 292 781 311 763 q 272 826 272 799 q 292 870 272 853 q 339 888 311 888 q 385 870 367 888 q 404 826 404 853 q 385 781 404 799 q 339 763 367 763 z "},"ė":{"ha":508,"x_min":40,"x_max":475,"o":"m 261 -11 q 140 5 189 -11 q 65 69 90 21 q 40 214 40 117 l 40 524 q 94 661 40 624 q 258 699 149 699 q 421 661 367 699 q 475 524 475 624 l 475 336 l 199 336 l 199 149 q 212 90 199 107 q 260 74 225 74 q 303 90 292 74 q 315 149 315 106 l 315 258 l 475 258 l 475 215 q 450 69 475 118 q 377 5 425 21 q 261 -11 329 -11 m 199 408 l 315 408 l 315 542 q 303 599 315 582 q 258 615 292 615 q 212 599 225 615 q 199 542 199 582 l 199 408 m 254 763 q 197 785 221 763 q 172 842 174 808 q 197 898 172 875 q 256 921 221 921 q 313 898 289 921 q 338 842 338 875 q 314 785 339 808 q 254 763 289 763 z "},"ẹ":{"ha":508,"x_min":40,"x_max":475,"o":"m 261 -11 q 140 5 189 -11 q 65 69 90 21 q 40 214 40 117 l 40 524 q 94 661 40 624 q 258 699 149 699 q 421 661 367 699 q 475 524 475 624 l 475 336 l 199 336 l 199 149 q 212 90 199 107 q 260 74 225 74 q 303 90 292 74 q 315 149 315 106 l 315 258 l 475 258 l 475 215 q 450 69 475 118 q 377 5 425 21 q 261 -11 329 -11 m 199 408 l 315 408 l 315 542 q 303 599 315 582 q 258 615 292 615 q 212 599 225 615 q 199 542 199 582 l 199 408 m 254 -181 q 206 -161 225 -181 q 188 -117 188 -142 q 206 -70 188 -89 q 254 -51 225 -51 q 301 -70 281 -51 q 321 -117 321 -89 q 301 -161 321 -142 q 254 -181 281 -181 z "},"ф":{"ha":818,"x_min":40,"x_max":778,"o":"m 332 -160 l 332 14 q 284 -3 311 4 q 219 -10 257 -10 q 77 42 114 -10 q 40 189 40 94 l 40 461 q 56 561 40 519 q 110 625 71 603 q 222 647 149 647 q 291 639 263 647 q 332 617 319 631 l 332 821 l 489 821 l 489 618 q 528 640 499 632 q 594 647 558 647 q 708 625 668 647 q 763 561 749 603 q 778 461 778 519 l 778 189 q 741 42 778 94 q 599 -10 704 -10 q 536 -3 563 -10 q 489 15 510 4 l 489 -160 l 332 -160 m 260 74 q 301 84 285 74 q 324 112 317 94 q 332 147 332 129 l 332 465 q 327 519 332 497 q 306 552 322 540 q 261 564 290 564 q 219 553 232 564 q 203 519 207 542 q 200 460 200 496 l 200 158 q 205 113 200 132 q 223 84 210 94 q 260 74 236 74 m 564 74 q 600 84 588 74 q 617 113 613 94 q 622 158 622 132 l 622 460 q 619 517 622 494 q 603 551 615 539 q 563 564 590 564 q 519 553 535 564 q 496 522 503 542 q 489 471 489 501 l 489 157 q 497 115 489 135 q 521 85 504 96 q 564 74 538 74 z "},"è":{"ha":508,"x_min":40,"x_max":475,"o":"m 261 -11 q 140 5 189 -11 q 65 69 90 21 q 40 214 40 117 l 40 524 q 94 661 40 624 q 258 699 149 699 q 421 661 367 699 q 475 524 475 624 l 475 336 l 199 336 l 199 149 q 212 90 199 107 q 260 74 225 74 q 303 90 292 74 q 315 149 315 106 l 315 258 l 475 258 l 475 215 q 450 69 475 118 q 377 5 425 21 q 261 -11 329 -11 m 199 408 l 315 408 l 315 542 q 303 599 315 582 q 258 615 292 615 q 212 599 225 615 q 199 542 199 582 l 199 408 m 233 761 l 100 900 l 253 900 l 332 761 l 233 761 z "},"ẻ":{"ha":508,"x_min":40,"x_max":475,"o":"m 261 -11 q 140 5 189 -11 q 65 69 90 21 q 40 214 40 117 l 40 524 q 94 661 40 624 q 258 699 149 699 q 421 661 367 699 q 475 524 475 624 l 475 336 l 199 336 l 199 149 q 212 90 199 107 q 260 74 225 74 q 303 90 292 74 q 315 149 315 106 l 315 258 l 475 258 l 475 215 q 450 69 475 118 q 377 5 425 21 q 261 -11 329 -11 m 199 408 l 315 408 l 315 542 q 303 599 315 582 q 258 615 292 615 q 212 599 225 615 q 199 542 199 582 l 199 408 m 210 763 l 210 779 q 224 810 210 800 q 254 830 239 821 q 269 856 269 839 l 269 864 q 264 885 269 875 q 243 894 258 894 q 218 865 221 894 l 147 876 q 176 933 151 914 q 250 953 201 953 q 332 937 304 953 q 360 867 360 921 l 360 861 q 343 819 360 831 q 310 800 326 807 q 294 776 294 793 l 294 763 l 210 763 z "},"л":{"ha":604,"x_min":18,"x_max":560,"o":"m 18 0 l 18 83 q 67 114 44 83 q 92 189 89 144 l 135 688 l 560 688 l 560 0 l 397 0 l 397 575 l 296 575 l 253 147 q 247 99 250 125 q 232 51 244 74 q 194 15 219 29 q 119 0 168 0 l 18 0 z "},"…":{"ha":810,"x_min":69,"x_max":740,"o":"m 151 -12 q 94 10 118 -12 q 69 67 69 33 q 94 123 69 100 q 151 146 118 146 q 211 123 186 146 q 236 67 236 100 q 211 10 236 33 q 151 -12 186 -12 m 406 -12 q 348 10 372 -12 q 324 67 324 33 q 348 123 324 100 q 406 146 372 146 q 465 123 440 146 q 490 67 490 100 q 465 10 490 33 q 406 -12 440 -12 m 656 -12 q 598 10 622 -12 q 574 67 574 33 q 598 123 574 100 q 656 146 622 146 q 715 123 690 146 q 740 67 740 100 q 715 10 740 33 q 656 -12 690 -12 z "},"м":{"ha":697,"x_min":46,"x_max":653,"o":"m 46 0 l 46 688 l 242 688 l 350 199 l 458 688 l 653 688 l 653 0 l 524 0 l 524 482 l 404 0 l 296 0 l 175 482 l 175 0 l 46 0 z "},"ē":{"ha":508,"x_min":40,"x_max":475,"o":"m 261 -11 q 140 5 189 -11 q 65 69 90 21 q 40 214 40 117 l 40 524 q 94 661 40 624 q 258 699 149 699 q 421 661 367 699 q 475 524 475 624 l 475 336 l 199 336 l 199 149 q 212 90 199 107 q 260 74 225 74 q 303 90 292 74 q 315 149 315 106 l 315 258 l 475 258 l 475 215 q 450 69 475 118 q 377 5 425 21 q 261 -11 329 -11 m 199 408 l 315 408 l 315 542 q 303 599 315 582 q 258 615 292 615 q 212 599 225 615 q 199 542 199 582 l 199 408 m 111 778 l 111 858 l 397 858 l 397 778 l 111 778 z "},"—":{"ha":907,"x_min":38,"x_max":869,"o":"m 38 333 l 38 440 l 869 440 l 869 333 l 38 333 z "},"∅":{"ha":572,"x_min":32,"x_max":542,"o":"m 32 76 l 510 786 l 542 786 l 63 76 l 32 76 m 304 -18 q 184 10 236 -17 q 103 98 132 38 q 74 258 74 158 l 74 592 q 138 772 74 714 q 307 831 203 831 q 470 772 407 831 q 533 592 533 714 l 533 260 q 505 96 533 157 q 424 8 476 35 q 304 -18 372 -18 m 303 78 q 353 102 333 78 q 374 175 374 126 l 374 636 q 353 709 374 685 q 303 733 333 733 q 255 709 275 733 q 235 636 235 685 l 235 175 q 255 102 235 126 q 303 78 275 78 z "},"н":{"ha":531,"x_min":46,"x_max":485,"o":"m 46 0 l 46 688 l 204 688 l 204 417 l 329 417 l 329 688 l 485 688 l 485 0 l 329 0 l 329 297 l 204 297 l 204 0 l 46 0 z "},"–":{"ha":593,"x_min":38,"x_max":557,"o":"m 38 333 l 38 440 l 557 440 l 557 333 l 38 333 z "},"ŋ":{"ha":526,"x_min":46,"x_max":481,"o":"m 263 -158 q 229 -156 246 -158 q 197 -151 213 -154 l 197 -71 q 208 -71 199 -71 q 229 -72 218 -71 q 242 -72 240 -72 q 302 -56 282 -72 q 322 -4 322 -39 l 322 506 q 319 546 322 528 q 303 575 315 564 q 264 586 292 586 q 233 581 246 586 q 214 567 221 575 q 204 550 207 558 l 204 0 l 46 0 l 46 688 l 179 688 l 193 604 q 244 673 207 649 q 324 697 281 697 q 424 675 390 697 q 469 612 458 653 q 481 515 481 571 l 481 53 q 450 -78 481 -32 q 370 -142 419 -125 q 263 -158 321 -160 z "},"ę":{"ha":508,"x_min":40,"x_max":475,"o":"m 261 -11 q 140 5 189 -11 q 65 69 90 21 q 40 214 40 117 l 40 524 q 94 661 40 624 q 258 699 149 699 q 421 661 367 699 q 475 524 475 624 l 475 336 l 199 336 l 199 149 q 212 90 199 107 q 260 74 225 74 q 303 90 292 74 q 315 149 315 106 l 315 258 l 475 258 l 475 215 q 450 69 475 118 q 377 5 425 21 q 261 -11 329 -11 m 199 408 l 315 408 l 315 542 q 303 599 315 582 q 258 615 292 615 q 212 599 225 615 q 199 542 199 582 l 199 408 m 278 -200 q 196 -173 228 -200 q 164 -111 164 -146 q 195 -39 164 -72 q 274 1 226 -6 l 339 0 q 284 -39 301 -12 q 267 -89 267 -65 q 284 -129 267 -115 q 318 -143 301 -143 q 337 -140 329 -143 q 349 -137 344 -137 l 367 -179 q 340 -192 360 -183 q 278 -200 319 -200 z "},"=":{"ha":614,"x_min":69,"x_max":544,"o":"m 69 472 l 69 579 l 544 579 l 544 472 l 69 472 m 69 189 l 69 297 l 544 297 l 544 189 l 69 189 z "},"р":{"ha":528,"x_min":51,"x_max":486,"o":"m 51 -161 l 51 688 l 208 688 l 208 633 q 247 678 222 657 q 329 699 272 699 q 413 683 378 699 q 467 631 447 667 q 486 535 486 596 l 486 201 q 469 78 486 125 q 418 12 453 32 q 329 -8 383 -8 q 252 9 281 -8 q 210 49 224 26 l 210 -161 l 51 -161 m 269 81 q 301 87 290 81 q 319 104 313 93 q 326 130 325 115 q 328 163 328 144 l 328 518 q 326 551 328 536 q 319 578 325 567 q 301 594 313 589 q 269 600 290 600 q 238 594 250 600 q 220 577 226 588 q 212 554 214 567 q 210 532 210 542 l 210 158 q 215 117 210 135 q 232 90 219 99 q 269 81 244 81 z "},"э":{"ha":531,"x_min":46,"x_max":486,"o":"m 267 -14 q 140 5 189 -14 q 69 74 92 24 q 46 215 46 124 l 46 242 l 204 242 l 204 151 q 208 108 204 126 q 226 79 213 89 q 267 69 240 69 q 307 80 294 69 q 324 109 319 90 q 328 151 328 128 l 328 308 l 128 308 l 128 410 l 328 410 l 328 532 q 324 576 328 557 q 307 605 319 594 q 267 615 294 615 q 226 605 240 615 q 208 576 213 594 q 204 532 204 558 l 204 475 l 46 475 l 46 515 q 68 619 46 579 q 139 679 90 660 q 267 699 188 699 q 367 688 326 699 q 435 653 408 676 q 474 597 461 631 q 486 517 486 563 l 486 214 q 473 101 486 146 q 433 32 460 57 q 366 -3 407 7 q 267 -14 325 -14 z "},"с":{"ha":508,"x_min":40,"x_max":475,"o":"m 260 -11 q 140 4 189 -11 q 65 67 90 19 q 40 211 40 115 l 40 514 q 94 660 40 619 q 258 700 149 700 q 421 662 367 700 q 475 524 475 624 l 475 422 l 315 422 l 315 532 q 303 590 315 572 q 258 607 292 607 q 212 590 225 607 q 199 532 199 572 l 199 160 q 212 99 199 117 q 260 82 225 82 q 303 99 292 82 q 315 160 315 115 l 315 278 l 475 278 l 475 211 q 450 68 475 117 q 377 4 425 19 q 260 -11 329 -11 z "},"ð":{"ha":518,"x_min":40,"x_max":475,"o":"m 256 -11 q 171 -4 210 -11 q 103 24 132 3 q 57 89 74 44 q 40 210 40 133 l 40 496 q 66 606 40 568 q 136 658 92 644 q 239 672 181 672 q 281 668 260 672 q 314 653 301 664 q 303 737 313 700 q 272 795 294 774 q 204 817 249 817 q 142 813 171 817 q 82 801 114 808 l 82 903 q 142 914 107 908 q 232 919 178 919 q 359 899 311 919 q 432 831 407 878 q 466 707 457 783 q 475 521 475 631 l 475 231 q 462 115 475 161 q 422 41 449 68 q 353 1 394 14 q 256 -11 311 -11 m 256 72 q 293 85 281 72 q 310 119 306 97 q 315 164 315 140 l 315 532 q 310 558 315 544 q 292 580 304 571 q 254 589 279 589 q 219 580 232 589 q 203 554 207 571 q 199 513 199 538 l 199 143 q 204 106 199 119 q 219 85 210 92 q 238 75 228 78 q 256 72 247 72 m 189 703 l 153 747 l 411 960 l 449 915 l 189 703 z "},"ẽ":{"ha":508,"x_min":40,"x_max":475,"o":"m 261 -11 q 140 5 189 -11 q 65 69 90 21 q 40 214 40 117 l 40 524 q 94 661 40 624 q 258 699 149 699 q 421 661 367 699 q 475 524 475 624 l 475 336 l 199 336 l 199 149 q 212 90 199 107 q 260 74 225 74 q 303 90 292 74 q 315 149 315 106 l 315 258 l 475 258 l 475 215 q 450 69 475 118 q 377 5 425 21 q 261 -11 329 -11 m 199 408 l 315 408 l 315 542 q 303 599 315 582 q 258 615 292 615 q 212 599 225 615 q 199 542 199 582 l 199 408 m 318 765 q 279 773 297 765 q 242 792 261 781 q 213 808 228 801 q 181 815 197 815 q 152 802 163 815 q 140 767 142 789 l 93 767 q 119 855 94 821 q 182 889 143 889 q 224 881 204 889 q 260 863 243 874 q 290 847 275 854 q 319 840 304 840 q 349 853 339 840 q 363 885 360 865 l 414 885 q 399 819 414 846 q 363 778 385 792 q 318 765 340 765 z "},"€":{"ha":651,"x_min":40,"x_max":601,"o":"m 374 -17 q 255 -1 307 -17 q 174 66 203 15 q 146 217 146 117 l 146 319 l 42 319 l 68 378 l 146 378 l 146 438 l 40 438 l 67 496 l 146 496 l 146 646 q 174 758 146 718 q 255 815 203 799 q 374 831 307 831 q 493 815 442 831 q 573 758 544 799 q 601 646 601 718 l 601 599 l 440 599 l 440 654 q 432 705 440 688 q 409 728 424 722 q 374 733 394 733 q 339 728 354 733 q 315 705 324 722 q 307 654 307 688 l 307 496 l 506 496 l 476 438 l 307 438 l 307 378 l 451 378 l 424 319 l 307 319 l 307 157 q 315 108 307 125 q 339 84 324 90 q 374 78 354 78 q 409 84 394 78 q 432 108 424 90 q 440 157 440 125 l 440 249 l 601 249 l 601 218 q 573 66 601 117 q 493 -1 544 15 q 374 -17 442 -17 z "},"!":{"ha":304,"x_min":64,"x_max":244,"o":"m 100 264 l 72 515 l 64 875 l 236 875 l 228 518 l 200 264 l 100 264 m 156 -10 q 92 14 118 -10 q 67 72 67 38 q 92 130 67 106 q 156 154 118 154 q 219 130 193 154 q 244 72 244 106 q 219 14 244 38 q 156 -10 193 -10 z "},"¡":{"ha":304,"x_min":64,"x_max":244,"o":"m 100 415 l 200 415 l 228 161 l 236 -196 l 64 -196 l 72 164 l 100 415 m 156 689 q 219 665 193 689 q 244 607 244 642 q 219 549 244 574 q 156 525 193 525 q 92 549 118 525 q 67 607 67 574 q 92 665 67 642 q 156 689 118 689 z "},"f":{"ha":369,"x_min":26,"x_max":360,"o":"m 71 0 l 71 571 l 26 571 l 26 661 l 71 661 l 71 726 q 83 806 71 775 q 118 851 96 836 q 167 872 140 867 q 222 878 193 878 q 278 876 249 878 q 330 873 307 875 q 360 871 353 871 l 360 794 q 334 797 360 794 q 278 800 308 800 q 239 776 249 800 q 229 726 229 751 l 229 661 l 360 661 l 360 571 l 229 571 l 229 0 l 71 0 z "},"ﬁ":{"ha":631,"x_min":26,"x_max":583,"o":"m 71 0 l 71 571 l 26 571 l 26 661 l 71 661 l 71 726 q 83 806 71 775 q 118 851 96 836 q 167 872 140 867 q 222 878 193 878 q 278 876 249 878 q 330 873 307 875 q 360 871 353 871 l 360 794 q 334 797 360 794 q 278 800 308 800 q 239 776 249 800 q 229 726 229 751 l 229 661 l 360 661 l 360 571 l 229 571 l 229 0 l 71 0 m 421 0 l 421 688 l 579 688 l 579 0 l 421 0 m 500 763 q 443 785 467 763 q 418 842 419 808 q 442 898 418 875 q 501 921 467 921 q 559 898 535 921 q 583 842 583 875 q 560 785 585 808 q 500 763 535 763 z "},"ﬂ":{"ha":631,"x_min":26,"x_max":579,"o":"m 71 0 l 71 571 l 26 571 l 26 661 l 71 661 l 71 726 q 83 806 71 775 q 118 851 96 836 q 167 872 140 867 q 222 878 193 878 q 278 876 249 878 q 330 873 307 875 q 360 871 353 871 l 360 794 q 334 797 360 794 q 278 800 308 800 q 239 776 249 800 q 229 726 229 751 l 229 661 l 360 661 l 360 571 l 229 571 l 229 0 l 71 0 m 421 0 l 421 878 l 579 878 l 579 0 l 421 0 z "},"ƒ":{"ha":500,"x_min":-119,"x_max":483,"o":"m -1 -200 q -44 -199 -19 -200 q -91 -196 -69 -197 q -119 -193 -112 -194 l -110 -100 l -35 -108 q 24 -99 3 -110 q 57 -59 46 -89 q 75 28 68 -29 l 135 535 l 53 535 l 63 621 l 144 621 l 158 719 q 214 838 174 803 q 310 874 254 874 q 349 873 324 874 q 400 872 374 872 q 449 869 426 871 q 483 867 472 868 l 474 775 q 435 781 464 778 q 374 785 406 785 q 324 757 336 785 q 308 694 313 729 l 299 621 l 440 621 l 432 535 l 290 535 l 225 -18 q 158 -156 214 -111 q -1 -200 101 -200 z "},"⁴":{"ha":361,"x_min":11,"x_max":339,"o":"m 186 328 l 186 425 l 11 425 l 11 507 l 185 821 l 285 821 l 285 493 l 339 493 l 339 425 l 285 425 l 285 328 l 186 328 m 93 493 l 186 493 l 186 657 l 93 493 z "},"⁄":{"ha":525,"x_min":-139,"x_max":521,"o":"m -139 0 l 422 818 l 521 818 l -43 0 l -139 0 z "},"₣":{"ha":514,"x_min":31,"x_max":474,"o":"m 96 0 l 96 161 l 31 161 l 31 233 l 96 233 l 96 821 l 474 821 l 474 707 l 264 707 l 264 488 l 442 488 l 442 361 l 264 361 l 264 233 l 368 233 l 368 161 l 264 161 l 264 0 l 96 0 z "},"g":{"ha":522,"x_min":40,"x_max":475,"o":"m 258 -165 q 211 -164 239 -165 q 156 -160 183 -162 q 110 -155 129 -157 q 88 -151 92 -153 l 88 -67 q 142 -73 106 -69 q 203 -76 178 -76 q 239 -74 219 -76 q 276 -61 258 -71 q 305 -31 293 -51 q 317 25 317 -11 l 317 124 q 297 87 310 107 q 258 53 283 67 q 188 39 233 39 q 133 44 160 39 q 85 69 106 50 q 53 131 65 89 q 40 246 40 174 l 40 539 q 55 622 40 590 q 92 669 69 653 q 140 690 114 685 q 189 696 165 696 q 267 685 232 696 q 317 635 303 675 l 333 686 l 475 686 l 475 103 q 466 5 475 53 q 435 -81 457 -43 q 370 -142 413 -119 q 258 -165 328 -165 m 256 133 q 292 145 279 133 q 310 178 306 157 q 315 224 315 200 l 315 569 q 306 583 313 576 q 287 595 299 590 q 254 600 275 600 q 213 584 226 600 q 199 526 199 568 l 199 204 q 204 166 199 181 q 219 144 210 151 q 238 135 228 138 q 256 133 247 133 z "},"ğ":{"ha":522,"x_min":40,"x_max":475,"o":"m 258 -165 q 211 -164 239 -165 q 156 -160 183 -162 q 110 -155 129 -157 q 88 -151 92 -153 l 88 -67 q 142 -73 106 -69 q 203 -76 178 -76 q 239 -74 219 -76 q 276 -61 258 -71 q 305 -31 293 -51 q 317 25 317 -11 l 317 124 q 297 87 310 107 q 258 53 283 67 q 188 39 233 39 q 133 44 160 39 q 85 69 106 50 q 53 131 65 89 q 40 246 40 174 l 40 539 q 55 622 40 590 q 92 669 69 653 q 140 690 114 685 q 189 696 165 696 q 267 685 232 696 q 317 635 303 675 l 333 686 l 475 686 l 475 103 q 466 5 475 53 q 435 -81 457 -43 q 370 -142 413 -119 q 258 -165 328 -165 m 256 133 q 292 145 279 133 q 310 178 306 157 q 315 224 315 200 l 315 569 q 306 583 313 576 q 287 595 299 590 q 254 600 275 600 q 213 584 226 600 q 199 526 199 568 l 199 204 q 204 166 199 181 q 219 144 210 151 q 238 135 228 138 q 256 133 247 133 m 261 757 q 164 781 197 757 q 119 837 131 804 q 106 896 107 869 l 192 896 q 215 849 194 864 q 263 833 236 833 q 312 848 292 833 q 335 896 332 863 l 421 896 q 404 828 421 860 q 353 777 388 797 q 261 757 319 757 z "},"ģ":{"ha":522,"x_min":40,"x_max":475,"o":"m 332 965 q 300 911 313 936 q 288 869 288 886 q 297 852 288 860 q 316 835 307 844 q 325 807 325 825 q 306 770 325 786 q 258 754 288 754 q 206 772 226 754 q 186 815 186 789 q 199 863 186 836 q 230 917 211 890 q 267 965 249 944 l 332 965 m 258 -165 q 211 -164 239 -165 q 156 -160 183 -162 q 110 -155 129 -157 q 88 -151 92 -153 l 88 -67 q 142 -73 106 -69 q 203 -76 178 -76 q 239 -74 219 -76 q 276 -61 258 -71 q 305 -31 293 -51 q 317 25 317 -11 l 317 124 q 297 87 310 107 q 258 53 283 67 q 188 39 233 39 q 133 44 160 39 q 85 69 106 50 q 53 131 65 89 q 40 246 40 174 l 40 539 q 55 622 40 590 q 92 669 69 653 q 140 690 114 685 q 189 696 165 696 q 267 685 232 696 q 317 635 303 675 l 333 686 l 475 686 l 475 103 q 466 5 475 53 q 435 -81 457 -43 q 370 -142 413 -119 q 258 -165 328 -165 m 256 133 q 292 145 279 133 q 310 178 306 157 q 315 224 315 200 l 315 569 q 306 583 313 576 q 287 595 299 590 q 254 600 275 600 q 213 584 226 600 q 199 526 199 568 l 199 204 q 204 166 199 181 q 219 144 210 151 q 238 135 228 138 q 256 133 247 133 z "},"ġ":{"ha":522,"x_min":40,"x_max":475,"o":"m 258 -165 q 211 -164 239 -165 q 156 -160 183 -162 q 110 -155 129 -157 q 88 -151 92 -153 l 88 -67 q 142 -73 106 -69 q 203 -76 178 -76 q 239 -74 219 -76 q 276 -61 258 -71 q 305 -31 293 -51 q 317 25 317 -11 l 317 124 q 297 87 310 107 q 258 53 283 67 q 188 39 233 39 q 133 44 160 39 q 85 69 106 50 q 53 131 65 89 q 40 246 40 174 l 40 539 q 55 622 40 590 q 92 669 69 653 q 140 690 114 685 q 189 696 165 696 q 267 685 232 696 q 317 635 303 675 l 333 686 l 475 686 l 475 103 q 466 5 475 53 q 435 -81 457 -43 q 370 -142 413 -119 q 258 -165 328 -165 m 256 133 q 292 145 279 133 q 310 178 306 157 q 315 224 315 200 l 315 569 q 306 583 313 576 q 287 595 299 590 q 254 600 275 600 q 213 584 226 600 q 199 526 199 568 l 199 204 q 204 166 199 181 q 219 144 210 151 q 238 135 228 138 q 256 133 247 133 m 263 763 q 206 785 229 763 q 181 842 182 808 q 205 898 181 875 q 264 921 229 921 q 322 898 297 921 q 346 842 346 875 q 322 785 347 808 q 263 763 297 763 z "},"г":{"ha":411,"x_min":46,"x_max":392,"o":"m 46 0 l 46 688 l 392 688 l 392 574 l 214 574 l 214 0 l 46 0 z "},"ß":{"ha":626,"x_min":-60,"x_max":592,"o":"m 21 -204 q -22 -202 6 -204 q -60 -199 -49 -200 l -60 -108 q -50 -110 -54 -110 q -40 -111 -46 -110 q -23 -113 -33 -112 q 1 -114 -12 -114 q 69 -85 53 -114 q 86 -15 86 -56 l 86 578 l 31 578 l 31 688 l 86 688 l 86 725 q 103 811 86 778 q 174 860 121 844 q 326 876 226 876 q 507 847 444 876 q 569 740 569 817 l 569 608 q 538 514 569 550 q 465 475 506 478 l 465 469 q 524 451 496 467 q 572 408 553 436 q 592 339 592 381 l 592 168 q 563 60 592 96 q 482 12 533 24 q 361 0 431 0 l 285 0 l 285 82 l 339 82 q 386 93 369 82 q 410 136 403 104 q 417 232 417 168 l 417 332 q 408 383 417 363 q 381 413 400 403 q 328 424 363 424 l 290 424 l 292 507 l 351 507 q 401 534 390 507 q 413 608 413 561 l 413 692 q 397 774 413 749 q 328 799 381 799 q 274 786 292 799 q 250 753 256 774 q 244 706 244 732 l 246 11 q 226 -98 246 -56 q 173 -163 206 -140 q 101 -195 140 -186 q 21 -204 61 -204 z "},"ѓ":{"ha":411,"x_min":46,"x_max":392,"o":"m 46 0 l 46 688 l 392 688 l 392 574 l 214 574 l 214 0 l 46 0 m 136 761 l 215 900 l 368 900 l 236 761 l 136 761 z "},"`":{"ha":274,"x_min":0,"x_max":232,"o":"m 133 761 l 0 900 l 153 900 l 232 761 l 133 761 z "},"̀":{"ha":0,"x_min":0,"x_max":232,"o":"m 133 761 l 0 900 l 153 900 l 232 761 l 133 761 z "},">":{"ha":447,"x_min":54,"x_max":392,"o":"m 54 182 l 54 326 l 261 458 l 54 590 l 54 731 l 392 501 l 392 413 l 54 182 z "},"≥":{"ha":447,"x_min":54,"x_max":392,"o":"m 54 -6 l 54 101 l 383 101 l 383 -6 l 54 -6 m 54 182 l 54 326 l 261 458 l 54 590 l 54 731 l 392 501 l 392 413 l 54 182 z "},"«":{"ha":728,"x_min":50,"x_max":678,"o":"m 531 143 l 349 406 l 535 674 l 678 674 l 492 406 l 674 143 l 531 143 m 232 143 l 50 406 l 236 674 l 379 674 l 194 406 l 375 143 l 232 143 z "},"»":{"ha":728,"x_min":50,"x_max":678,"o":"m 354 143 l 535 406 l 349 674 l 492 674 l 678 406 l 496 143 l 354 143 m 56 143 l 236 406 l 50 674 l 193 674 l 379 406 l 197 143 l 56 143 z "},"‹":{"ha":429,"x_min":50,"x_max":379,"o":"m 232 143 l 50 406 l 236 674 l 379 674 l 194 406 l 375 143 l 232 143 z "},"›":{"ha":429,"x_min":50,"x_max":379,"o":"m 54 143 l 235 406 l 50 674 l 193 674 l 379 406 l 197 143 l 54 143 z "},"h":{"ha":529,"x_min":51,"x_max":488,"o":"m 51 0 l 51 875 l 200 875 l 200 611 q 247 675 210 653 q 331 697 283 697 q 431 674 397 697 q 476 611 464 651 q 488 515 488 571 l 488 0 l 329 0 l 329 492 q 328 521 329 507 q 320 546 326 535 q 301 565 314 557 q 268 572 289 572 q 236 566 249 572 q 217 551 224 560 q 210 536 211 543 l 210 0 l 51 0 z "},"х":{"ha":479,"x_min":1,"x_max":471,"o":"m 1 0 l 139 357 l 25 688 l 176 688 l 244 476 l 325 688 l 471 688 l 344 357 l 471 0 l 319 0 l 243 225 l 157 0 l 1 0 z "},"ъ":{"ha":582,"x_min":18,"x_max":536,"o":"m 96 0 l 96 593 l 18 593 l 18 688 l 254 688 l 254 472 l 376 472 q 458 458 422 472 q 515 409 493 444 q 536 308 536 374 l 536 215 q 524 103 536 146 q 488 38 511 60 q 431 8 464 17 q 353 0 397 0 l 96 0 m 254 83 l 318 83 q 357 93 344 83 q 374 122 369 103 q 378 167 378 142 l 378 283 q 374 333 378 313 q 358 363 371 353 q 317 374 346 374 l 254 374 l 254 83 z "},"ħ":{"ha":526,"x_min":-1,"x_max":488,"o":"m -1 739 l -1 818 l 293 818 l 293 739 l -1 739 m 51 0 l 51 875 l 200 875 l 200 611 q 247 675 210 653 q 331 697 283 697 q 431 674 397 697 q 476 611 464 651 q 488 515 488 571 l 488 0 l 329 0 l 329 492 q 328 521 329 507 q 320 546 326 535 q 301 565 314 557 q 268 572 289 572 q 236 566 249 572 q 217 551 224 560 q 210 536 211 543 l 210 0 l 51 0 z "},"̉":{"ha":0,"x_min":17,"x_max":229,"o":"m 79 763 l 79 779 q 94 810 79 800 q 124 830 108 821 q 139 856 139 839 l 139 864 q 133 885 139 875 q 113 894 128 894 q 88 865 90 894 l 17 876 q 46 933 21 914 q 119 953 71 953 q 201 937 174 953 q 229 867 229 921 l 229 861 q 213 819 229 831 q 180 800 196 807 q 164 776 164 793 l 164 763 l 79 763 z "},"̛":{"ha":0,"x_min":14,"x_max":204,"o":"m 15 614 l 14 683 l 38 683 q 100 749 100 683 l 100 774 l 204 774 l 204 750 q 157 645 204 676 q 15 614 110 614 z "},"˝":{"ha":296,"x_min":0,"x_max":296,"o":"m 0 761 l 24 900 l 147 900 l 63 761 l 0 761 m 131 761 l 174 900 l 296 900 l 203 761 l 131 761 z "},"̋":{"ha":0,"x_min":0,"x_max":296,"o":"m 0 761 l 24 900 l 147 900 l 63 761 l 0 761 m 131 761 l 174 900 l 296 900 l 203 761 l 131 761 z "},"-":{"ha":389,"x_min":50,"x_max":339,"o":"m 50 333 l 50 440 l 339 440 l 339 333 l 50 333 z "},"i":{"ha":263,"x_min":49,"x_max":215,"o":"m 51 0 l 51 688 l 210 688 l 210 0 l 51 0 m 131 763 q 74 785 97 763 q 49 842 50 808 q 73 898 49 875 q 132 921 97 921 q 190 898 165 921 q 214 842 214 875 q 190 785 215 808 q 131 763 165 763 z "},"і":{"ha":263,"x_min":49,"x_max":215,"o":"m 51 0 l 51 688 l 210 688 l 210 0 l 51 0 m 131 763 q 74 785 97 763 q 49 842 50 808 q 73 898 49 875 q 132 921 97 921 q 190 898 165 921 q 214 842 214 875 q 190 785 215 808 q 131 763 165 763 z "},"я":{"ha":565,"x_min":26,"x_max":519,"o":"m 26 0 l 107 226 q 147 293 125 274 q 196 315 168 313 q 101 356 132 321 q 69 468 69 390 l 69 517 q 112 645 69 603 q 236 688 154 688 l 519 688 l 519 0 l 351 0 l 351 299 l 307 274 q 273 204 288 243 q 244 118 258 165 l 207 0 l 26 0 m 299 361 l 351 361 l 351 600 l 282 600 q 244 572 257 600 q 231 506 231 543 l 231 476 q 249 385 231 410 q 299 361 267 361 z "},"í":{"ha":263,"x_min":51,"x_max":293,"o":"m 51 0 l 51 688 l 210 688 l 210 0 l 51 0 m 61 761 l 140 900 l 293 900 l 161 761 l 61 761 z "},"ǐ":{"ha":263,"x_min":-46,"x_max":307,"o":"m 51 0 l 51 688 l 210 688 l 210 0 l 51 0 m 85 758 l -46 904 l 51 904 l 132 826 l 213 904 l 307 904 l 175 758 l 85 758 z "},"î":{"ha":263,"x_min":-46,"x_max":307,"o":"m 51 0 l 51 688 l 210 688 l 210 0 l 51 0 m -46 758 l 86 904 l 175 904 l 307 758 l 213 758 l 132 836 l 51 758 l -46 758 z "},"ï":{"ha":263,"x_min":-18,"x_max":279,"o":"m 51 0 l 51 688 l 210 688 l 210 0 l 51 0 m 49 763 q 1 781 19 763 q -18 826 -18 799 q 1 870 -18 853 q 49 888 19 888 q 94 870 76 888 q 113 826 113 853 q 94 781 113 799 q 49 763 76 763 m 215 763 q 168 781 188 763 q 149 826 149 799 q 168 870 149 853 q 215 888 188 888 q 262 870 243 888 q 281 826 281 853 q 262 781 281 799 q 215 763 243 763 z "},"ị":{"ha":263,"x_min":49,"x_max":215,"o":"m 51 0 l 51 688 l 210 688 l 210 0 l 51 0 m 131 763 q 74 785 97 763 q 49 842 50 808 q 73 898 49 875 q 132 921 97 921 q 190 898 165 921 q 214 842 214 875 q 190 785 215 808 q 131 763 165 763 m 135 -181 q 87 -161 106 -181 q 68 -117 68 -142 q 87 -70 68 -89 q 135 -51 106 -51 q 181 -70 161 -51 q 201 -117 201 -89 q 181 -161 201 -142 q 135 -181 161 -181 z "},"ı":{"ha":263,"x_min":51,"x_max":210,"o":"m 51 0 l 51 688 l 210 688 l 210 0 l 51 0 z "},"е":{"ha":508,"x_min":40,"x_max":475,"o":"m 261 -11 q 140 5 189 -11 q 65 69 90 21 q 40 214 40 117 l 40 524 q 94 661 40 624 q 258 699 149 699 q 421 661 367 699 q 475 524 475 624 l 475 336 l 199 336 l 199 149 q 212 90 199 107 q 260 74 225 74 q 303 90 292 74 q 315 149 315 106 l 315 258 l 475 258 l 475 215 q 450 69 475 118 q 377 5 425 21 q 261 -11 329 -11 m 199 408 l 315 408 l 315 542 q 303 599 315 582 q 258 615 292 615 q 212 599 225 615 q 199 542 199 582 l 199 408 z "},"ѐ":{"ha":508,"x_min":40,"x_max":475,"o":"m 261 -11 q 140 5 189 -11 q 65 69 90 21 q 40 214 40 117 l 40 524 q 94 661 40 624 q 258 699 149 699 q 421 661 367 699 q 475 524 475 624 l 475 336 l 199 336 l 199 149 q 212 90 199 107 q 260 74 225 74 q 303 90 292 74 q 315 149 315 106 l 315 258 l 475 258 l 475 215 q 450 69 475 118 q 377 5 425 21 q 261 -11 329 -11 m 199 408 l 315 408 l 315 542 q 303 599 315 582 q 258 615 292 615 q 212 599 225 615 q 199 542 199 582 l 199 408 m 233 761 l 100 900 l 253 900 l 332 761 l 233 761 z "},"ì":{"ha":263,"x_min":-24,"x_max":210,"o":"m 51 0 l 51 688 l 210 688 l 210 0 l 51 0 m 110 761 l -24 900 l 129 900 l 208 761 l 110 761 z "},"ỉ":{"ha":263,"x_min":25,"x_max":236,"o":"m 51 0 l 51 688 l 210 688 l 210 0 l 51 0 m 86 763 l 86 779 q 101 810 86 800 q 131 830 115 821 q 146 856 146 839 l 146 864 q 140 885 146 875 q 119 894 135 894 q 94 865 97 894 l 24 876 q 53 933 28 914 q 126 953 78 953 q 208 937 181 953 q 236 867 236 921 l 236 861 q 219 819 236 831 q 187 800 203 807 q 171 776 171 793 l 171 763 l 86 763 z "},"и":{"ha":526,"x_min":46,"x_max":482,"o":"m 46 0 l 46 688 l 185 688 l 185 285 l 343 688 l 482 688 l 482 0 l 343 0 l 343 440 q 258 220 300 329 q 174 0 217 111 l 46 0 z "},"ѝ":{"ha":526,"x_min":46,"x_max":482,"o":"m 46 0 l 46 688 l 185 688 l 185 285 l 343 688 l 482 688 l 482 0 l 343 0 l 343 440 q 258 220 300 329 q 174 0 217 111 l 46 0 m 242 761 l 108 900 l 261 900 l 340 761 l 242 761 z "},"й":{"ha":526,"x_min":46,"x_max":482,"o":"m 46 0 l 46 688 l 185 688 l 185 285 l 343 688 l 482 688 l 482 0 l 343 0 l 343 440 q 258 220 300 329 q 174 0 217 111 l 46 0 m 261 757 q 164 781 197 757 q 119 837 131 804 q 106 896 107 869 l 192 896 q 215 849 194 864 q 263 833 236 833 q 312 848 292 833 q 335 896 332 863 l 421 896 q 404 828 421 860 q 353 777 388 797 q 261 757 319 757 z "},"ī":{"ha":263,"x_min":-12,"x_max":274,"o":"m 51 0 l 51 688 l 210 688 l 210 0 l 51 0 m -12 778 l -12 858 l 274 858 l 274 778 l -12 778 z "},"∞":{"ha":968,"x_min":50,"x_max":919,"o":"m 228 135 q 94 186 138 135 q 50 340 50 238 q 92 494 50 440 q 228 549 133 549 q 326 528 282 549 q 408 474 369 507 q 483 401 447 440 q 558 473 519 440 q 642 527 597 506 q 742 549 688 549 q 877 494 835 549 q 919 340 919 440 q 877 188 919 242 q 742 135 835 135 q 642 156 688 135 q 560 211 597 176 q 485 282 522 246 q 410 209 450 243 q 326 155 371 175 q 228 135 282 135 m 232 229 q 324 260 285 229 q 415 342 363 292 q 354 395 383 371 q 296 434 325 419 q 232 449 267 449 q 161 419 185 449 q 138 339 138 389 q 161 259 138 289 q 232 229 185 229 m 736 233 q 807 262 783 233 q 831 343 831 290 q 807 423 831 393 q 736 453 783 453 q 691 446 711 453 q 651 425 671 439 q 608 390 631 411 q 554 340 585 369 q 623 280 593 303 q 680 245 653 257 q 736 233 707 233 z "},"∫":{"ha":553,"x_min":-144,"x_max":531,"o":"m -43 -414 q -93 -410 -68 -412 q -144 -399 -118 -407 l -126 -299 l -33 -308 q 13 -283 -1 -307 q 32 -235 28 -260 l 200 725 q 244 823 211 790 q 324 865 276 856 q 428 875 372 875 q 483 872 457 875 q 531 861 510 868 l 514 760 l 418 771 q 372 746 386 769 q 353 697 358 722 l 186 -262 q 141 -360 174 -328 q 60 -403 108 -393 q -43 -414 13 -414 z "},"ё":{"ha":508,"x_min":40,"x_max":475,"o":"m 261 -11 q 140 5 189 -11 q 65 69 90 21 q 40 214 40 117 l 40 524 q 94 661 40 624 q 258 699 149 699 q 421 661 367 699 q 475 524 475 624 l 475 336 l 199 336 l 199 149 q 212 90 199 107 q 260 74 225 74 q 303 90 292 74 q 315 149 315 106 l 315 258 l 475 258 l 475 215 q 450 69 475 118 q 377 5 425 21 q 261 -11 329 -11 m 199 408 l 315 408 l 315 542 q 303 599 315 582 q 258 615 292 615 q 212 599 225 615 q 199 542 199 582 l 199 408 m 172 763 q 124 781 143 763 q 106 826 106 799 q 124 870 106 853 q 172 888 143 888 q 218 870 200 888 q 236 826 236 853 q 218 781 236 799 q 172 763 200 763 m 339 763 q 292 781 311 763 q 272 826 272 799 q 292 870 272 853 q 339 888 311 888 q 385 870 367 888 q 404 826 404 853 q 385 781 404 799 q 339 763 367 763 z "},"į":{"ha":263,"x_min":36,"x_max":239,"o":"m 51 0 l 51 688 l 210 688 l 210 0 l 51 0 m 131 763 q 74 785 97 763 q 49 842 50 808 q 73 898 49 875 q 132 921 97 921 q 190 898 165 921 q 214 842 214 875 q 190 785 215 808 q 131 763 165 763 m 150 -200 q 68 -173 100 -200 q 36 -111 36 -146 q 67 -39 36 -72 q 146 1 99 -6 l 211 0 q 156 -39 174 -12 q 139 -89 139 -65 q 156 -129 139 -115 q 190 -143 174 -143 q 209 -140 201 -143 q 221 -137 217 -137 l 239 -179 q 212 -192 232 -183 q 150 -200 192 -200 z "},"ĩ":{"ha":263,"x_min":-31,"x_max":292,"o":"m 51 0 l 51 688 l 210 688 l 210 0 l 51 0 m 194 765 q 156 773 174 765 q 118 792 138 781 q 89 808 104 801 q 57 815 74 815 q 28 802 39 815 q 17 767 18 789 l -31 767 q -5 855 -29 821 q 58 889 19 889 q 100 881 81 889 q 136 863 119 874 q 166 847 151 854 q 196 840 181 840 q 226 853 215 840 q 239 885 236 865 l 290 885 q 276 819 290 846 q 239 778 261 792 q 194 765 217 765 z "},"ю":{"ha":819,"x_min":46,"x_max":776,"o":"m 558 -14 q 435 6 483 -14 q 364 74 386 25 q 342 213 342 124 l 342 518 q 363 619 342 579 q 433 678 385 658 q 558 699 481 699 q 684 678 636 699 q 754 619 732 658 q 776 518 776 579 l 776 214 q 753 74 776 124 q 682 6 731 25 q 558 -14 633 -14 m 46 0 l 46 688 l 204 688 l 204 417 l 394 417 l 394 297 l 204 297 l 204 0 l 46 0 m 558 69 q 597 79 583 69 q 613 108 610 89 q 617 150 617 126 l 617 535 q 613 576 617 558 q 597 605 610 594 q 558 615 583 615 q 521 605 533 615 q 504 576 508 594 q 500 535 500 558 l 500 150 q 504 108 500 126 q 521 79 508 89 q 558 69 533 69 z "},"j":{"ha":258,"x_min":-83,"x_max":213,"o":"m -32 -156 q -59 -153 -40 -154 q -83 -151 -78 -153 l -83 -67 q -56 -67 -72 -68 q -29 -67 -39 -67 q 31 -44 10 -64 q 51 10 51 -25 l 51 688 l 210 688 l 210 56 q 176 -84 210 -37 q 87 -145 142 -131 q -32 -156 32 -160 m 129 763 q 72 785 96 763 q 47 842 49 808 q 72 898 47 875 q 131 921 96 921 q 188 898 164 921 q 213 842 213 875 q 189 785 214 808 q 129 763 164 763 z "},"ȷ":{"ha":258,"x_min":-83,"x_max":210,"o":"m -32 -156 q -59 -153 -40 -154 q -83 -151 -78 -153 l -83 -67 q -56 -67 -72 -68 q -29 -67 -39 -67 q 31 -44 10 -64 q 51 10 51 -25 l 51 688 l 210 688 l 210 56 q 176 -84 210 -37 q 87 -145 142 -131 q -32 -156 32 -160 z "},"ј":{"ha":258,"x_min":-83,"x_max":213,"o":"m -32 -156 q -59 -153 -40 -154 q -83 -151 -78 -153 l -83 -67 q -56 -67 -72 -68 q -29 -67 -39 -67 q 31 -44 10 -64 q 51 10 51 -25 l 51 688 l 210 688 l 210 56 q 176 -84 210 -37 q 87 -145 142 -131 q -32 -156 32 -160 m 129 763 q 72 785 96 763 q 47 842 49 808 q 72 898 47 875 q 131 921 96 921 q 188 898 164 921 q 213 842 213 875 q 189 785 214 808 q 129 763 164 763 z "},"k":{"ha":528,"x_min":51,"x_max":517,"o":"m 344 0 l 219 399 l 360 688 l 517 688 l 371 396 l 515 0 l 344 0 m 51 0 l 51 878 l 210 878 l 210 0 l 51 0 z "},"к":{"ha":556,"x_min":46,"x_max":522,"o":"m 46 0 l 46 688 l 204 688 l 204 449 q 294 576 242 522 q 406 656 346 629 q 522 678 465 683 l 522 574 q 463 549 489 567 q 417 511 436 532 q 393 483 404 497 q 372 451 382 468 l 519 0 l 338 0 l 233 276 q 217 248 225 264 q 204 222 210 232 l 204 0 l 46 0 z "},"ķ":{"ha":528,"x_min":51,"x_max":517,"o":"m 344 0 l 219 399 l 360 688 l 517 688 l 371 396 l 515 0 l 344 0 m 51 0 l 51 878 l 210 878 l 210 0 l 51 0 m 194 -262 q 226 -208 214 -233 q 239 -167 239 -183 q 229 -150 239 -157 q 210 -133 219 -143 q 200 -104 200 -122 q 219 -68 200 -85 q 268 -51 239 -51 q 319 -69 300 -51 q 339 -112 339 -87 q 326 -160 339 -132 q 296 -215 314 -187 q 258 -262 278 -242 l 194 -262 z "},"ќ":{"ha":556,"x_min":46,"x_max":522,"o":"m 46 0 l 46 688 l 204 688 l 204 449 q 294 576 242 522 q 406 656 346 629 q 522 678 465 683 l 522 574 q 463 549 489 567 q 417 511 436 532 q 393 483 404 497 q 372 451 382 468 l 519 0 l 338 0 l 233 276 q 217 248 225 264 q 204 222 210 232 l 204 0 l 46 0 m 208 761 l 288 900 l 440 900 l 308 761 l 208 761 z "},"l":{"ha":263,"x_min":51,"x_max":210,"o":"m 51 0 l 51 878 l 210 878 l 210 0 l 51 0 z "},"ĺ":{"ha":263,"x_min":47,"x_max":301,"o":"m 51 0 l 51 878 l 210 878 l 210 0 l 51 0 m 49 935 l 157 1065 l 303 1065 l 138 935 l 49 935 z "},"ľ":{"ha":367,"x_min":51,"x_max":379,"o":"m 51 0 l 51 878 l 210 878 l 210 0 l 51 0 m 250 704 l 283 907 l 379 907 l 307 704 l 250 704 z "},"ļ":{"ha":263,"x_min":51,"x_max":210,"o":"m 51 0 l 51 878 l 210 878 l 210 0 l 51 0 m 56 -262 q 88 -208 75 -233 q 100 -167 100 -183 q 90 -150 100 -157 q 71 -133 81 -143 q 61 -104 61 -122 q 81 -68 61 -85 q 129 -51 100 -51 q 181 -69 161 -51 q 200 -112 200 -87 q 188 -160 200 -132 q 157 -215 175 -187 q 119 -262 139 -242 l 56 -262 z "},"←":{"ha":1113,"x_min":50,"x_max":1061,"o":"m 435 39 l 50 356 l 435 676 l 513 600 l 322 422 l 1061 418 l 1060 292 l 325 294 l 511 117 l 435 39 z "},"↔":{"ha":1404,"x_min":49,"x_max":1353,"o":"m 436 88 l 49 406 l 436 725 l 513 649 l 324 471 l 1079 471 l 889 649 l 967 725 l 1353 406 l 967 88 l 889 164 l 1075 340 l 328 340 l 513 164 l 436 88 z "},"<":{"ha":447,"x_min":54,"x_max":392,"o":"m 392 182 l 54 411 l 54 500 l 392 731 l 392 586 l 186 454 l 392 322 l 392 182 z "},"≤":{"ha":440,"x_min":51,"x_max":390,"o":"m 389 182 l 51 413 l 51 501 l 389 731 l 389 590 l 183 458 l 389 326 l 389 182 m 390 -6 l 61 -6 l 61 101 l 390 101 l 390 -6 z "},"љ":{"ha":886,"x_min":18,"x_max":840,"o":"m 18 0 l 18 83 q 67 114 44 83 q 92 189 89 144 l 135 688 l 560 688 l 560 472 l 681 472 q 765 458 729 472 q 820 408 800 443 q 840 308 840 372 l 840 225 q 828 111 840 156 q 794 43 817 67 q 738 10 771 19 q 658 0 704 0 l 397 0 l 397 575 l 296 575 l 253 147 q 247 99 250 125 q 232 51 244 74 q 194 15 219 29 q 119 0 168 0 l 18 0 m 560 83 l 622 83 q 661 93 649 83 q 678 122 674 103 q 682 167 682 142 l 682 283 q 678 333 682 313 q 663 363 675 353 q 621 374 650 374 l 560 374 l 560 83 z "},"¬":{"ha":775,"x_min":56,"x_max":725,"o":"m 621 182 l 621 450 l 56 450 l 56 565 l 725 565 l 725 182 l 621 182 z "},"ſ":{"ha":517,"x_min":10,"x_max":471,"o":"m 125 -200 q 67 -199 97 -200 q 10 -192 36 -197 l 10 -110 l 53 -111 q 78 -110 65 -112 q 101 -101 90 -107 q 128 -81 119 -97 q 139 -47 138 -65 l 139 517 l 85 517 l 85 611 l 139 611 l 139 726 q 165 824 139 792 q 237 867 192 857 q 336 878 282 878 q 406 872 372 878 q 471 860 440 867 l 457 768 q 402 781 428 778 q 347 783 376 783 q 308 756 317 783 q 299 704 299 729 l 299 13 q 276 -106 299 -61 q 214 -174 253 -151 q 125 -200 175 -196 z "},"◊":{"ha":672,"x_min":50,"x_max":622,"o":"m 283 -47 l 50 406 l 283 857 l 389 857 l 622 406 l 389 -47 l 283 -47 m 338 101 l 483 408 l 339 710 l 190 406 l 338 101 z "},"ł":{"ha":404,"x_min":36,"x_max":368,"o":"m 122 0 l 122 229 l 36 192 l 36 261 l 122 300 l 122 878 l 279 878 l 279 369 l 368 410 l 368 340 l 279 301 l 279 0 l 122 0 z "},"m":{"ha":800,"x_min":51,"x_max":757,"o":"m 51 0 l 51 688 l 186 688 l 200 603 q 249 671 214 644 q 332 697 285 697 q 443 664 410 697 q 481 567 476 631 l 464 567 q 511 660 472 622 q 606 697 550 697 q 726 653 694 697 q 757 524 757 610 l 757 0 l 599 0 l 599 513 q 586 569 599 553 q 546 585 574 585 q 505 572 522 585 q 483 540 488 560 l 483 0 l 325 0 l 325 517 q 313 569 325 553 q 271 585 300 585 q 233 574 247 585 q 210 549 218 564 l 210 0 l 51 0 z "},"¯":{"ha":314,"x_min":14,"x_max":300,"o":"m 14 778 l 14 858 l 300 858 l 300 778 l 14 778 z "},"̄":{"ha":0,"x_min":14,"x_max":300,"o":"m 14 778 l 14 858 l 300 858 l 300 778 l 14 778 z "},"µ":{"ha":535,"x_min":50,"x_max":485,"o":"m 50 -179 l 50 688 l 208 688 l 208 139 q 231 111 215 121 q 269 101 247 101 q 300 107 288 101 q 319 129 313 113 q 326 175 326 146 l 326 688 l 485 688 l 485 172 q 472 70 485 111 q 426 10 460 29 q 331 -10 393 -10 q 249 15 286 -10 q 199 83 213 40 l 185 -179 l 50 -179 z "},"−":{"ha":744,"x_min":89,"x_max":576,"o":"m 89 303 l 89 413 l 576 413 l 576 303 l 89 303 z "},"×":{"ha":540,"x_min":50,"x_max":490,"o":"m 415 143 l 271 286 l 131 147 l 53 224 l 193 364 l 50 506 l 128 583 l 271 440 l 411 582 l 488 504 l 349 364 l 490 219 l 415 143 z "},"n":{"ha":529,"x_min":51,"x_max":488,"o":"m 51 0 l 51 688 l 186 688 l 200 604 q 250 673 214 649 q 331 697 286 697 q 431 674 397 697 q 476 611 464 651 q 488 515 488 571 l 488 0 l 329 0 l 329 506 q 328 537 329 522 q 320 563 326 551 q 303 580 314 574 q 269 586 292 586 q 240 580 253 586 q 221 565 228 574 q 210 550 214 557 l 210 0 l 51 0 z "},"ń":{"ha":529,"x_min":51,"x_max":488,"o":"m 51 0 l 51 688 l 186 688 l 200 604 q 250 673 214 649 q 331 697 286 697 q 431 674 397 697 q 476 611 464 651 q 488 515 488 571 l 488 0 l 329 0 l 329 506 q 328 537 329 522 q 320 563 326 551 q 303 580 314 574 q 269 586 292 586 q 240 580 253 586 q 221 565 228 574 q 210 550 214 557 l 210 0 l 51 0 m 196 761 l 275 900 l 428 900 l 296 761 l 196 761 z "},"ň":{"ha":529,"x_min":51,"x_max":488,"o":"m 51 0 l 51 688 l 186 688 l 200 604 q 250 673 214 649 q 331 697 286 697 q 431 674 397 697 q 476 611 464 651 q 488 515 488 571 l 488 0 l 329 0 l 329 506 q 328 537 329 522 q 320 563 326 551 q 303 580 314 574 q 269 586 292 586 q 240 580 253 586 q 221 565 228 574 q 210 550 214 557 l 210 0 l 51 0 m 219 758 l 89 904 l 186 904 l 267 826 l 347 904 l 442 904 l 310 758 l 219 758 z "},"ņ":{"ha":529,"x_min":51,"x_max":488,"o":"m 51 0 l 51 688 l 186 688 l 200 604 q 250 673 214 649 q 331 697 286 697 q 431 674 397 697 q 476 611 464 651 q 488 515 488 571 l 488 0 l 329 0 l 329 506 q 328 537 329 522 q 320 563 326 551 q 303 580 314 574 q 269 586 292 586 q 240 580 253 586 q 221 565 228 574 q 210 550 214 557 l 210 0 l 51 0 m 192 -262 q 224 -208 211 -233 q 236 -167 236 -183 q 226 -150 236 -157 q 207 -133 217 -143 q 197 -104 197 -122 q 217 -68 197 -85 q 265 -51 236 -51 q 317 -69 297 -51 q 336 -112 336 -87 q 324 -160 336 -132 q 293 -215 311 -187 q 256 -262 275 -242 l 192 -262 z "},"њ":{"ha":813,"x_min":46,"x_max":767,"o":"m 46 0 l 46 688 l 204 688 l 204 417 l 329 417 l 329 688 l 485 688 l 485 472 l 607 472 q 690 458 654 472 q 747 408 726 443 q 767 308 767 372 l 767 225 q 755 111 767 156 q 720 43 743 67 q 663 10 697 19 q 585 0 629 0 l 329 0 l 329 297 l 204 297 l 204 0 l 46 0 m 485 83 l 549 83 q 588 93 575 83 q 604 122 600 103 q 608 167 608 142 l 608 283 q 605 333 608 313 q 589 363 601 353 q 547 374 576 374 l 485 374 l 485 83 z "},"↗":{"ha":797,"x_min":8,"x_max":769,"o":"m 99 85 l 8 175 l 532 693 l 274 689 l 274 797 l 769 844 l 724 346 l 615 346 l 624 606 l 99 85 z "},"↖":{"ha":836,"x_min":60,"x_max":818,"o":"m 729 60 l 211 582 l 217 325 l 108 325 l 60 821 l 558 775 l 558 667 l 300 675 l 818 149 l 729 60 z "},"≠":{"ha":579,"x_min":53,"x_max":529,"o":"m 53 -24 l 168 189 l 90 189 l 90 297 l 226 297 l 319 472 l 90 472 l 90 579 l 379 579 l 457 724 l 529 724 l 450 579 l 526 579 l 526 472 l 392 472 l 297 297 l 526 297 l 526 189 l 239 189 l 124 -24 l 53 -24 z "},"ñ":{"ha":529,"x_min":51,"x_max":488,"o":"m 51 0 l 51 688 l 186 688 l 200 604 q 250 673 214 649 q 331 697 286 697 q 431 674 397 697 q 476 611 464 651 q 488 515 488 571 l 488 0 l 329 0 l 329 506 q 328 537 329 522 q 320 563 326 551 q 303 580 314 574 q 269 586 292 586 q 240 580 253 586 q 221 565 228 574 q 210 550 214 557 l 210 0 l 51 0 m 329 765 q 290 773 308 765 q 253 792 272 781 q 224 808 239 801 q 192 815 208 815 q 163 802 174 815 q 151 767 153 789 l 104 767 q 130 855 106 821 q 193 889 154 889 q 235 881 215 889 q 271 863 254 874 q 301 847 286 854 q 331 840 315 840 q 360 853 350 840 q 374 885 371 865 l 425 885 q 410 819 425 846 q 374 778 396 792 q 329 765 351 765 z "},"#":{"ha":999,"x_min":46,"x_max":953,"o":"m 175 0 l 251 242 l 46 242 l 76 339 l 282 339 l 338 513 l 128 514 l 160 611 l 368 611 l 426 797 l 528 797 l 468 611 l 653 611 l 711 797 l 814 797 l 754 611 l 953 611 l 922 513 l 722 513 l 668 339 l 869 339 l 839 240 l 638 240 l 563 0 l 461 0 l 536 240 l 353 242 l 276 0 l 175 0 m 383 339 l 568 339 l 621 513 l 438 513 l 383 339 z "},"o":{"ha":515,"x_min":40,"x_max":475,"o":"m 258 -11 q 135 8 183 -11 q 63 78 86 28 q 40 217 40 128 l 40 508 q 63 616 40 574 q 133 678 85 658 q 258 699 181 699 q 384 678 336 699 q 453 616 432 658 q 475 508 475 574 l 475 217 q 452 78 475 128 q 381 8 429 28 q 258 -11 333 -11 m 258 82 q 296 92 283 82 q 313 122 308 103 q 317 164 317 140 l 317 525 q 313 567 317 549 q 296 595 308 585 q 258 606 283 606 q 220 595 233 606 q 203 567 207 585 q 199 525 199 549 l 199 164 q 203 122 199 140 q 220 92 207 103 q 258 82 233 82 z "},"о":{"ha":515,"x_min":40,"x_max":475,"o":"m 258 -11 q 135 8 183 -11 q 63 78 86 28 q 40 217 40 128 l 40 508 q 63 616 40 574 q 133 678 85 658 q 258 699 181 699 q 384 678 336 699 q 453 616 432 658 q 475 508 475 574 l 475 217 q 452 78 475 128 q 381 8 429 28 q 258 -11 333 -11 m 258 82 q 296 92 283 82 q 313 122 308 103 q 317 164 317 140 l 317 525 q 313 567 317 549 q 296 595 308 585 q 258 606 283 606 q 220 595 233 606 q 203 567 207 585 q 199 525 199 549 l 199 164 q 203 122 199 140 q 220 92 207 103 q 258 82 233 82 z "},"ó":{"ha":515,"x_min":40,"x_max":475,"o":"m 258 -11 q 135 8 183 -11 q 63 78 86 28 q 40 217 40 128 l 40 508 q 63 616 40 574 q 133 678 85 658 q 258 699 181 699 q 384 678 336 699 q 453 616 432 658 q 475 508 475 574 l 475 217 q 452 78 475 128 q 381 8 429 28 q 258 -11 333 -11 m 258 82 q 296 92 283 82 q 313 122 308 103 q 317 164 317 140 l 317 525 q 313 567 317 549 q 296 595 308 585 q 258 606 283 606 q 220 595 233 606 q 203 567 207 585 q 199 525 199 549 l 199 164 q 203 122 199 140 q 220 92 207 103 q 258 82 233 82 m 189 761 l 268 900 l 421 900 l 289 761 l 189 761 z "},"ǒ":{"ha":515,"x_min":40,"x_max":475,"o":"m 258 -11 q 135 8 183 -11 q 63 78 86 28 q 40 217 40 128 l 40 508 q 63 616 40 574 q 133 678 85 658 q 258 699 181 699 q 384 678 336 699 q 453 616 432 658 q 475 508 475 574 l 475 217 q 452 78 475 128 q 381 8 429 28 q 258 -11 333 -11 m 258 82 q 296 92 283 82 q 313 122 308 103 q 317 164 317 140 l 317 525 q 313 567 317 549 q 296 595 308 585 q 258 606 283 606 q 220 595 233 606 q 203 567 207 585 q 199 525 199 549 l 199 164 q 203 122 199 140 q 220 92 207 103 q 258 82 233 82 m 211 758 l 81 904 l 178 904 l 258 826 l 339 904 l 433 904 l 301 758 l 211 758 z "},"ô":{"ha":515,"x_min":40,"x_max":475,"o":"m 258 -11 q 135 8 183 -11 q 63 78 86 28 q 40 217 40 128 l 40 508 q 63 616 40 574 q 133 678 85 658 q 258 699 181 699 q 384 678 336 699 q 453 616 432 658 q 475 508 475 574 l 475 217 q 452 78 475 128 q 381 8 429 28 q 258 -11 333 -11 m 258 82 q 296 92 283 82 q 313 122 308 103 q 317 164 317 140 l 317 525 q 313 567 317 549 q 296 595 308 585 q 258 606 283 606 q 220 595 233 606 q 203 567 207 585 q 199 525 199 549 l 199 164 q 203 122 199 140 q 220 92 207 103 q 258 82 233 82 m 81 758 l 213 904 l 301 904 l 433 758 l 339 758 l 258 836 l 178 758 l 81 758 z "},"ố":{"ha":515,"x_min":40,"x_max":658,"o":"m 258 -11 q 135 8 183 -11 q 63 78 86 28 q 40 217 40 128 l 40 508 q 63 616 40 574 q 133 678 85 658 q 258 699 181 699 q 384 678 336 699 q 453 616 432 658 q 475 508 475 574 l 475 217 q 452 78 475 128 q 381 8 429 28 q 258 -11 333 -11 m 258 82 q 296 92 283 82 q 313 122 308 103 q 317 164 317 140 l 317 525 q 313 567 317 549 q 296 595 308 585 q 258 606 283 606 q 220 595 233 606 q 203 567 207 585 q 199 525 199 549 l 199 164 q 203 122 199 140 q 220 92 207 103 q 258 82 233 82 m 81 758 l 213 904 l 301 904 l 433 758 l 339 758 l 258 836 l 178 758 l 81 758 m 426 836 l 506 975 l 658 975 l 526 836 l 426 836 z "},"ộ":{"ha":515,"x_min":40,"x_max":475,"o":"m 258 -11 q 135 8 183 -11 q 63 78 86 28 q 40 217 40 128 l 40 508 q 63 616 40 574 q 133 678 85 658 q 258 699 181 699 q 384 678 336 699 q 453 616 432 658 q 475 508 475 574 l 475 217 q 452 78 475 128 q 381 8 429 28 q 258 -11 333 -11 m 258 82 q 296 92 283 82 q 313 122 308 103 q 317 164 317 140 l 317 525 q 313 567 317 549 q 296 595 308 585 q 258 606 283 606 q 220 595 233 606 q 203 567 207 585 q 199 525 199 549 l 199 164 q 203 122 199 140 q 220 92 207 103 q 258 82 233 82 m 257 -181 q 209 -161 228 -181 q 190 -117 190 -142 q 209 -70 190 -89 q 257 -51 228 -51 q 303 -70 283 -51 q 324 -117 324 -89 q 303 -161 324 -142 q 257 -181 283 -181 m 81 758 l 213 904 l 301 904 l 433 758 l 339 758 l 258 836 l 178 758 l 81 758 z "},"ồ":{"ha":515,"x_min":40,"x_max":572,"o":"m 258 -11 q 135 8 183 -11 q 63 78 86 28 q 40 217 40 128 l 40 508 q 63 616 40 574 q 133 678 85 658 q 258 699 181 699 q 384 678 336 699 q 453 616 432 658 q 475 508 475 574 l 475 217 q 452 78 475 128 q 381 8 429 28 q 258 -11 333 -11 m 258 82 q 296 92 283 82 q 313 122 308 103 q 317 164 317 140 l 317 525 q 313 567 317 549 q 296 595 308 585 q 258 606 283 606 q 220 595 233 606 q 203 567 207 585 q 199 525 199 549 l 199 164 q 203 122 199 140 q 220 92 207 103 q 258 82 233 82 m 81 758 l 213 904 l 301 904 l 433 758 l 339 758 l 258 836 l 178 758 l 81 758 m 474 836 l 340 975 l 493 975 l 572 836 l 474 836 z "},"ổ":{"ha":515,"x_min":40,"x_max":601,"o":"m 258 -11 q 135 8 183 -11 q 63 78 86 28 q 40 217 40 128 l 40 508 q 63 616 40 574 q 133 678 85 658 q 258 699 181 699 q 384 678 336 699 q 453 616 432 658 q 475 508 475 574 l 475 217 q 452 78 475 128 q 381 8 429 28 q 258 -11 333 -11 m 258 82 q 296 92 283 82 q 313 122 308 103 q 317 164 317 140 l 317 525 q 313 567 317 549 q 296 595 308 585 q 258 606 283 606 q 220 595 233 606 q 203 567 207 585 q 199 525 199 549 l 199 164 q 203 122 199 140 q 220 92 207 103 q 258 82 233 82 m 81 758 l 213 904 l 301 904 l 433 758 l 339 758 l 258 836 l 178 758 l 81 758 m 451 838 l 451 854 q 466 885 451 875 q 496 905 481 896 q 511 931 511 914 l 511 939 q 506 960 511 950 q 485 969 500 969 q 460 940 463 969 l 389 951 q 418 1008 393 989 q 492 1028 443 1028 q 574 1012 546 1028 q 601 942 601 996 l 601 936 q 585 894 601 906 q 552 875 568 882 q 536 851 536 868 l 536 838 l 451 838 z "},"ỗ":{"ha":515,"x_min":40,"x_max":475,"o":"m 258 -11 q 135 8 183 -11 q 63 78 86 28 q 40 217 40 128 l 40 508 q 63 616 40 574 q 133 678 85 658 q 258 699 181 699 q 384 678 336 699 q 453 616 432 658 q 475 508 475 574 l 475 217 q 452 78 475 128 q 381 8 429 28 q 258 -11 333 -11 m 258 82 q 296 92 283 82 q 313 122 308 103 q 317 164 317 140 l 317 525 q 313 567 317 549 q 296 595 308 585 q 258 606 283 606 q 220 595 233 606 q 203 567 207 585 q 199 525 199 549 l 199 164 q 203 122 199 140 q 220 92 207 103 q 258 82 233 82 m 81 758 l 213 904 l 301 904 l 433 758 l 339 758 l 258 836 l 178 758 l 81 758 m 322 938 q 283 945 301 938 q 246 964 265 953 q 217 981 232 974 q 185 988 201 988 q 156 974 167 988 q 144 939 146 961 l 97 939 q 123 1027 99 993 q 186 1061 147 1061 q 228 1053 208 1061 q 264 1035 247 1046 q 294 1019 279 1026 q 324 1013 308 1013 q 353 1025 343 1013 q 367 1057 364 1038 l 418 1057 q 403 991 418 1018 q 367 951 389 964 q 322 938 344 938 z "},"ö":{"ha":515,"x_min":40,"x_max":475,"o":"m 258 -11 q 135 8 183 -11 q 63 78 86 28 q 40 217 40 128 l 40 508 q 63 616 40 574 q 133 678 85 658 q 258 699 181 699 q 384 678 336 699 q 453 616 432 658 q 475 508 475 574 l 475 217 q 452 78 475 128 q 381 8 429 28 q 258 -11 333 -11 m 258 82 q 296 92 283 82 q 313 122 308 103 q 317 164 317 140 l 317 525 q 313 567 317 549 q 296 595 308 585 q 258 606 283 606 q 220 595 233 606 q 203 567 207 585 q 199 525 199 549 l 199 164 q 203 122 199 140 q 220 92 207 103 q 258 82 233 82 m 175 763 q 127 781 146 763 q 108 826 108 799 q 127 870 108 853 q 175 888 146 888 q 221 870 203 888 q 239 826 239 853 q 221 781 239 799 q 175 763 203 763 m 342 763 q 294 781 314 763 q 275 826 275 799 q 294 870 275 853 q 342 888 314 888 q 388 870 369 888 q 407 826 407 853 q 388 781 407 799 q 342 763 369 763 z "}}}
